<?xml version="1.0" encoding="utf-8"?>
<!-- Generator: Adobe Illustrator 23.0.2, SVG Export Plug-In . SVG Version: 6.00 Build 0)  -->
<svg version="1.1" id="Layer_1" xmlns="http://www.w3.org/2000/svg" xmlns:xlink="http://www.w3.org/1999/xlink" x="0px" y="0px"
	 viewBox="0 0 30 31" style="enable-background:new 0 0 30 31;" xml:space="preserve">
<style type="text/css">
	.st0{fill:#C6C5C4;}
	.st1{fill:#B12F2B;}
	.st2{fill:none;}
	.st3{fill:#C1C1C1;}
	.st4{fill:#A61E22;}
	.st5{fill:#C2C2C2;}
	.st6{fill:#A81812;}
	.st7{fill:#C79571;}
	.st8{fill:#A7C976;}
	.st9{fill:#FFFFFF;}
	.st10{fill:#EEE3D6;}
	.st11{fill:#CBCBCB;}
	.st12{fill:none;stroke:#000000;stroke-width:0.5;stroke-miterlimit:10;}
	.st13{clip-path:url(#SVGID_2_);fill:#C1C1C1;}
	.st14{clip-path:url(#SVGID_2_);fill:#A81812;}
	.st15{fill:#71D45B;}
	.st16{fill:#D1D1D1;}
</style>
<g transform="translate(0,-952.36218)">
	<path d="M2.3,958.6c-0.1,0-0.3,0.2-0.2,0.3v17.7c0,0.2,0.1,0.3,0.3,0.3H28c0.2,0,0.3-0.1,0.3-0.3v-17.7c0-0.2-0.1-0.3-0.3-0.3H2.3
		C2.4,958.6,2.4,958.6,2.3,958.6z M2.7,959.2h25v3.2l-12.5,6.5l-12.5-6.5V959.2z M2.7,963l12.4,6.4c0.1,0,0.2,0,0.3,0l12.4-6.4v13.2
		h-25V963z"/>
</g>
</svg>
