<?xml version="1.0" encoding="utf-8"?>
<!-- Generator: Adobe Illustrator 25.1.0, SVG Export Plug-In . SVG Version: 6.00 Build 0)  -->
<svg version="1.1" id="Layer_1" xmlns="http://www.w3.org/2000/svg" xmlns:xlink="http://www.w3.org/1999/xlink" x="0px" y="0px"
	 viewBox="0 0 99.36 70" style="enable-background:new 0 0 99.36 70;" xml:space="preserve">
<style type="text/css">
	.Drop_x0020_Shadow{fill:none;}
	.Round_x0020_Corners_x0020_2_x0020_pt{fill:#FFFFFF;stroke:#000000;stroke-miterlimit:10;}
	.Live_x0020_Reflect_x0020_X{fill:none;}
	.Bevel_x0020_Soft{fill:url(#SVGID_1_);}
	.Dusk{fill:#FFFFFF;}
	.Foliage_GS{fill:#FFDE00;}
	.Pompadour_GS{fill-rule:evenodd;clip-rule:evenodd;fill:#45ADE2;}
	.st0{fill:#B62025;}
	.st1{fill:#955B30;}
	.st2{fill:#B6A894;}
	.st3{fill:#B89974;}
</style>
<linearGradient id="SVGID_1_" gradientUnits="userSpaceOnUse" x1="-5.617" y1="0" x2="-4.9099" y2="0.7071">
	<stop  offset="0" style="stop-color:#DFE0E4"/>
	<stop  offset="0.1736" style="stop-color:#D9DADE"/>
	<stop  offset="0.3517" style="stop-color:#CACBCE"/>
	<stop  offset="0.5317" style="stop-color:#B4B5B8"/>
	<stop  offset="0.7132" style="stop-color:#989A9D"/>
	<stop  offset="0.894" style="stop-color:#797D7E"/>
	<stop  offset="1" style="stop-color:#656C6D"/>
</linearGradient>
<g>
	<g>
		<path class="st0" d="M19.55,4.14c0,0.03,0,0.05,0,0.08c-0.05,0.02-0.09,0.04-0.11,0.08c-0.02,0.03-0.03,0.08-0.03,0.13
			c0,0.05,0.02,0.1,0.03,0.15c0.21,0.57,0.41,1.14,0.62,1.71c-0.04,0.05-0.07,0.11-0.11,0.16c0.17-0.54,0.34-1.07,0.52-1.61
			c0.02,0.03,0.04,0.07,0.06,0.1c-0.21,0.68-0.42,1.36-0.64,2.03c-0.02,0-0.05,0-0.07,0.01C19.8,6.99,19.78,7,19.75,7
			c-0.03,0-0.05,0.01-0.07,0.01c-0.03,0-0.05,0.01-0.07,0.02c-0.3-0.8-0.6-1.6-0.91-2.4c-0.04-0.09-0.08-0.16-0.13-0.18
			c-0.05-0.03-0.09-0.04-0.13-0.03c0-0.03,0-0.05,0-0.08c0.08-0.01,0.18-0.02,0.29-0.04c0.11-0.02,0.22-0.03,0.32-0.05
			c0.11-0.02,0.2-0.04,0.29-0.05C19.42,4.17,19.5,4.16,19.55,4.14z M22.44,3.68c0,0.03,0,0.05,0,0.08
			c-0.06,0.03-0.12,0.09-0.19,0.17c-0.06,0.08-0.12,0.21-0.17,0.37c-0.24,0.81-0.48,1.63-0.72,2.44c-0.02,0-0.04,0-0.07,0.01
			c-0.02,0-0.05,0.01-0.07,0.01c-0.02,0-0.05,0.01-0.07,0.01c-0.03,0-0.05,0.01-0.07,0.01c-0.28-0.82-0.57-1.64-0.85-2.46
			c-0.03-0.08-0.06-0.13-0.1-0.16c-0.04-0.02-0.08-0.03-0.13-0.03c0-0.03,0-0.05,0-0.08c0.08-0.01,0.17-0.02,0.27-0.04
			c0.1-0.01,0.21-0.03,0.31-0.05c0.12-0.02,0.23-0.04,0.33-0.06c0.1-0.02,0.19-0.03,0.25-0.05c0,0.03,0,0.05,0,0.08
			c-0.08,0.02-0.15,0.04-0.19,0.06c-0.05,0.02-0.08,0.06-0.08,0.11c-0.01,0.05,0.01,0.12,0.04,0.21c0.19,0.56,0.38,1.12,0.58,1.68
			c-0.03,0.06-0.06,0.12-0.09,0.18c0.15-0.51,0.31-1.02,0.46-1.54c0.06-0.22,0.1-0.38,0.09-0.5c0-0.12-0.03-0.2-0.09-0.24
			c-0.06-0.04-0.15-0.05-0.26-0.04c0-0.03,0-0.05,0-0.08c0.09-0.01,0.18-0.02,0.26-0.03c0.08-0.01,0.16-0.02,0.24-0.03
			c0.06-0.01,0.12-0.02,0.17-0.03C22.36,3.7,22.4,3.69,22.44,3.68z"/>
		<path class="st0" d="M23.28,4.28c0.24-0.03,0.42,0.01,0.56,0.13c0.14,0.12,0.2,0.34,0.2,0.66c-0.45,0.06-0.89,0.13-1.34,0.2
			c0-0.03-0.01-0.05-0.01-0.08c0.28-0.04,0.56-0.08,0.83-0.12c0-0.13,0-0.26-0.03-0.37c-0.02-0.11-0.05-0.2-0.09-0.26
			c-0.04-0.06-0.09-0.09-0.16-0.08c-0.09,0.01-0.18,0.09-0.24,0.21c-0.07,0.13-0.1,0.33-0.12,0.61c0,0.01,0.01,0.01,0.01,0.02
			c0,0.03,0,0.07-0.01,0.1c0,0.04,0,0.07,0,0.11c0,0.19,0.03,0.34,0.08,0.44c0.05,0.11,0.12,0.18,0.2,0.23
			c0.08,0.04,0.16,0.05,0.25,0.04c0.08-0.01,0.17-0.05,0.26-0.1c0.1-0.06,0.19-0.16,0.27-0.3c0.02,0,0.05,0.01,0.07,0.01
			c-0.03,0.11-0.08,0.22-0.16,0.32c-0.07,0.11-0.16,0.2-0.27,0.28c-0.11,0.08-0.24,0.13-0.39,0.15c-0.18,0.03-0.35,0.01-0.49-0.05
			c-0.14-0.06-0.25-0.16-0.33-0.31c-0.08-0.15-0.12-0.35-0.12-0.59c0-0.25,0.04-0.47,0.13-0.65c0.08-0.18,0.2-0.33,0.35-0.43
			C22.92,4.37,23.09,4.31,23.28,4.28z"/>
		<path class="st0" d="M24.6,3.31c0.07-0.01,0.13,0,0.17,0.01c0.05,0.02,0.09,0.05,0.11,0.09c0.03,0.03,0.05,0.08,0.07,0.14
			c0.02,0.06,0.02,0.12,0.02,0.18c0,0.14-0.03,0.27-0.1,0.39c-0.07,0.12-0.18,0.23-0.32,0.32c-0.01-0.02-0.02-0.05-0.04-0.07
			c0.08-0.04,0.14-0.1,0.2-0.18c0.06-0.08,0.1-0.15,0.11-0.22c0.01-0.06,0.01-0.12,0-0.17c-0.06,0.07-0.14,0.12-0.24,0.13
			c-0.09,0.01-0.17,0-0.23-0.05c-0.06-0.05-0.09-0.12-0.09-0.22c0-0.1,0.03-0.18,0.1-0.24C24.43,3.36,24.51,3.32,24.6,3.31z"/>
		<path class="st0" d="M27.21,3.8c0,0.03,0,0.05,0,0.08C27.16,3.9,27.11,3.94,27.06,4c-0.05,0.06-0.09,0.15-0.13,0.27
			c-0.2,0.59-0.39,1.17-0.59,1.76c-0.04,0-0.09,0.01-0.13,0.01c-0.05,0.01-0.09,0.01-0.13,0.02c-0.24-0.57-0.48-1.14-0.72-1.71
			c-0.04-0.1-0.08-0.16-0.13-0.18c-0.04-0.02-0.08-0.02-0.11-0.02c0-0.03,0-0.06,0-0.09c0.09-0.01,0.18-0.01,0.27-0.02
			c0.09-0.01,0.2-0.02,0.31-0.03c0.08-0.01,0.17-0.03,0.27-0.04c0.09-0.02,0.18-0.03,0.26-0.05c0,0.03,0,0.06,0,0.09
			c-0.06,0.01-0.11,0.02-0.15,0.03c-0.04,0.01-0.08,0.03-0.09,0.06c-0.02,0.03-0.01,0.08,0.01,0.16c0.16,0.4,0.32,0.8,0.48,1.2
			c-0.01,0.02-0.03,0.04-0.04,0.06c0.11-0.31,0.21-0.62,0.32-0.93c0.08-0.23,0.09-0.39,0.04-0.49c-0.05-0.1-0.14-0.14-0.27-0.14
			c0-0.03,0-0.05,0-0.08c0.06-0.01,0.13-0.01,0.2-0.02c0.07-0.01,0.13-0.01,0.19-0.02c0.05-0.01,0.11-0.02,0.17-0.03
			C27.13,3.82,27.18,3.81,27.21,3.8z"/>
		<path class="st0" d="M28.3,3.61c0.24-0.03,0.43,0.02,0.56,0.15c0.14,0.13,0.2,0.35,0.2,0.67c-0.45,0.05-0.89,0.1-1.34,0.16
			c0-0.03-0.01-0.05-0.01-0.08c0.28-0.03,0.56-0.07,0.84-0.1c0-0.13,0-0.26-0.03-0.37c-0.02-0.11-0.05-0.2-0.09-0.26
			c-0.04-0.06-0.09-0.09-0.16-0.08c-0.09,0.01-0.18,0.08-0.24,0.21c-0.07,0.13-0.11,0.33-0.12,0.61c0,0.01,0.01,0.02,0.01,0.02
			c0,0.03,0,0.07-0.01,0.1c0,0.04,0,0.07,0,0.11c0,0.19,0.03,0.34,0.08,0.45c0.05,0.11,0.12,0.19,0.2,0.23
			c0.08,0.04,0.16,0.06,0.25,0.05c0.08-0.01,0.17-0.04,0.27-0.09c0.1-0.05,0.19-0.15,0.27-0.3c0.02,0.01,0.05,0.01,0.07,0.02
			c-0.03,0.11-0.08,0.21-0.16,0.32c-0.07,0.11-0.16,0.2-0.27,0.27c-0.11,0.08-0.24,0.12-0.39,0.14c-0.19,0.02-0.35,0-0.49-0.06
			c-0.14-0.06-0.25-0.17-0.33-0.32c-0.08-0.15-0.12-0.35-0.12-0.6c0-0.25,0.04-0.47,0.13-0.65c0.08-0.18,0.2-0.32,0.35-0.42
			C27.94,3.7,28.11,3.64,28.3,3.61z"/>
		<path class="st0" d="M31.06,3.31c0.11-0.01,0.21-0.01,0.3,0.01c0.08,0.02,0.15,0.04,0.19,0.06c0.09,0.05,0.15,0.01,0.17-0.14
			c0.03,0,0.06-0.01,0.08-0.01c0,0.08-0.01,0.17-0.01,0.28c0,0.11,0,0.26,0,0.44c-0.03,0-0.06,0.01-0.09,0.01
			c-0.01-0.1-0.04-0.2-0.08-0.29c-0.04-0.09-0.09-0.17-0.17-0.22c-0.07-0.05-0.17-0.08-0.28-0.07c-0.08,0.01-0.15,0.04-0.2,0.09
			c-0.05,0.05-0.08,0.12-0.08,0.2c0,0.08,0.03,0.15,0.07,0.21c0.05,0.06,0.11,0.11,0.19,0.16c0.08,0.05,0.16,0.1,0.24,0.15
			c0.14,0.09,0.25,0.18,0.34,0.27c0.09,0.09,0.14,0.22,0.14,0.38c0,0.12-0.03,0.23-0.11,0.33c-0.07,0.1-0.16,0.18-0.28,0.24
			c-0.11,0.06-0.24,0.1-0.39,0.11c-0.08,0.01-0.15,0.01-0.22,0c-0.06-0.01-0.12-0.02-0.16-0.04c-0.04-0.01-0.07-0.02-0.1-0.04
			c-0.03-0.01-0.06-0.02-0.09-0.03c-0.03-0.01-0.05,0.01-0.07,0.04c-0.02,0.03-0.04,0.07-0.05,0.12c-0.03,0-0.06,0.01-0.08,0.01
			c0-0.09,0.01-0.19,0.01-0.32c0-0.13,0-0.29,0-0.5c0.03,0,0.06-0.01,0.08-0.01c0.02,0.15,0.05,0.27,0.09,0.38
			c0.04,0.11,0.1,0.19,0.18,0.25c0.08,0.06,0.17,0.08,0.28,0.07c0.07-0.01,0.14-0.04,0.19-0.09c0.06-0.05,0.09-0.13,0.09-0.23
			c0-0.12-0.04-0.21-0.12-0.29c-0.08-0.07-0.17-0.15-0.3-0.23c-0.09-0.06-0.17-0.12-0.25-0.18c-0.08-0.06-0.14-0.13-0.19-0.21
			c-0.05-0.08-0.07-0.17-0.07-0.28c0-0.12,0.03-0.23,0.1-0.32c0.06-0.09,0.15-0.16,0.26-0.22C30.82,3.35,30.94,3.32,31.06,3.31z"/>
		<path class="st0" d="M33.19,3.1c0.2-0.02,0.37,0,0.52,0.06c0.15,0.06,0.27,0.17,0.35,0.32c0.08,0.16,0.13,0.37,0.13,0.64
			c0,0.27-0.04,0.49-0.13,0.66c-0.08,0.17-0.2,0.3-0.35,0.38c-0.15,0.09-0.33,0.14-0.52,0.16c-0.19,0.02-0.36,0-0.52-0.06
			C32.52,5.2,32.4,5.1,32.32,4.94c-0.08-0.15-0.13-0.36-0.13-0.63c0-0.27,0.04-0.49,0.13-0.66c0.08-0.17,0.2-0.3,0.36-0.39
			C32.83,3.17,33,3.12,33.19,3.1z M33.19,3.18c-0.11,0.01-0.2,0.1-0.27,0.27c-0.07,0.17-0.11,0.44-0.11,0.8
			c0,0.36,0.04,0.62,0.11,0.78c0.07,0.15,0.16,0.23,0.27,0.22c0.11-0.01,0.2-0.1,0.28-0.27c0.07-0.17,0.11-0.43,0.11-0.8
			c0-0.36-0.04-0.62-0.11-0.78C33.4,3.25,33.3,3.17,33.19,3.18z"/>
		<path class="st0" d="M35.38,2.97c0,0.03,0,0.06,0,0.09c-0.06,0-0.11,0.01-0.16,0.02c-0.05,0.01-0.08,0.03-0.09,0.07
			c-0.02,0.03-0.01,0.09,0.01,0.16c0.13,0.39,0.26,0.79,0.39,1.18c-0.02,0.02-0.04,0.04-0.05,0.06c0.16-0.54,0.32-1.08,0.48-1.62
			c0.03,0.01,0.06,0.02,0.08,0.03c-0.21,0.71-0.42,1.42-0.62,2.13c-0.04,0-0.09,0-0.13,0.01c-0.04,0-0.09,0.01-0.14,0.01
			c-0.21-0.58-0.43-1.17-0.64-1.75c-0.04-0.11-0.08-0.17-0.13-0.19c-0.04-0.02-0.08-0.03-0.11-0.02c0-0.03,0-0.06,0-0.09
			c0.08,0,0.18,0,0.27,0c0.09,0,0.2-0.01,0.31-0.02c0.08-0.01,0.17-0.02,0.27-0.03C35.21,3,35.3,2.99,35.38,2.97z M37.51,2.82
			c0,0.03,0,0.05,0,0.08c-0.05,0.02-0.1,0.05-0.15,0.1c-0.05,0.05-0.09,0.14-0.13,0.27c-0.18,0.57-0.36,1.15-0.54,1.72
			c-0.04,0-0.09,0-0.13,0.01c-0.05,0-0.09,0.01-0.13,0.01c-0.19-0.51-0.38-1.02-0.58-1.53c0.04-0.19,0.07-0.37,0.11-0.56
			c0.05,0,0.1,0,0.15-0.01c0.05,0,0.1-0.01,0.15-0.01c0.19,0.54,0.37,1.07,0.56,1.61c-0.02-0.01-0.03-0.03-0.05-0.04
			c0.09-0.29,0.18-0.59,0.28-0.88c0.07-0.23,0.08-0.39,0.02-0.49c-0.06-0.1-0.15-0.15-0.29-0.15c0-0.03,0-0.05,0-0.08
			c0.04,0,0.09,0,0.14,0c0.05,0,0.1,0,0.15-0.01c0.05,0,0.09,0,0.13-0.01c0.06,0,0.11-0.01,0.17-0.02
			C37.43,2.83,37.48,2.82,37.51,2.82z"/>
		<path class="st0" d="M39.13,2.66c0.11-0.01,0.21,0,0.28,0.03c0.07,0.02,0.13,0.06,0.17,0.11c0.04,0.05,0.08,0.11,0.1,0.19
			c0.02,0.08,0.03,0.19,0.03,0.33c0,0.37,0,0.73,0,1.1c0,0.11,0.02,0.19,0.06,0.23c0.04,0.04,0.11,0.05,0.2,0.05
			c0,0.03,0,0.06,0,0.09c-0.05,0-0.13,0-0.23,0c-0.1,0-0.21,0.01-0.31,0.01c-0.1,0.01-0.21,0.01-0.31,0.02
			c-0.1,0.01-0.17,0.02-0.23,0.02c0-0.03,0-0.06,0-0.09c0.08,0,0.14-0.03,0.17-0.07c0.03-0.04,0.05-0.12,0.05-0.24
			c0-0.42,0-0.85,0-1.27c0-0.07-0.01-0.13-0.02-0.18c-0.01-0.05-0.04-0.09-0.07-0.11c-0.03-0.03-0.09-0.04-0.16-0.03
			c-0.11,0.01-0.21,0.06-0.29,0.15c-0.08,0.09-0.12,0.21-0.12,0.35c0,0.38,0,0.76,0,1.13c0,0.11,0.02,0.19,0.05,0.23
			c0.03,0.04,0.09,0.06,0.17,0.05c0,0.03,0,0.06,0,0.09c-0.05,0-0.12,0-0.21,0c-0.09,0-0.19,0.01-0.29,0.01
			c-0.1,0.01-0.21,0.02-0.32,0.03c-0.11,0.01-0.19,0.02-0.24,0.03c0-0.03,0-0.06,0-0.09c0.09-0.01,0.16-0.03,0.2-0.07
			c0.04-0.04,0.06-0.12,0.06-0.24c0-0.43,0-0.86,0-1.28c0-0.12-0.02-0.21-0.06-0.27c-0.04-0.06-0.11-0.08-0.21-0.07
			c0-0.03,0-0.06,0-0.09c0.09,0,0.17,0,0.25,0c0.11-0.01,0.22-0.02,0.32-0.04c0.1-0.02,0.19-0.04,0.28-0.06c0,0.12,0,0.24,0,0.37
			c0.07-0.14,0.16-0.25,0.28-0.31C38.86,2.7,38.99,2.67,39.13,2.66z"/>
		<path class="st0" d="M41.86,1.91c0,0.22,0,0.45,0,0.67c0.16-0.01,0.32-0.01,0.48-0.02c0,0.03,0,0.05,0,0.08
			c-0.16,0.01-0.32,0.01-0.48,0.02c0,0.55,0,1.1,0,1.65c0,0.08,0.01,0.14,0.05,0.17c0.03,0.03,0.07,0.05,0.13,0.05
			c0.05,0,0.1-0.02,0.15-0.06c0.05-0.04,0.09-0.1,0.13-0.2c0.02,0.01,0.05,0.02,0.07,0.03c-0.04,0.12-0.11,0.23-0.2,0.31
			c-0.09,0.08-0.21,0.13-0.36,0.13c-0.09,0-0.17,0-0.24-0.02c-0.07-0.02-0.13-0.05-0.17-0.1c-0.06-0.06-0.1-0.13-0.12-0.22
			c-0.02-0.09-0.03-0.2-0.03-0.34c0-0.46,0-0.92,0-1.38c-0.11,0.01-0.23,0.01-0.34,0.02c0-0.03,0-0.05,0-0.08
			c0.11-0.01,0.23-0.01,0.34-0.02c0-0.18,0-0.36,0-0.54c0.11-0.01,0.22-0.02,0.32-0.05C41.68,2,41.77,1.96,41.86,1.91z"/>
		<path class="st0" d="M43.29,1.44c0,0.47,0,0.94,0,1.4c0.07-0.14,0.16-0.25,0.28-0.31c0.12-0.06,0.25-0.09,0.39-0.1
			c0.12,0,0.21,0.01,0.28,0.03c0.07,0.03,0.13,0.06,0.17,0.11c0.05,0.05,0.08,0.12,0.1,0.2c0.02,0.08,0.03,0.19,0.03,0.33
			c0,0.37,0,0.73,0,1.1c0,0.11,0.02,0.19,0.06,0.23c0.04,0.04,0.11,0.06,0.2,0.06c0,0.03,0,0.06,0,0.09c-0.05,0-0.13,0-0.24,0
			c-0.1,0-0.21,0-0.3,0c-0.11,0-0.21,0.01-0.31,0.02c-0.1,0.01-0.17,0.01-0.22,0.02c0-0.03,0-0.06,0-0.09
			c0.08,0,0.14-0.03,0.17-0.07c0.03-0.04,0.05-0.12,0.05-0.23c0-0.42,0-0.85,0-1.27c0-0.07-0.01-0.13-0.02-0.18
			c-0.01-0.05-0.04-0.09-0.08-0.12c-0.04-0.03-0.09-0.04-0.16-0.04c-0.11,0-0.21,0.05-0.29,0.14c-0.08,0.09-0.12,0.2-0.12,0.34
			c0,0.38,0,0.76,0,1.14c0,0.11,0.02,0.19,0.05,0.23c0.03,0.04,0.09,0.06,0.17,0.05c0,0.03,0,0.06,0,0.09c-0.05,0-0.12,0-0.22,0
			c-0.1,0-0.19,0-0.29,0c-0.11,0-0.21,0.01-0.32,0.02c-0.11,0.01-0.19,0.02-0.24,0.02c0-0.03,0-0.06,0-0.09
			c0.09,0,0.16-0.03,0.2-0.07c0.04-0.04,0.06-0.12,0.06-0.23c0-0.77,0-1.55,0-2.32c0-0.12-0.02-0.21-0.06-0.27
			c-0.04-0.06-0.11-0.08-0.21-0.08c0-0.03,0-0.06,0-0.09c0.09,0,0.17,0.01,0.25,0c0.11,0,0.22-0.01,0.32-0.03
			C43.12,1.48,43.21,1.47,43.29,1.44z"/>
		<path class="st0" d="M46.01,2.39c0.24,0,0.43,0.06,0.56,0.2c0.14,0.14,0.2,0.37,0.2,0.69c-0.45,0.01-0.9,0.02-1.35,0.03
			c0-0.03-0.01-0.05-0.01-0.08c0.28-0.01,0.56-0.01,0.84-0.02c0-0.13,0-0.26-0.03-0.37c-0.02-0.11-0.05-0.2-0.09-0.27
			c-0.04-0.07-0.09-0.1-0.16-0.1c-0.09,0-0.18,0.06-0.24,0.18c-0.07,0.12-0.11,0.32-0.12,0.6c0,0.01,0.01,0.02,0.01,0.02
			c0,0.03,0,0.07-0.01,0.1c0,0.04,0,0.07,0,0.11c0,0.19,0.03,0.34,0.08,0.45c0.05,0.12,0.12,0.2,0.2,0.25
			c0.08,0.05,0.17,0.08,0.25,0.07c0.08,0,0.17-0.02,0.27-0.07c0.1-0.04,0.19-0.13,0.27-0.27c0.02,0.01,0.05,0.02,0.07,0.02
			c-0.03,0.1-0.09,0.21-0.16,0.3c-0.07,0.1-0.16,0.18-0.27,0.25c-0.11,0.07-0.24,0.1-0.39,0.1c-0.19,0-0.35-0.03-0.49-0.11
			c-0.14-0.08-0.25-0.19-0.33-0.35C45.04,4,45.01,3.8,45.01,3.55c0-0.25,0.04-0.47,0.13-0.64c0.09-0.17,0.2-0.3,0.36-0.39
			C45.64,2.44,45.82,2.4,46.01,2.39z"/>
		<path class="st0" d="M48.78,2.36c0.12,0,0.21,0.01,0.3,0.04c0.09,0.03,0.15,0.06,0.19,0.08c0.09,0.06,0.15,0.02,0.17-0.12
			c0.03,0,0.06,0,0.09,0c0,0.08-0.01,0.17-0.01,0.28c0,0.11,0,0.26,0,0.44c-0.03,0-0.06,0-0.09,0c-0.01-0.1-0.04-0.2-0.08-0.3
			c-0.04-0.1-0.09-0.18-0.17-0.24c-0.07-0.06-0.17-0.09-0.28-0.09c-0.08,0-0.15,0.02-0.2,0.07c-0.05,0.04-0.08,0.11-0.08,0.19
			c0,0.08,0.03,0.15,0.07,0.21c0.05,0.06,0.11,0.12,0.19,0.17c0.08,0.06,0.16,0.11,0.24,0.18c0.14,0.1,0.25,0.2,0.35,0.3
			c0.09,0.1,0.14,0.23,0.14,0.4c0,0.12-0.03,0.23-0.11,0.32c-0.07,0.09-0.16,0.16-0.28,0.21c-0.12,0.05-0.24,0.07-0.39,0.07
			c-0.08,0-0.15-0.01-0.22-0.02c-0.06-0.02-0.12-0.04-0.17-0.06c-0.04-0.02-0.07-0.03-0.1-0.05c-0.03-0.01-0.06-0.03-0.09-0.04
			c-0.03-0.01-0.05,0-0.07,0.03c-0.02,0.03-0.04,0.07-0.05,0.11c-0.03,0-0.06,0-0.09,0c0-0.09,0.01-0.19,0.01-0.32
			c0-0.12,0-0.29,0-0.5c0.03,0,0.06,0,0.09,0c0.02,0.15,0.05,0.28,0.09,0.39c0.04,0.11,0.1,0.2,0.18,0.26
			c0.08,0.06,0.17,0.1,0.29,0.09c0.07,0,0.14-0.02,0.2-0.07C48.97,4.38,49,4.3,49,4.2c0-0.12-0.04-0.22-0.12-0.3
			c-0.08-0.08-0.17-0.16-0.3-0.26c-0.09-0.07-0.17-0.14-0.25-0.21c-0.08-0.07-0.14-0.14-0.19-0.23c-0.05-0.08-0.07-0.18-0.07-0.28
			c0-0.12,0.03-0.23,0.1-0.31c0.06-0.09,0.15-0.15,0.26-0.19C48.54,2.38,48.66,2.36,48.78,2.36z"/>
		<path class="st0" d="M50.92,2.36c0.24,0,0.43,0.07,0.56,0.22c0.14,0.14,0.2,0.37,0.2,0.7c-0.45-0.01-0.9-0.01-1.35-0.01
			c0-0.03-0.01-0.05-0.01-0.08c0.28,0,0.56,0,0.84,0.01c0-0.13,0-0.26-0.03-0.37c-0.02-0.11-0.05-0.2-0.09-0.27
			c-0.04-0.07-0.09-0.1-0.16-0.1c-0.09,0-0.18,0.06-0.24,0.18c-0.07,0.12-0.11,0.32-0.12,0.6c0,0.01,0.01,0.02,0.01,0.02
			c0,0.03,0,0.07-0.01,0.1c0,0.04,0,0.07,0,0.11c0,0.19,0.03,0.34,0.08,0.46c0.05,0.12,0.12,0.2,0.2,0.26
			c0.08,0.05,0.17,0.08,0.25,0.08c0.08,0,0.17-0.02,0.27-0.06c0.1-0.04,0.19-0.13,0.27-0.26c0.02,0.01,0.05,0.02,0.07,0.03
			c-0.03,0.1-0.09,0.2-0.16,0.3c-0.07,0.1-0.16,0.18-0.27,0.24c-0.11,0.06-0.24,0.09-0.39,0.09c-0.19,0-0.35-0.04-0.49-0.12
			c-0.14-0.08-0.25-0.2-0.33-0.36c-0.08-0.16-0.12-0.36-0.12-0.61c0-0.25,0.04-0.46,0.13-0.63c0.09-0.17,0.2-0.29,0.36-0.38
			C50.55,2.4,50.73,2.36,50.92,2.36z"/>
		<path class="st0" d="M52.98,2.39c0.24,0,0.43,0.08,0.56,0.22c0.14,0.15,0.2,0.38,0.2,0.7c-0.45-0.01-0.9-0.02-1.35-0.03
			c0-0.03-0.01-0.05-0.01-0.08c0.28,0,0.56,0.01,0.84,0.02c0-0.13,0-0.26-0.03-0.37c-0.02-0.11-0.05-0.2-0.09-0.27
			c-0.04-0.07-0.09-0.1-0.16-0.11c-0.09,0-0.18,0.06-0.24,0.17c-0.07,0.12-0.11,0.32-0.12,0.59c0,0.01,0.01,0.02,0.01,0.02
			c0,0.03,0,0.07-0.01,0.1c0,0.04,0,0.07,0,0.11c0,0.19,0.03,0.34,0.08,0.46c0.05,0.12,0.12,0.2,0.2,0.26
			c0.08,0.05,0.17,0.08,0.25,0.08c0.08,0,0.17-0.02,0.27-0.06c0.1-0.04,0.19-0.13,0.27-0.26c0.02,0.01,0.05,0.02,0.07,0.03
			c-0.03,0.1-0.09,0.2-0.16,0.3c-0.07,0.1-0.16,0.17-0.27,0.23c-0.11,0.06-0.24,0.09-0.39,0.09c-0.19,0-0.35-0.05-0.49-0.13
			c-0.14-0.08-0.25-0.2-0.33-0.36c-0.08-0.16-0.12-0.37-0.12-0.61c0-0.25,0.04-0.46,0.13-0.63c0.09-0.17,0.2-0.29,0.36-0.37
			C52.62,2.43,52.79,2.39,52.98,2.39z"/>
		<path class="st0" d="M54.96,2.44c0.12,0,0.23,0.03,0.32,0.07c0.09,0.04,0.16,0.11,0.22,0.2c-0.02,0.01-0.03,0.03-0.05,0.04
			c-0.03-0.07-0.08-0.11-0.14-0.15c-0.06-0.03-0.12-0.05-0.19-0.05c-0.14,0-0.25,0.07-0.33,0.23c-0.08,0.16-0.12,0.41-0.12,0.75
			c0,0.23,0.02,0.42,0.05,0.55c0.03,0.14,0.08,0.24,0.14,0.3c0.06,0.06,0.12,0.09,0.2,0.1c0.09,0,0.17-0.03,0.25-0.1
			c0.07-0.07,0.11-0.17,0.12-0.29c0.01,0.05,0.01,0.1,0.02,0.14c-0.04,0.14-0.11,0.25-0.2,0.32c-0.09,0.07-0.21,0.11-0.36,0.1
			c-0.16,0-0.31-0.05-0.43-0.13c-0.13-0.08-0.23-0.21-0.3-0.37c-0.07-0.17-0.11-0.38-0.11-0.64c0-0.25,0.04-0.45,0.12-0.61
			c0.08-0.16,0.19-0.28,0.33-0.36C54.63,2.47,54.79,2.43,54.96,2.44z M56,1.44c0,0.92,0,1.83,0,2.75c0,0.12,0.02,0.21,0.06,0.27
			c0.04,0.06,0.11,0.09,0.2,0.1c0,0.03,0,0.06,0,0.08c-0.09-0.01-0.17-0.02-0.25-0.02c-0.11,0-0.22,0-0.32,0
			c-0.1,0.01-0.19,0.02-0.28,0.04c0-0.92,0-1.83,0-2.75c0-0.12-0.02-0.21-0.06-0.27c-0.04-0.06-0.11-0.09-0.21-0.09
			c0-0.03,0-0.06,0-0.09c0.09,0.01,0.17,0.02,0.25,0.02c0.11,0,0.22,0,0.32,0C55.83,1.47,55.92,1.46,56,1.44z"/>
		<path class="st0" d="M57.25,2.52c0.11,0,0.21,0.02,0.3,0.06c0.09,0.03,0.15,0.06,0.19,0.09c0.09,0.07,0.15,0.03,0.17-0.11
			c0.03,0,0.06,0,0.09,0c0,0.08-0.01,0.17-0.01,0.28c0,0.11,0,0.26,0,0.44c-0.03,0-0.06,0-0.09,0c-0.01-0.1-0.04-0.2-0.08-0.3
			c-0.04-0.1-0.09-0.18-0.17-0.25c-0.07-0.07-0.17-0.1-0.28-0.11c-0.08,0-0.15,0.02-0.2,0.06c-0.05,0.04-0.08,0.11-0.08,0.19
			c0,0.08,0.03,0.15,0.07,0.22c0.05,0.06,0.11,0.12,0.19,0.18c0.08,0.06,0.16,0.12,0.24,0.19c0.14,0.11,0.25,0.21,0.34,0.32
			c0.09,0.11,0.14,0.24,0.14,0.4c0,0.12-0.03,0.23-0.11,0.31c-0.07,0.09-0.16,0.15-0.28,0.2c-0.11,0.04-0.24,0.06-0.39,0.06
			c-0.08,0-0.15-0.01-0.22-0.03c-0.06-0.02-0.12-0.04-0.17-0.07c-0.04-0.02-0.07-0.03-0.1-0.05c-0.03-0.02-0.06-0.03-0.09-0.04
			c-0.03-0.01-0.05,0-0.07,0.03c-0.02,0.03-0.04,0.06-0.05,0.11c-0.03,0-0.06,0-0.09,0c0-0.09,0.01-0.19,0.01-0.32
			c0-0.12,0-0.29,0-0.5c0.03,0,0.06,0,0.09,0c0.02,0.15,0.05,0.28,0.09,0.39c0.04,0.11,0.1,0.21,0.18,0.27
			c0.08,0.07,0.17,0.1,0.29,0.11c0.07,0,0.14-0.02,0.2-0.06c0.06-0.04,0.09-0.12,0.09-0.22c0-0.12-0.04-0.22-0.12-0.3
			c-0.08-0.08-0.17-0.17-0.3-0.27c-0.09-0.07-0.17-0.15-0.25-0.22c-0.08-0.07-0.14-0.15-0.19-0.24c-0.05-0.09-0.07-0.18-0.07-0.29
			c0-0.12,0.03-0.22,0.1-0.31c0.06-0.08,0.15-0.14,0.26-0.18C57.01,2.53,57.12,2.52,57.25,2.52z"/>
		<path class="st0" d="M60.36,1.66c0.09,0.01,0.18,0.02,0.25,0.05c0.07,0.03,0.13,0.07,0.19,0.11c0.04,0.03,0.07,0.08,0.1,0.13
			c0.03,0.05,0.04,0.12,0.04,0.18c0,0.07-0.03,0.14-0.08,0.19C60.8,2.38,60.73,2.4,60.65,2.4c-0.09-0.01-0.16-0.04-0.22-0.09
			c-0.06-0.06-0.09-0.13-0.09-0.22c0-0.07,0.02-0.13,0.06-0.18c0.04-0.05,0.1-0.09,0.18-0.1c-0.01-0.02-0.03-0.03-0.05-0.04
			c-0.02-0.01-0.06-0.02-0.1-0.02c-0.06,0-0.1,0-0.14,0.02c-0.03,0.02-0.06,0.04-0.09,0.07c-0.03,0.04-0.05,0.1-0.06,0.17
			c-0.01,0.08-0.02,0.2-0.02,0.36c0,0.12,0,0.25,0,0.37c0.15,0.01,0.29,0.02,0.44,0.03c0,0.03,0,0.05,0,0.08
			c-0.15-0.01-0.29-0.02-0.44-0.03c0,0.53,0,1.07,0,1.6c0,0.13,0.03,0.22,0.1,0.27c0.07,0.05,0.16,0.08,0.28,0.08
			c0,0.03,0,0.06,0,0.09c-0.07-0.01-0.17-0.02-0.3-0.03c-0.13-0.01-0.26-0.02-0.4-0.03c-0.1-0.01-0.2-0.01-0.31-0.01
			c-0.1,0-0.17,0-0.23,0c0-0.03,0-0.06,0-0.09c0.09,0.01,0.16-0.01,0.2-0.05c0.04-0.04,0.06-0.11,0.06-0.23c0-0.55,0-1.1,0-1.64
			c-0.09-0.01-0.19-0.01-0.28-0.02c0-0.03,0-0.05,0-0.08c0.09,0,0.19,0.01,0.28,0.02c0-0.24,0.02-0.43,0.06-0.55
			c0.04-0.12,0.1-0.23,0.2-0.32c0.06-0.05,0.14-0.1,0.24-0.13C60.14,1.66,60.25,1.65,60.36,1.66z"/>
		<path class="st0" d="M61.7,2.77c0.2,0.01,0.37,0.06,0.52,0.15c0.15,0.08,0.27,0.21,0.35,0.38c0.08,0.17,0.13,0.39,0.13,0.66
			c0,0.27-0.04,0.48-0.13,0.64c-0.08,0.16-0.2,0.27-0.35,0.33C62.07,4.98,61.9,5,61.7,4.99c-0.19-0.01-0.37-0.06-0.52-0.14
			c-0.15-0.08-0.27-0.21-0.36-0.38C60.74,4.3,60.7,4.08,60.7,3.82c0-0.27,0.04-0.48,0.13-0.64c0.09-0.16,0.2-0.27,0.36-0.33
			C61.34,2.78,61.51,2.75,61.7,2.77z M61.7,2.85c-0.11-0.01-0.2,0.07-0.27,0.22c-0.07,0.16-0.11,0.42-0.11,0.78
			c0,0.36,0.04,0.63,0.11,0.79c0.07,0.17,0.16,0.25,0.27,0.26c0.11,0.01,0.2-0.07,0.28-0.22c0.07-0.16,0.11-0.42,0.11-0.78
			c0-0.36-0.04-0.63-0.11-0.8C61.9,2.94,61.81,2.85,61.7,2.85z"/>
		<path class="st0" d="M64.36,2.96c0.09,0.01,0.16,0.03,0.21,0.07c0.06,0.04,0.1,0.09,0.12,0.15c0.03,0.06,0.04,0.12,0.04,0.18
			c0,0.1-0.03,0.18-0.09,0.24c-0.06,0.06-0.14,0.08-0.23,0.08c-0.1-0.01-0.17-0.04-0.22-0.09c-0.05-0.05-0.08-0.12-0.08-0.2
			c0-0.08,0.02-0.14,0.05-0.19c0.03-0.05,0.08-0.09,0.13-0.12c-0.04-0.01-0.08-0.02-0.11,0c-0.07,0-0.14,0.03-0.19,0.08
			c-0.06,0.05-0.1,0.11-0.13,0.19c-0.03,0.07-0.05,0.15-0.05,0.22c0,0.36,0,0.72,0,1.08c0,0.13,0.03,0.22,0.1,0.27
			c0.06,0.05,0.16,0.08,0.29,0.09c0,0.03,0,0.06,0,0.09c-0.06-0.01-0.15-0.02-0.27-0.03c-0.12-0.01-0.25-0.03-0.38-0.04
			c-0.11-0.01-0.22-0.01-0.33-0.02c-0.11,0-0.2-0.01-0.25-0.01c0-0.03,0-0.06,0-0.09c0.09,0.01,0.16-0.01,0.2-0.05
			c0.04-0.04,0.06-0.11,0.06-0.23c0-0.43,0-0.86,0-1.28c0-0.12-0.02-0.21-0.06-0.28C63.12,3.04,63.06,3,62.95,3
			c0-0.03,0-0.06,0-0.09c0.09,0.01,0.17,0.03,0.25,0.03c0.11,0.01,0.22,0.01,0.32,0.01c0.1,0,0.19-0.01,0.28-0.02
			c0,0.13,0,0.25,0,0.38c0.03-0.07,0.08-0.13,0.13-0.19c0.06-0.06,0.12-0.1,0.19-0.12C64.19,2.97,64.27,2.96,64.36,2.96z"/>
		<path class="st0" d="M66.27,5.33c-0.18-0.02-0.31-0.08-0.4-0.18c-0.08-0.1-0.12-0.22-0.12-0.36c0-0.12,0.03-0.21,0.08-0.28
			c0.05-0.07,0.12-0.12,0.21-0.16c0.08-0.04,0.17-0.07,0.27-0.09c0.09-0.02,0.18-0.04,0.27-0.07c0.09-0.02,0.16-0.05,0.21-0.09
			c0.05-0.04,0.08-0.09,0.08-0.15c0-0.11,0-0.21,0-0.32c0-0.07-0.01-0.14-0.03-0.19c-0.03-0.06-0.06-0.1-0.11-0.14
			c-0.05-0.03-0.11-0.06-0.19-0.06c-0.05,0-0.11,0-0.16,0.01c-0.06,0.01-0.1,0.03-0.14,0.06c0.08,0.03,0.14,0.08,0.18,0.14
			c0.04,0.06,0.06,0.12,0.06,0.2c0,0.09-0.03,0.16-0.09,0.21c-0.06,0.05-0.14,0.07-0.23,0.06c-0.1-0.01-0.17-0.05-0.22-0.11
			c-0.05-0.07-0.08-0.14-0.08-0.23c0-0.08,0.02-0.14,0.06-0.19c0.04-0.05,0.09-0.09,0.17-0.13c0.08-0.04,0.17-0.06,0.28-0.08
			c0.11-0.01,0.22-0.02,0.35,0c0.13,0.01,0.24,0.04,0.34,0.07c0.1,0.04,0.18,0.09,0.25,0.17c0.06,0.07,0.1,0.15,0.12,0.24
			c0.02,0.09,0.03,0.21,0.03,0.35c0,0.37,0,0.74,0,1.11c0,0.07,0.01,0.11,0.02,0.14c0.01,0.03,0.04,0.04,0.07,0.05
			c0.03,0,0.05,0,0.08-0.01c0.03-0.01,0.05-0.02,0.07-0.04c0.01,0.02,0.03,0.05,0.04,0.07c-0.06,0.04-0.12,0.07-0.2,0.09
			c-0.08,0.02-0.16,0.02-0.25,0.01C67.11,5.41,67,5.36,66.95,5.29c-0.05-0.07-0.08-0.15-0.08-0.24c-0.07,0.1-0.15,0.18-0.25,0.22
			C66.52,5.32,66.4,5.34,66.27,5.33z M66.58,5.09c0.05,0,0.1,0,0.14-0.02c0.04-0.02,0.09-0.06,0.13-0.12c0-0.28,0-0.56,0-0.84
			c-0.03,0.05-0.08,0.09-0.14,0.12c-0.06,0.03-0.12,0.06-0.18,0.1c-0.06,0.04-0.11,0.09-0.15,0.15c-0.04,0.06-0.06,0.15-0.06,0.25
			c0,0.12,0.03,0.2,0.07,0.26C66.45,5.06,66.51,5.09,66.58,5.09z"/>
		<path class="st0" d="M69.55,2.44c0,0.94,0,1.88,0,2.81c0,0.11,0.02,0.19,0.06,0.24c0.04,0.04,0.11,0.07,0.2,0.08
			c0,0.03,0,0.06,0,0.09c-0.05-0.01-0.13-0.02-0.23-0.04c-0.1-0.01-0.21-0.03-0.31-0.04s-0.21-0.02-0.32-0.03
			c-0.11-0.01-0.19-0.01-0.24-0.02c0-0.03,0-0.06,0-0.09c0.09,0.01,0.16,0,0.2-0.04c0.04-0.04,0.06-0.11,0.06-0.23
			c0-0.78,0-1.55,0-2.33c0-0.12-0.02-0.21-0.05-0.28c-0.04-0.06-0.11-0.1-0.2-0.11c0-0.03,0-0.06,0-0.09
			c0.09,0.02,0.17,0.03,0.25,0.04c0.11,0.01,0.22,0.02,0.32,0.02C69.38,2.45,69.47,2.45,69.55,2.44z"/>
		<path class="st0" d="M70.84,3.62c0,0.59,0,1.18,0,1.77c0,0.11,0.02,0.19,0.06,0.24c0.04,0.04,0.11,0.07,0.2,0.08
			c0,0.03,0,0.06,0,0.09c-0.05-0.01-0.13-0.02-0.23-0.04c-0.1-0.02-0.21-0.03-0.31-0.04c-0.11-0.01-0.21-0.02-0.32-0.03
			c-0.11-0.01-0.19-0.01-0.24-0.02c0-0.03,0-0.06,0-0.09c0.09,0.01,0.16,0,0.2-0.04c0.04-0.04,0.06-0.11,0.06-0.23
			c0-0.43,0-0.86,0-1.28c0-0.12-0.02-0.22-0.05-0.28c-0.04-0.06-0.11-0.1-0.21-0.11c0-0.03,0-0.06,0-0.09
			c0.09,0.02,0.17,0.03,0.25,0.04c0.11,0.01,0.22,0.02,0.32,0.02C70.66,3.64,70.75,3.63,70.84,3.62z M70.52,2.58
			c0.11,0.01,0.2,0.05,0.27,0.12c0.07,0.06,0.1,0.14,0.1,0.24c0,0.1-0.03,0.17-0.1,0.22c-0.07,0.05-0.16,0.07-0.27,0.05
			c-0.11-0.01-0.2-0.05-0.27-0.11c-0.07-0.06-0.1-0.14-0.1-0.24c0-0.1,0.03-0.17,0.1-0.22C70.31,2.58,70.4,2.57,70.52,2.58z"/>
		<path class="st0" d="M72.79,3.85c0.11,0.01,0.21,0.04,0.28,0.08c0.07,0.04,0.13,0.08,0.17,0.14c0.04,0.06,0.08,0.13,0.1,0.21
			c0.02,0.09,0.03,0.2,0.03,0.34c0,0.37,0,0.73,0,1.1c0,0.11,0.02,0.19,0.06,0.24c0.04,0.05,0.11,0.08,0.2,0.09
			c0,0.03,0,0.06,0,0.09c-0.05-0.01-0.13-0.02-0.23-0.04c-0.1-0.02-0.21-0.03-0.3-0.05c-0.1-0.01-0.21-0.02-0.3-0.03
			c-0.1-0.01-0.17-0.01-0.23-0.02c0-0.03,0-0.06,0-0.09c0.08,0.01,0.14,0,0.17-0.04c0.03-0.04,0.05-0.11,0.05-0.23
			c0-0.42,0-0.85,0-1.27c0-0.07-0.01-0.13-0.02-0.18c-0.01-0.05-0.04-0.09-0.07-0.13C72.65,4.03,72.59,4.01,72.52,4
			c-0.11-0.01-0.21,0.02-0.29,0.1c-0.08,0.08-0.12,0.19-0.12,0.32c0,0.38,0,0.76,0,1.13c0,0.11,0.02,0.19,0.05,0.24
			c0.03,0.04,0.09,0.07,0.17,0.08c0,0.03,0,0.06,0,0.09c-0.05-0.01-0.12-0.02-0.21-0.04c-0.09-0.02-0.19-0.03-0.29-0.04
			c-0.1-0.01-0.21-0.02-0.32-0.03c-0.11-0.01-0.19-0.02-0.24-0.02c0-0.03,0-0.06,0-0.09c0.09,0.01,0.16,0,0.2-0.04
			c0.04-0.04,0.06-0.11,0.06-0.23c0-0.43,0-0.86,0-1.28c0-0.12-0.02-0.22-0.05-0.28c-0.04-0.06-0.11-0.1-0.21-0.11
			c0-0.03,0-0.06,0-0.09c0.09,0.02,0.17,0.03,0.25,0.04c0.11,0.01,0.22,0.02,0.32,0.02c0.1,0,0.19,0,0.27-0.01c0,0.12,0,0.24,0,0.37
			c0.07-0.13,0.16-0.22,0.28-0.26C72.51,3.85,72.64,3.83,72.79,3.85z"/>
		<path class="st0" d="M74.82,4.13c0.24,0.03,0.42,0.13,0.56,0.29c0.14,0.16,0.2,0.4,0.2,0.72c-0.45-0.06-0.89-0.13-1.34-0.19
			c0-0.03-0.01-0.05-0.01-0.08c0.28,0.04,0.56,0.08,0.83,0.12c0-0.13,0-0.26-0.03-0.37C75.03,4.5,75,4.41,74.96,4.34
			c-0.04-0.07-0.09-0.12-0.16-0.12c-0.09-0.01-0.18,0.03-0.24,0.14c-0.07,0.11-0.11,0.3-0.12,0.58c0,0.01,0.01,0.02,0.01,0.03
			c0,0.03,0,0.07-0.01,0.1c0,0.04,0,0.07,0,0.11c0,0.19,0.03,0.34,0.08,0.47c0.05,0.12,0.12,0.22,0.2,0.28
			c0.08,0.06,0.16,0.1,0.25,0.11c0.08,0.01,0.17,0,0.26-0.02c0.1-0.03,0.19-0.1,0.27-0.23c0.02,0.01,0.05,0.02,0.07,0.04
			c-0.03,0.1-0.08,0.19-0.16,0.28c-0.07,0.09-0.16,0.15-0.27,0.2c-0.11,0.05-0.24,0.06-0.39,0.04c-0.19-0.03-0.35-0.09-0.49-0.19
			c-0.14-0.1-0.25-0.23-0.33-0.41c-0.08-0.17-0.12-0.38-0.12-0.63c0-0.25,0.04-0.46,0.13-0.62c0.08-0.16,0.2-0.27,0.35-0.33
			C74.46,4.12,74.63,4.1,74.82,4.13z"/>
		<path class="st0" d="M77.81,4.58c0.2,0.03,0.37,0.1,0.52,0.19c0.15,0.1,0.26,0.24,0.35,0.41c0.08,0.18,0.13,0.4,0.13,0.67
			c0,0.27-0.04,0.48-0.13,0.63c-0.08,0.15-0.2,0.25-0.35,0.3c-0.15,0.05-0.32,0.06-0.52,0.03c-0.19-0.03-0.36-0.09-0.51-0.19
			c-0.15-0.1-0.27-0.23-0.35-0.41c-0.08-0.17-0.13-0.4-0.13-0.67c0-0.27,0.04-0.48,0.13-0.63c0.08-0.15,0.2-0.25,0.35-0.3
			C77.45,4.55,77.62,4.54,77.81,4.58z M77.81,4.66c-0.11-0.02-0.2,0.05-0.27,0.2c-0.07,0.15-0.11,0.41-0.11,0.77
			c0,0.36,0.04,0.63,0.11,0.8c0.07,0.17,0.16,0.27,0.27,0.28c0.11,0.02,0.2-0.05,0.27-0.2c0.07-0.15,0.11-0.41,0.11-0.77
			c0-0.36-0.04-0.63-0.11-0.81C78.02,4.77,77.92,4.67,77.81,4.66z"/>
		<path class="st0" d="M80.13,3.93c0.09,0.02,0.18,0.04,0.25,0.08c0.07,0.04,0.13,0.08,0.19,0.13c0.04,0.04,0.07,0.08,0.1,0.14
			c0.03,0.06,0.04,0.12,0.04,0.19c0,0.07-0.03,0.13-0.08,0.18C80.57,4.7,80.5,4.72,80.41,4.7c-0.09-0.02-0.16-0.05-0.22-0.12
			c-0.06-0.06-0.09-0.14-0.09-0.23c0-0.07,0.02-0.13,0.06-0.18c0.04-0.05,0.1-0.07,0.18-0.08c-0.01-0.02-0.03-0.03-0.05-0.05
			c-0.02-0.01-0.05-0.03-0.1-0.03c-0.05-0.01-0.1-0.01-0.13,0.01C80.03,4.04,80,4.06,79.98,4.09c-0.03,0.04-0.05,0.09-0.06,0.17
			C79.9,4.33,79.9,4.45,79.9,4.61c0,0.12,0,0.25,0,0.37c0.14,0.02,0.29,0.05,0.43,0.07c0,0.03,0,0.05,0,0.08
			c-0.14-0.02-0.29-0.05-0.43-0.07c0,0.53,0,1.07,0,1.6c0,0.13,0.03,0.23,0.1,0.29c0.07,0.06,0.16,0.09,0.28,0.11
			c0,0.03,0,0.06,0,0.09c-0.07-0.01-0.17-0.03-0.3-0.06c-0.13-0.03-0.26-0.05-0.4-0.07c-0.1-0.02-0.2-0.03-0.3-0.04
			c-0.1-0.01-0.17-0.02-0.22-0.03c0-0.03,0-0.06,0-0.09c0.09,0.02,0.16,0.01,0.2-0.03c0.04-0.03,0.06-0.11,0.06-0.22
			c0-0.55,0-1.1,0-1.64c-0.09-0.02-0.18-0.03-0.28-0.05c0-0.03,0-0.05,0-0.08c0.09,0.02,0.18,0.03,0.28,0.05
			c0-0.24,0.02-0.42,0.06-0.54c0.04-0.12,0.1-0.22,0.2-0.29c0.06-0.05,0.14-0.08,0.24-0.11C79.91,3.91,80.01,3.91,80.13,3.93z"/>
	</g>
</g>
<g>
	<g>
		<path class="st1" d="M19.33,24.9c0-0.09,0-0.19,0-0.28c0.32-0.07,0.56-0.14,0.72-0.23c0.16-0.08,0.27-0.21,0.33-0.39
			c0.05-0.18,0.08-0.44,0.08-0.77c0-2.33,0-4.66,0-6.98c0-0.35-0.03-0.6-0.08-0.75c-0.06-0.16-0.17-0.25-0.33-0.29
			c-0.16-0.04-0.41-0.03-0.72,0.01c0-0.09,0-0.19,0-0.28c0.2-0.02,0.46-0.05,0.77-0.09c0.32-0.04,0.66-0.09,1.03-0.14
			c0.33-0.05,0.66-0.1,0.98-0.16c0.33-0.06,0.59-0.1,0.81-0.14c0,0.09,0,0.19,0,0.28c-0.32,0.05-0.56,0.12-0.73,0.21
			c-0.16,0.08-0.27,0.21-0.33,0.39c-0.06,0.17-0.08,0.43-0.08,0.78c0,2.33,0,4.66,0,6.98c0,0.34,0.03,0.59,0.08,0.75
			c0.06,0.16,0.17,0.26,0.33,0.29c0.17,0.03,0.41,0.04,0.73,0.01c0,0.09,0,0.19,0,0.28c-0.22,0.01-0.49,0.04-0.81,0.08
			c-0.32,0.04-0.65,0.09-0.98,0.14c-0.36,0.05-0.71,0.11-1.03,0.16C19.79,24.8,19.53,24.85,19.33,24.9z M21.29,19.73
			c0-0.09,0-0.19,0-0.28c1.85-0.27,3.71-0.52,5.57-0.74c0,0.09,0,0.19,0,0.28C25,19.2,23.14,19.45,21.29,19.73z M25.22,24.06
			c0-0.09,0-0.19,0-0.28c0.32-0.06,0.56-0.13,0.73-0.2c0.16-0.08,0.27-0.2,0.33-0.38c0.06-0.18,0.09-0.43,0.09-0.77
			c0-2.33,0-4.66,0-6.98c0-0.35-0.03-0.6-0.09-0.76c-0.06-0.16-0.17-0.26-0.33-0.3c-0.17-0.04-0.41-0.05-0.73-0.01
			c0-0.09,0-0.19,0-0.28c0.22-0.02,0.49-0.04,0.82-0.07c0.33-0.03,0.65-0.07,0.97-0.1c0.37-0.04,0.71-0.09,1.03-0.13
			c0.32-0.05,0.58-0.08,0.78-0.11c0,0.09,0,0.19,0,0.28c-0.32,0.04-0.56,0.11-0.73,0.19c-0.17,0.08-0.28,0.21-0.33,0.38
			c-0.06,0.17-0.09,0.43-0.09,0.78c0,2.33,0,4.66,0,6.98c0,0.34,0.03,0.59,0.09,0.75c0.06,0.16,0.17,0.26,0.33,0.3
			c0.16,0.04,0.41,0.05,0.73,0.03c0,0.09,0,0.19,0,0.28c-0.2,0-0.46,0.02-0.78,0.05c-0.32,0.03-0.66,0.07-1.03,0.11
			c-0.32,0.04-0.65,0.08-0.97,0.12C25.71,23.97,25.43,24.01,25.22,24.06z"/>
		<path class="st1" d="M36.93,12.96c-0.04,0.33-0.06,0.65-0.08,0.96c-0.01,0.31-0.02,0.55-0.02,0.71c0,0.17,0,0.33,0.01,0.49
			c0.01,0.15,0.02,0.28,0.03,0.39c-0.11,0.01-0.22,0.01-0.33,0.02c-0.06-0.55-0.14-0.98-0.24-1.3c-0.11-0.32-0.28-0.53-0.53-0.65
			c-0.25-0.12-0.62-0.16-1.13-0.12c-0.39,0.03-0.78,0.06-1.18,0.09c-0.32,0.03-0.56,0.07-0.73,0.14c-0.16,0.07-0.27,0.18-0.33,0.35
			c-0.06,0.17-0.09,0.43-0.09,0.78c0,2.33,0,4.66,0,6.98c0,0.34,0.03,0.59,0.09,0.75c0.06,0.16,0.17,0.26,0.33,0.3
			c0.17,0.04,0.41,0.04,0.73,0.02c0.34-0.03,0.69-0.06,1.03-0.08c0.59-0.05,1.05-0.16,1.35-0.34c0.31-0.18,0.53-0.46,0.67-0.83
			c0.14-0.37,0.24-0.87,0.3-1.49c0.11-0.01,0.22-0.01,0.33-0.02c-0.03,0.26-0.04,0.59-0.04,1.02c0,0.18,0.01,0.43,0.02,0.77
			c0.01,0.33,0.04,0.68,0.08,1.03c-0.48,0.01-1.03,0.04-1.63,0.08c-0.6,0.04-1.14,0.08-1.61,0.12c-0.28,0.02-0.66,0.05-1.13,0.09
			c-0.47,0.04-0.96,0.09-1.49,0.14c-0.53,0.05-1.02,0.12-1.48,0.18c0-0.09,0-0.19,0-0.28c0.32-0.05,0.56-0.11,0.73-0.19
			c0.17-0.07,0.28-0.2,0.33-0.37c0.06-0.17,0.09-0.43,0.09-0.77c0-2.33,0-4.66,0-6.98c0-0.35-0.03-0.6-0.09-0.76
			c-0.06-0.16-0.17-0.26-0.33-0.31c-0.16-0.04-0.41-0.06-0.73-0.03c0-0.09,0-0.19,0-0.28c0.46-0.04,0.96-0.08,1.48-0.12
			c0.53-0.04,1.03-0.08,1.49-0.12c0.47-0.04,0.84-0.07,1.13-0.09c0.43-0.04,0.93-0.08,1.48-0.12C36,13.05,36.49,13.01,36.93,12.96z
			 M34.49,17.95c0,0.09,0,0.19,0,0.28c-0.86,0.07-1.73,0.14-2.59,0.22c0-0.09,0-0.19,0-0.28C32.76,18.09,33.63,18.02,34.49,17.95z
			 M34.9,16.06c-0.04,0.54-0.05,0.95-0.05,1.23c0,0.28,0.01,0.54,0.01,0.77c0,0.23,0,0.49,0.01,0.77c0.01,0.28,0.03,0.69,0.07,1.22
			c-0.11,0.01-0.22,0.02-0.33,0.03c-0.04-0.3-0.08-0.59-0.13-0.87c-0.05-0.28-0.17-0.51-0.34-0.68c-0.18-0.17-0.47-0.24-0.88-0.2
			c0-0.09,0-0.19,0-0.28c0.41-0.04,0.71-0.17,0.87-0.4c0.17-0.23,0.27-0.49,0.32-0.79c0.05-0.29,0.09-0.56,0.13-0.78
			C34.69,16.08,34.79,16.07,34.9,16.06z"/>
		<path class="st1" d="M42.33,12.61c1.15,2.91,2.31,5.83,3.46,8.76c0.14,0.35,0.3,0.59,0.48,0.7c0.18,0.12,0.34,0.18,0.5,0.18
			c0,0.09,0,0.19,0,0.28c-0.19-0.02-0.42-0.02-0.7-0.02c-0.27,0-0.55,0-0.82,0.01c-0.37,0.01-0.71,0.02-1.03,0.03
			c-0.32,0.01-0.58,0.03-0.78,0.06c0-0.09,0-0.19,0-0.28c0.48-0.03,0.79-0.12,0.92-0.27c0.13-0.15,0.1-0.46-0.09-0.94
			c-0.88-2.31-1.76-4.61-2.64-6.91c0.08-0.06,0.15-0.13,0.23-0.19c-0.82,2.15-1.65,4.31-2.47,6.48c-0.2,0.52-0.29,0.92-0.28,1.2
			c0.01,0.29,0.12,0.48,0.33,0.59c0.21,0.11,0.51,0.16,0.91,0.15c0,0.09,0,0.19,0,0.28c-0.26-0.01-0.54,0-0.83,0.01
			c-0.29,0.01-0.56,0.02-0.8,0.04c-0.24,0.01-0.44,0.03-0.6,0.04c-0.17,0.01-0.32,0.04-0.46,0.06c0-0.09,0-0.19,0-0.28
			c0.19-0.06,0.38-0.18,0.58-0.37c0.2-0.19,0.38-0.49,0.54-0.92c1.11-2.91,2.22-5.8,3.33-8.69c0.04,0,0.08,0,0.11,0
			C42.26,12.61,42.3,12.61,42.33,12.61z M44.06,18.54c0,0.09,0,0.19,0,0.28c-1.41,0.04-2.82,0.1-4.23,0.17
			c0.05-0.1,0.1-0.19,0.14-0.29C41.34,18.63,42.7,18.58,44.06,18.54z"/>
		<path class="st1" d="M50.48,12.55c0,0.09,0,0.19,0,0.28c-0.32,0.01-0.57,0.04-0.73,0.1c-0.16,0.06-0.27,0.17-0.33,0.34
			c-0.06,0.16-0.09,0.42-0.09,0.77c0,2.33,0,4.66,0,6.98c0,0.34,0.03,0.59,0.09,0.76c0.06,0.17,0.17,0.28,0.33,0.33
			c0.17,0.05,0.41,0.08,0.73,0.08c0.35,0,0.69,0,1.04,0.01c0.6,0.01,1.05-0.07,1.36-0.24c0.31-0.16,0.53-0.43,0.67-0.82
			c0.14-0.38,0.24-0.9,0.3-1.54c0.11,0,0.22,0,0.33,0.01c-0.03,0.29-0.04,0.68-0.04,1.15c0,0.18,0.01,0.43,0.02,0.77
			c0.01,0.33,0.04,0.68,0.08,1.04c-0.48-0.03-1.03-0.05-1.63-0.07c-0.61-0.01-1.14-0.02-1.62-0.03c-0.28,0-0.66,0-1.13,0
			c-0.47,0-0.97,0-1.5,0.01c-0.53,0.01-1.03,0.02-1.49,0.05c0-0.09,0-0.19,0-0.28c0.32-0.02,0.57-0.06,0.73-0.12
			c0.17-0.06,0.28-0.17,0.34-0.34c0.06-0.17,0.09-0.42,0.09-0.76c0-2.33,0-4.66,0-6.98c0-0.35-0.03-0.6-0.09-0.77
			c-0.06-0.16-0.17-0.28-0.34-0.33c-0.16-0.06-0.41-0.09-0.73-0.1c0-0.09,0-0.19,0-0.28c0.2,0.01,0.46,0.01,0.78,0.02
			c0.32,0.01,0.67,0.01,1.04,0.01c0.33,0,0.66-0.01,0.99-0.02C49.99,12.57,50.26,12.56,50.48,12.55z"/>
		<path class="st1" d="M61.87,12.94c-0.04,0.36-0.06,0.7-0.08,1.03c-0.01,0.33-0.02,0.59-0.02,0.77c0,0.23,0,0.44,0.01,0.63
			c0.01,0.2,0.02,0.37,0.03,0.52c-0.11-0.01-0.22-0.01-0.33-0.02c-0.06-0.66-0.15-1.19-0.27-1.57c-0.12-0.39-0.31-0.67-0.6-0.86
			c-0.28-0.19-0.72-0.29-1.32-0.32c-0.26-0.01-0.51-0.03-0.77-0.04c0,2.67,0,5.34,0,8.01c0,0.37,0.04,0.66,0.11,0.85
			c0.07,0.19,0.21,0.32,0.42,0.4c0.21,0.08,0.51,0.13,0.91,0.17c0,0.09,0,0.19,0,0.28c-0.25-0.03-0.56-0.06-0.94-0.08
			c-0.38-0.02-0.76-0.04-1.15-0.06c-0.43-0.02-0.83-0.03-1.2-0.04c-0.37-0.01-0.67-0.01-0.9,0c0-0.09,0-0.19,0-0.28
			c0.4-0.01,0.7-0.04,0.91-0.09c0.21-0.06,0.35-0.18,0.42-0.36c0.07-0.19,0.11-0.47,0.11-0.84c0-2.67,0-5.34,0-8.01
			c-0.26-0.01-0.51-0.02-0.77-0.03c-0.59-0.02-1.02,0.05-1.31,0.21c-0.29,0.16-0.49,0.43-0.6,0.81c-0.11,0.38-0.2,0.89-0.27,1.55
			c-0.11,0-0.22-0.01-0.33-0.01c0.02-0.15,0.03-0.32,0.03-0.52c0-0.2,0.01-0.41,0.01-0.63c0-0.18-0.01-0.43-0.02-0.77
			c-0.01-0.33-0.04-0.68-0.08-1.04c0.4,0.02,0.83,0.04,1.3,0.06c0.47,0.02,0.94,0.04,1.41,0.06c0.47,0.02,0.9,0.03,1.29,0.05
			c0.39,0.02,0.82,0.04,1.28,0.06c0.47,0.02,0.94,0.04,1.41,0.06C61.06,12.91,61.48,12.92,61.87,12.94z"/>
		<path class="st1" d="M62.74,22.97c0-0.09,0-0.19,0-0.28c0.32,0,0.57-0.02,0.73-0.06c0.17-0.04,0.28-0.15,0.33-0.31
			c0.06-0.17,0.09-0.42,0.09-0.75c0-2.33,0-4.66,0-6.98c0-0.35-0.03-0.61-0.09-0.77c-0.06-0.17-0.17-0.29-0.33-0.36
			c-0.16-0.07-0.41-0.13-0.73-0.16c0-0.09,0-0.19,0-0.28c0.2,0.02,0.46,0.05,0.78,0.08c0.32,0.03,0.67,0.06,1.03,0.09
			c0.33,0.03,0.66,0.05,0.98,0.07c0.33,0.02,0.6,0.03,0.82,0.04c0,0.09,0,0.19,0,0.28c-0.32-0.02-0.56,0-0.73,0.04
			c-0.16,0.05-0.27,0.15-0.33,0.31c-0.06,0.16-0.09,0.41-0.09,0.76c0,2.33,0,4.66,0,6.98c0,0.34,0.03,0.59,0.09,0.77
			c0.06,0.17,0.17,0.3,0.33,0.36c0.17,0.07,0.41,0.13,0.73,0.17c0,0.09,0,0.19,0,0.28c-0.22-0.04-0.49-0.07-0.82-0.1
			c-0.32-0.03-0.65-0.06-0.98-0.09c-0.37-0.03-0.71-0.05-1.03-0.07C63.2,22.97,62.94,22.96,62.74,22.97z M64.71,18.24
			c0-0.09,0-0.19,0-0.28c1.86,0.15,3.73,0.32,5.59,0.52c0,0.09,0,0.19,0,0.28C68.43,18.56,66.57,18.38,64.71,18.24z M68.65,23.46
			c0-0.09,0-0.19,0-0.28c0.32,0.01,0.56,0,0.73-0.04c0.16-0.04,0.27-0.14,0.33-0.3c0.06-0.16,0.09-0.42,0.09-0.75
			c0-2.33,0-4.66,0-6.98c0-0.35-0.03-0.61-0.09-0.78c-0.06-0.17-0.17-0.29-0.33-0.37c-0.17-0.08-0.41-0.14-0.73-0.18
			c0-0.09,0-0.19,0-0.28c0.22,0.03,0.49,0.07,0.82,0.11c0.33,0.04,0.65,0.08,0.98,0.12c0.37,0.04,0.71,0.07,1.03,0.1
			c0.32,0.03,0.58,0.05,0.78,0.06c0,0.09,0,0.19,0,0.28c-0.32-0.03-0.56-0.02-0.73,0.02c-0.17,0.04-0.28,0.14-0.33,0.3
			c-0.06,0.16-0.09,0.41-0.09,0.76c0,2.33,0,4.66,0,6.98c0,0.34,0.03,0.59,0.09,0.77c0.06,0.17,0.17,0.3,0.33,0.37
			c0.16,0.08,0.41,0.14,0.73,0.2c0,0.09,0,0.19,0,0.28c-0.2-0.04-0.46-0.08-0.78-0.12c-0.32-0.04-0.66-0.08-1.03-0.12
			c-0.32-0.04-0.65-0.07-0.98-0.1C69.15,23.48,68.87,23.46,68.65,23.46z"/>
		<path class="st1" d="M81,15.12c0,0.09,0,0.19,0,0.28c-0.18,0.01-0.36,0.09-0.54,0.26c-0.18,0.16-0.38,0.43-0.59,0.81
			c-0.95,1.73-1.89,3.46-2.84,5.2c-0.08-0.01-0.16-0.02-0.24-0.03c-1.1-2.18-2.2-4.36-3.3-6.53c-0.19-0.37-0.35-0.61-0.47-0.71
			c-0.13-0.1-0.24-0.16-0.34-0.18c0-0.1,0-0.2,0-0.3c0.19,0.03,0.38,0.07,0.59,0.1c0.2,0.03,0.42,0.07,0.65,0.1
			c0.31,0.04,0.64,0.08,0.99,0.12c0.35,0.04,0.68,0.07,0.98,0.1c0,0.1,0,0.2,0,0.3c-0.23-0.03-0.44-0.03-0.62,0
			c-0.18,0.03-0.3,0.12-0.35,0.26c-0.06,0.14-0.01,0.36,0.13,0.65c0.79,1.63,1.59,3.26,2.38,4.89c-0.04,0.02-0.07,0.05-0.11,0.07
			c0.62-1.15,1.25-2.3,1.87-3.45c0.26-0.48,0.39-0.85,0.39-1.14c0-0.28-0.11-0.49-0.33-0.64c-0.22-0.14-0.52-0.25-0.92-0.32
			c0-0.09,0-0.19,0-0.28c0.27,0.05,0.55,0.1,0.83,0.16c0.28,0.05,0.54,0.1,0.79,0.14c0.24,0.04,0.44,0.07,0.6,0.08
			C80.71,15.09,80.85,15.11,81,15.12z M77.66,20.29c0,0.93,0,1.86,0,2.79c0,0.34,0.03,0.6,0.08,0.77c0.06,0.18,0.17,0.31,0.33,0.39
			c0.16,0.08,0.41,0.15,0.72,0.22c0,0.09,0,0.19,0,0.28c-0.22-0.05-0.49-0.1-0.81-0.16c-0.32-0.05-0.65-0.1-0.98-0.15
			c-0.37-0.05-0.71-0.1-1.03-0.14c-0.32-0.04-0.58-0.06-0.78-0.07c0-0.09,0-0.19,0-0.28c0.32,0.02,0.56,0.02,0.73-0.01
			c0.17-0.03,0.28-0.13,0.33-0.29c0.06-0.16,0.08-0.41,0.08-0.75c0-0.96,0-1.93,0-2.89c0.25,0.33,0.51,0.65,0.76,0.98
			C77.3,20.75,77.48,20.52,77.66,20.29z"/>
		<path class="st1" d="M6.04,32.58c0.6-0.14,1.09-0.16,1.46-0.06c0.37,0.1,0.72,0.24,1.05,0.41c0.12,0.07,0.21,0.09,0.28,0.08
			c0.17-0.04,0.29-0.35,0.35-0.93c0.11-0.02,0.22-0.05,0.32-0.07c-0.02,0.35-0.03,0.78-0.04,1.28c-0.01,0.5-0.01,1.16-0.01,1.97
			c-0.11,0.02-0.21,0.05-0.32,0.07c-0.07-0.38-0.15-0.74-0.24-1.09c-0.09-0.35-0.25-0.63-0.46-0.84c-0.27-0.29-0.62-0.48-1.06-0.57
			c-0.44-0.09-0.89-0.09-1.35,0.02c-0.46,0.11-0.89,0.32-1.26,0.64c-0.38,0.32-0.7,0.73-0.97,1.23c-0.27,0.5-0.47,1.07-0.62,1.71
			c-0.14,0.64-0.21,1.34-0.21,2.1c0,1.69,0.27,2.86,0.8,3.51c0.54,0.65,1.37,0.84,2.5,0.58c0.34-0.08,0.63-0.19,0.87-0.35
			c0.25-0.15,0.44-0.29,0.58-0.42c0.18-0.16,0.29-0.3,0.34-0.42c0.05-0.12,0.07-0.26,0.07-0.44c0-0.45,0-0.9,0-1.35
			c0-0.39-0.04-0.66-0.11-0.84c-0.07-0.17-0.21-0.27-0.41-0.29c-0.2-0.02-0.49,0.01-0.88,0.09c0-0.09,0-0.19,0-0.28
			c0.17-0.03,0.36-0.07,0.59-0.11c0.22-0.04,0.46-0.09,0.7-0.14c0.25-0.05,0.47-0.1,0.68-0.14c0.31-0.07,0.58-0.13,0.83-0.19
			c0.25-0.06,0.45-0.12,0.62-0.16c0,0.09,0,0.19,0,0.28c-0.31,0.08-0.5,0.2-0.59,0.35c-0.08,0.15-0.12,0.49-0.12,1.01
			c0,0.93,0,1.86,0,2.79c-0.09,0.02-0.19,0.04-0.28,0.06c-0.01-0.16-0.05-0.32-0.1-0.5c-0.06-0.17-0.15-0.25-0.27-0.22
			c-0.06,0.01-0.11,0.04-0.17,0.08c-0.05,0.04-0.15,0.13-0.29,0.26c-0.31,0.3-0.63,0.56-0.98,0.77c-0.34,0.21-0.74,0.37-1.2,0.48
			c-1.44,0.33-2.56,0.16-3.36-0.52c-0.8-0.69-1.2-1.81-1.2-3.38c0-1.1,0.19-2.1,0.58-2.99c0.39-0.9,0.92-1.65,1.59-2.25
			C4.41,33.18,5.18,32.78,6.04,32.58z"/>
		<path class="st1" d="M18.04,30.39c-0.04,0.34-0.06,0.66-0.08,0.97c-0.01,0.31-0.02,0.55-0.02,0.71c0,0.17,0,0.33,0.01,0.48
			c0.01,0.15,0.02,0.28,0.03,0.38c-0.11,0.02-0.21,0.04-0.32,0.05c-0.06-0.54-0.13-0.97-0.24-1.28c-0.11-0.31-0.28-0.51-0.53-0.6
			c-0.25-0.09-0.62-0.1-1.12-0.01c-0.39,0.07-0.77,0.14-1.16,0.21c-0.32,0.06-0.56,0.13-0.72,0.21c-0.16,0.08-0.27,0.21-0.33,0.39
			c-0.05,0.17-0.08,0.44-0.08,0.78c0,2.33,0,4.66,0,6.98c0,0.34,0.03,0.59,0.08,0.74c0.06,0.16,0.17,0.25,0.33,0.27
			c0.16,0.02,0.4,0,0.72-0.06c0.34-0.06,0.68-0.12,1.02-0.19c0.59-0.11,1.03-0.26,1.34-0.47c0.3-0.21,0.52-0.51,0.66-0.89
			c0.13-0.38,0.24-0.89,0.3-1.52c0.11-0.02,0.21-0.04,0.32-0.05c-0.03,0.26-0.04,0.6-0.04,1.02c0,0.18,0.01,0.43,0.02,0.76
			c0.01,0.33,0.04,0.67,0.08,1.02c-0.48,0.06-1.02,0.14-1.62,0.24c-0.6,0.1-1.13,0.19-1.6,0.28c-0.28,0.05-0.65,0.12-1.11,0.21
			c-0.46,0.09-0.96,0.18-1.48,0.29c-0.52,0.11-1.01,0.22-1.47,0.33c0-0.09,0-0.19,0-0.28c0.32-0.08,0.56-0.17,0.72-0.26
			c0.16-0.09,0.27-0.22,0.33-0.4c0.06-0.18,0.08-0.44,0.08-0.78c0-2.33,0-4.66,0-6.98c0-0.35-0.03-0.6-0.08-0.75
			c-0.05-0.15-0.17-0.24-0.33-0.27c-0.16-0.03-0.41-0.02-0.72,0.04c0-0.09,0-0.19,0-0.28c0.46-0.08,0.95-0.17,1.47-0.26
			c0.52-0.09,1.02-0.18,1.48-0.27c0.46-0.09,0.83-0.15,1.11-0.21c0.43-0.08,0.92-0.17,1.47-0.27
			C17.12,30.58,17.61,30.49,18.04,30.39z M15.63,35.63c0,0.09,0,0.19,0,0.28c-0.86,0.15-1.71,0.31-2.56,0.48c0-0.09,0-0.19,0-0.28
			C13.92,35.94,14.77,35.78,15.63,35.63z M16.04,33.69c-0.04,0.54-0.05,0.95-0.05,1.24c0,0.28,0.01,0.54,0.01,0.77
			c0,0.23,0,0.49,0.01,0.77c0.01,0.28,0.03,0.68,0.07,1.21c-0.11,0.02-0.22,0.04-0.32,0.06c-0.04-0.29-0.08-0.58-0.13-0.86
			c-0.05-0.28-0.16-0.49-0.34-0.64c-0.17-0.15-0.46-0.19-0.87-0.12c0-0.09,0-0.19,0-0.28c0.41-0.08,0.7-0.24,0.86-0.48
			c0.16-0.25,0.27-0.52,0.32-0.82c0.05-0.3,0.09-0.56,0.13-0.8C15.82,33.73,15.93,33.71,16.04,33.69z"/>
		<path class="st1" d="M28.3,28.98c0,0.09,0,0.19,0,0.28c-0.32,0.04-0.56,0.12-0.73,0.22c-0.17,0.1-0.28,0.25-0.33,0.45
			c-0.06,0.19-0.09,0.47-0.09,0.81c0,2.8,0,5.61,0,8.41c-0.06,0.01-0.11,0.01-0.16,0.02c-0.05,0.01-0.11,0.01-0.16,0.02
			c-1.98-2.81-3.95-5.59-5.92-8.34c0,2.48,0,4.96,0,7.43c0,0.34,0.03,0.6,0.09,0.78c0.06,0.18,0.18,0.3,0.37,0.36
			c0.18,0.05,0.46,0.06,0.82,0.03c0,0.09,0,0.19,0,0.28c-0.17,0.01-0.39,0.03-0.66,0.06c-0.27,0.04-0.53,0.07-0.77,0.11
			c-0.23,0.04-0.47,0.07-0.71,0.12c-0.24,0.04-0.44,0.08-0.6,0.13c0-0.09,0-0.19,0-0.28c0.32-0.07,0.56-0.16,0.72-0.26
			c0.16-0.11,0.27-0.26,0.33-0.46c0.05-0.2,0.08-0.47,0.08-0.81c0-2.28,0-4.56,0-6.84c0-0.35-0.03-0.6-0.08-0.76
			c-0.06-0.16-0.17-0.25-0.33-0.29c-0.16-0.03-0.41-0.03-0.72,0.01c0-0.09,0-0.19,0-0.28c0.16-0.02,0.36-0.04,0.6-0.06
			c0.24-0.03,0.48-0.06,0.71-0.09c0.21-0.03,0.41-0.07,0.59-0.1c0.19-0.04,0.36-0.07,0.51-0.1c1.66,2.31,3.32,4.65,4.98,7
			c0-2.01,0-4.02,0-6.03c0-0.35-0.03-0.61-0.09-0.79c-0.06-0.18-0.18-0.3-0.37-0.36c-0.18-0.06-0.46-0.08-0.83-0.04
			c0-0.09,0-0.19,0-0.28c0.17-0.01,0.39-0.03,0.67-0.05c0.28-0.02,0.54-0.05,0.77-0.08c0.25-0.03,0.49-0.06,0.73-0.1
			C27.96,29.04,28.15,29,28.3,28.98z"/>
		<path class="st1" d="M36.33,28.26c-0.04,0.33-0.06,0.65-0.08,0.96c-0.01,0.31-0.02,0.55-0.02,0.71c0,0.17,0,0.33,0.01,0.49
			c0.01,0.16,0.02,0.28,0.03,0.39c-0.11,0.01-0.22,0.02-0.33,0.02c-0.06-0.55-0.14-0.98-0.24-1.3c-0.11-0.32-0.28-0.53-0.53-0.65
			c-0.25-0.12-0.62-0.16-1.12-0.12c-0.39,0.03-0.78,0.06-1.18,0.1c-0.32,0.03-0.56,0.07-0.73,0.14c-0.16,0.07-0.27,0.19-0.33,0.36
			c-0.06,0.17-0.09,0.43-0.09,0.78c0,2.33,0,4.66,0,6.98c0,0.34,0.03,0.59,0.09,0.75c0.06,0.16,0.17,0.26,0.33,0.3
			c0.17,0.04,0.41,0.04,0.73,0.01c0.34-0.03,0.69-0.06,1.03-0.09c0.59-0.05,1.05-0.16,1.35-0.35c0.31-0.18,0.53-0.46,0.67-0.83
			c0.14-0.37,0.24-0.87,0.3-1.49c0.11-0.01,0.22-0.01,0.33-0.02c-0.03,0.26-0.04,0.59-0.04,1.02c0,0.18,0.01,0.43,0.02,0.76
			c0.01,0.33,0.04,0.68,0.08,1.03c-0.48,0.01-1.03,0.04-1.63,0.08c-0.6,0.04-1.14,0.08-1.61,0.12c-0.28,0.02-0.66,0.06-1.13,0.1
			c-0.47,0.04-0.96,0.09-1.49,0.15c-0.53,0.06-1.02,0.12-1.48,0.19c0-0.09,0-0.19,0-0.28c0.32-0.05,0.56-0.11,0.73-0.19
			c0.17-0.07,0.28-0.2,0.33-0.37c0.06-0.18,0.09-0.43,0.09-0.77c0-2.33,0-4.66,0-6.98c0-0.35-0.03-0.6-0.09-0.76
			c-0.06-0.16-0.17-0.26-0.33-0.31c-0.16-0.04-0.41-0.05-0.73-0.03c0-0.09,0-0.19,0-0.28c0.46-0.04,0.96-0.08,1.48-0.12
			c0.53-0.04,1.03-0.08,1.49-0.13c0.47-0.04,0.84-0.07,1.13-0.1c0.43-0.04,0.93-0.08,1.48-0.13C35.4,28.35,35.89,28.31,36.33,28.26z
			 M33.89,33.26c0,0.09,0,0.19,0,0.28c-0.86,0.07-1.73,0.15-2.59,0.23c0-0.09,0-0.19,0-0.28C32.17,33.4,33.03,33.33,33.89,33.26z
			 M34.3,31.36c-0.04,0.54-0.05,0.95-0.05,1.23c0,0.28,0.01,0.54,0.01,0.77c0,0.23,0,0.49,0.01,0.77c0.01,0.28,0.03,0.69,0.07,1.22
			c-0.11,0.01-0.22,0.02-0.33,0.03c-0.04-0.3-0.08-0.59-0.13-0.87c-0.05-0.28-0.17-0.51-0.34-0.68c-0.18-0.17-0.47-0.24-0.88-0.2
			c0-0.09,0-0.19,0-0.28c0.41-0.04,0.71-0.17,0.87-0.4c0.17-0.23,0.27-0.49,0.32-0.79c0.05-0.29,0.09-0.56,0.13-0.79
			C34.09,31.38,34.19,31.37,34.3,31.36z"/>
		<path class="st1" d="M37.75,28.16c0.2,0,0.46-0.01,0.78-0.02c0.32-0.01,0.64-0.02,0.95-0.04c0.44-0.02,0.87-0.05,1.28-0.08
			c0.41-0.03,0.69-0.05,0.86-0.05c1.15-0.05,2,0.16,2.57,0.62c0.57,0.45,0.85,1.03,0.85,1.72c0,0.28-0.06,0.58-0.17,0.9
			c-0.11,0.32-0.31,0.63-0.59,0.92c-0.28,0.29-0.66,0.53-1.14,0.73c-0.48,0.2-1.09,0.31-1.83,0.34c-0.45,0.02-0.91,0.04-1.36,0.06
			c0-0.09,0-0.19,0-0.28c0.41-0.02,0.81-0.04,1.22-0.06c0.67-0.03,1.18-0.15,1.54-0.38c0.36-0.22,0.6-0.51,0.73-0.87
			c0.13-0.36,0.19-0.75,0.19-1.18c0-0.74-0.18-1.31-0.53-1.71c-0.35-0.4-0.96-0.58-1.82-0.54c-0.44,0.02-0.72,0.11-0.85,0.28
			c-0.13,0.16-0.2,0.49-0.2,0.98c0,2.33,0,4.66,0,6.98c0,0.34,0.03,0.59,0.09,0.76c0.06,0.16,0.17,0.27,0.33,0.32
			c0.17,0.05,0.41,0.08,0.73,0.08c0,0.09,0,0.19,0,0.28c-0.22-0.01-0.49-0.01-0.82,0c-0.33,0.01-0.65,0.02-0.99,0.04
			c-0.37,0.02-0.71,0.04-1.03,0.06c-0.32,0.02-0.58,0.05-0.78,0.08c0-0.09,0-0.19,0-0.28c0.32-0.04,0.57-0.09,0.73-0.16
			c0.17-0.07,0.28-0.19,0.33-0.36c0.06-0.17,0.09-0.43,0.09-0.77c0-2.33,0-4.66,0-6.98c0-0.35-0.03-0.6-0.09-0.76
			c-0.06-0.16-0.17-0.27-0.33-0.32c-0.16-0.05-0.41-0.07-0.73-0.06C37.75,28.35,37.75,28.26,37.75,28.16z M40,33.04
			c0.51-0.01,0.91,0,1.21,0.01c0.29,0.01,0.53,0.02,0.72,0.03c0.18,0.01,0.36,0.03,0.53,0.05c0.63,0.08,1.09,0.26,1.37,0.53
			c0.28,0.27,0.49,0.69,0.62,1.27c0.12,0.48,0.24,0.95,0.36,1.43c0.09,0.41,0.19,0.71,0.29,0.89c0.1,0.18,0.25,0.26,0.46,0.25
			c0.16-0.01,0.3-0.07,0.4-0.16c0.11-0.1,0.23-0.22,0.35-0.39c0.07,0.05,0.14,0.1,0.21,0.15c-0.2,0.29-0.4,0.52-0.62,0.68
			c-0.21,0.16-0.51,0.24-0.9,0.25c-0.35,0.01-0.66-0.09-0.92-0.29c-0.26-0.2-0.46-0.6-0.6-1.19c-0.1-0.47-0.21-0.93-0.31-1.4
			c-0.09-0.4-0.18-0.75-0.29-1.04c-0.11-0.29-0.26-0.52-0.45-0.68c-0.19-0.16-0.48-0.23-0.86-0.22c-0.51,0.02-1.02,0.04-1.53,0.07
			C40.02,33.2,40.01,33.12,40,33.04z"/>
		<path class="st1" d="M50.79,27.74c1.15,2.96,2.31,5.93,3.46,8.91c0.14,0.36,0.3,0.6,0.48,0.72c0.18,0.12,0.34,0.19,0.5,0.2
			c0,0.09,0,0.19,0,0.28c-0.19-0.02-0.42-0.04-0.7-0.05c-0.27-0.01-0.55-0.02-0.82-0.03c-0.37-0.01-0.71-0.01-1.03-0.01
			c-0.32,0-0.58,0.01-0.78,0.02c0-0.09,0-0.19,0-0.28c0.48-0.01,0.79-0.09,0.92-0.23c0.13-0.14,0.1-0.46-0.09-0.94
			c-0.88-2.35-1.76-4.69-2.64-7.02c0.08-0.06,0.15-0.12,0.23-0.18c-0.82,2.12-1.65,4.24-2.47,6.37c-0.2,0.51-0.29,0.91-0.28,1.19
			c0.01,0.29,0.12,0.49,0.33,0.61c0.21,0.12,0.51,0.18,0.91,0.19c0,0.09,0,0.19,0,0.28c-0.26-0.02-0.54-0.03-0.83-0.03
			c-0.29,0-0.56,0-0.8,0c-0.24,0-0.44,0.01-0.6,0.02c-0.17,0.01-0.32,0.02-0.46,0.04c0-0.09,0-0.19,0-0.28
			c0.19-0.05,0.38-0.16,0.58-0.34c0.2-0.18,0.38-0.48,0.54-0.9c1.11-2.86,2.22-5.71,3.34-8.55c0.04,0,0.08,0,0.11,0
			C50.71,27.74,50.75,27.74,50.79,27.74z M52.52,33.74c0,0.09,0,0.19,0,0.28C51.11,34,49.7,33.99,48.29,34
			c0.05-0.09,0.1-0.19,0.14-0.28C49.79,33.71,51.16,33.72,52.52,33.74z"/>
		<path class="st1" d="M62.69,28.25c-0.04,0.36-0.06,0.7-0.08,1.03c-0.01,0.33-0.02,0.59-0.02,0.77c0,0.22,0,0.44,0.01,0.63
			c0.01,0.2,0.02,0.37,0.03,0.52c-0.11-0.01-0.22-0.01-0.33-0.02c-0.06-0.66-0.15-1.18-0.27-1.57c-0.12-0.39-0.31-0.68-0.6-0.86
			c-0.28-0.19-0.72-0.3-1.32-0.33c-0.26-0.01-0.51-0.03-0.77-0.04c0,2.67,0,5.34,0,8.01c0,0.38,0.04,0.66,0.11,0.85
			c0.07,0.19,0.21,0.32,0.42,0.4c0.21,0.08,0.51,0.14,0.91,0.18c0,0.09,0,0.19,0,0.28c-0.25-0.03-0.56-0.06-0.94-0.09
			c-0.38-0.02-0.76-0.05-1.15-0.06c-0.43-0.02-0.83-0.04-1.2-0.05c-0.37-0.01-0.67-0.01-0.9,0c0-0.09,0-0.19,0-0.28
			c0.4,0,0.7-0.03,0.91-0.09c0.21-0.06,0.35-0.18,0.42-0.36c0.07-0.18,0.11-0.47,0.11-0.84c0-2.67,0-5.34,0-8.01
			c-0.26-0.01-0.51-0.02-0.77-0.03c-0.59-0.02-1.02,0.04-1.31,0.2c-0.29,0.16-0.49,0.43-0.6,0.81c-0.11,0.38-0.2,0.89-0.27,1.55
			c-0.11,0-0.22-0.01-0.33-0.01c0.02-0.15,0.03-0.32,0.03-0.52c0-0.2,0.01-0.41,0.01-0.63c0-0.18-0.01-0.44-0.02-0.77
			c-0.01-0.33-0.04-0.68-0.08-1.04c0.4,0.02,0.83,0.04,1.3,0.07c0.47,0.02,0.94,0.05,1.41,0.07c0.47,0.02,0.9,0.04,1.29,0.06
			c0.39,0.02,0.81,0.04,1.28,0.07c0.47,0.03,0.94,0.05,1.41,0.07C61.87,28.21,62.3,28.23,62.69,28.25z"/>
		<path class="st1" d="M67.17,28.61c0,0.09,0,0.19,0,0.28c-0.32-0.02-0.56-0.01-0.73,0.04c-0.16,0.05-0.27,0.15-0.33,0.31
			c-0.06,0.16-0.09,0.41-0.09,0.76c0,2.33,0,4.66,0,6.98c0,0.34,0.03,0.59,0.09,0.77c0.06,0.17,0.17,0.29,0.33,0.37
			c0.17,0.07,0.41,0.13,0.73,0.18c0,0.09,0,0.19,0,0.28c-0.22-0.04-0.49-0.07-0.82-0.11c-0.32-0.03-0.65-0.06-0.98-0.09
			c-0.37-0.03-0.71-0.06-1.03-0.08c-0.32-0.02-0.58-0.03-0.78-0.02c0-0.09,0-0.19,0-0.28c0.32,0,0.56-0.01,0.73-0.06
			c0.17-0.04,0.28-0.15,0.33-0.31c0.06-0.17,0.09-0.42,0.09-0.75c0-2.33,0-4.66,0-6.98c0-0.35-0.03-0.61-0.09-0.77
			c-0.06-0.17-0.17-0.29-0.33-0.37c-0.16-0.07-0.41-0.13-0.73-0.16c0-0.09,0-0.19,0-0.28c0.2,0.02,0.46,0.05,0.78,0.09
			c0.32,0.03,0.67,0.07,1.03,0.1c0.33,0.03,0.66,0.05,0.98,0.07C66.68,28.58,66.95,28.59,67.17,28.61z"/>
		<path class="st1" d="M72.75,29c0.9,0.11,1.68,0.41,2.35,0.9c0.67,0.5,1.2,1.15,1.56,1.96c0.37,0.81,0.56,1.75,0.56,2.83
			c0,1.05-0.19,1.94-0.57,2.68c-0.38,0.73-0.91,1.28-1.59,1.63c-0.68,0.35-1.45,0.47-2.33,0.37c-0.89-0.11-1.68-0.4-2.35-0.87
			c-0.67-0.48-1.2-1.11-1.57-1.91c-0.37-0.8-0.56-1.73-0.56-2.8c0-1.05,0.19-1.95,0.58-2.7c0.38-0.75,0.92-1.31,1.59-1.68
			C71.1,29.03,71.87,28.9,72.75,29z M72.69,29.25c-0.61-0.07-1.14,0.08-1.6,0.45c-0.45,0.37-0.81,0.92-1.05,1.63
			c-0.25,0.72-0.38,1.56-0.38,2.54c0,1,0.14,1.88,0.42,2.64c0.28,0.77,0.66,1.37,1.13,1.83c0.48,0.45,1,0.71,1.57,0.78
			c0.61,0.07,1.14-0.07,1.59-0.43c0.45-0.36,0.8-0.9,1.05-1.61c0.25-0.71,0.37-1.55,0.37-2.52c0-1.01-0.14-1.89-0.42-2.66
			c-0.28-0.77-0.65-1.38-1.12-1.84C73.8,29.58,73.28,29.32,72.69,29.25z"/>
		<path class="st1" d="M87.12,31.49c0,0.09,0,0.19,0,0.28c-0.32-0.05-0.56-0.05-0.72,0c-0.16,0.05-0.27,0.17-0.33,0.34
			c-0.06,0.18-0.08,0.44-0.08,0.79c0,2.8,0,5.61,0,8.41c-0.06-0.01-0.11-0.02-0.16-0.03c-0.05-0.01-0.1-0.02-0.16-0.03
			c-1.96-3.42-3.93-6.81-5.9-10.17c0,2.48,0,4.96,0,7.43c0,0.34,0.03,0.61,0.09,0.81c0.06,0.2,0.18,0.36,0.37,0.47
			c0.18,0.11,0.46,0.2,0.82,0.28c0,0.09,0,0.19,0,0.28c-0.17-0.05-0.39-0.09-0.66-0.14c-0.27-0.05-0.53-0.09-0.77-0.13
			c-0.23-0.04-0.47-0.07-0.71-0.1c-0.24-0.03-0.44-0.05-0.6-0.06c0-0.09,0-0.19,0-0.28c0.32,0.03,0.56,0.02,0.72-0.04
			c0.16-0.05,0.27-0.18,0.33-0.36c0.05-0.18,0.08-0.44,0.08-0.78c0-2.28,0-4.56,0-6.84c0-0.35-0.03-0.61-0.08-0.78
			c-0.06-0.17-0.17-0.3-0.33-0.39c-0.16-0.08-0.41-0.16-0.72-0.22c0-0.09,0-0.19,0-0.28c0.16,0.03,0.36,0.07,0.6,0.12
			c0.24,0.05,0.48,0.09,0.71,0.12c0.21,0.03,0.41,0.06,0.59,0.08c0.19,0.02,0.36,0.04,0.51,0.05c1.65,2.82,3.31,5.67,4.95,8.54
			c0-2.01,0-4.02,0-6.03c0-0.35-0.03-0.62-0.09-0.82c-0.06-0.2-0.18-0.36-0.36-0.48c-0.18-0.12-0.46-0.22-0.82-0.29
			c0-0.09,0-0.19,0-0.28c0.17,0.04,0.39,0.09,0.67,0.15c0.28,0.06,0.53,0.11,0.76,0.16c0.24,0.05,0.48,0.09,0.72,0.13
			C86.77,31.44,86.97,31.47,87.12,31.49z"/>
		<path class="st1" d="M91.06,32.16c0.47,0.1,0.82,0.23,1.06,0.4c0.24,0.16,0.45,0.33,0.64,0.51c0.11,0.09,0.2,0.16,0.27,0.21
			c0.07,0.05,0.14,0.08,0.2,0.09c0.15,0.03,0.25-0.15,0.31-0.55c0.11,0.03,0.21,0.05,0.32,0.08c-0.01,0.16-0.02,0.34-0.04,0.56
			c-0.01,0.22-0.02,0.51-0.03,0.86c0,0.36-0.01,0.84-0.01,1.43c-0.11-0.03-0.21-0.05-0.32-0.07c-0.03-0.46-0.13-0.91-0.29-1.36
			c-0.17-0.45-0.41-0.85-0.73-1.18c-0.32-0.33-0.74-0.56-1.26-0.68c-0.49-0.11-0.9-0.05-1.22,0.19c-0.32,0.23-0.48,0.59-0.48,1.08
			c0,0.42,0.11,0.8,0.32,1.13c0.21,0.33,0.5,0.65,0.86,0.96c0.36,0.31,0.74,0.64,1.16,1c0.48,0.41,0.91,0.8,1.29,1.19
			c0.38,0.38,0.67,0.78,0.89,1.19c0.22,0.41,0.33,0.87,0.33,1.38c0,0.6-0.14,1.07-0.4,1.4c-0.27,0.33-0.63,0.54-1.07,0.64
			c-0.44,0.09-0.94,0.08-1.48-0.04c-0.49-0.11-0.88-0.25-1.17-0.43c-0.29-0.17-0.54-0.34-0.74-0.51c-0.2-0.18-0.36-0.27-0.47-0.3
			c-0.15-0.03-0.25,0.15-0.31,0.55c-0.11-0.02-0.21-0.04-0.32-0.07c0.02-0.19,0.03-0.42,0.03-0.69c0-0.27,0.01-0.61,0.02-1.05
			c0-0.43,0.01-0.98,0.01-1.63c0.11,0.02,0.21,0.04,0.32,0.07c0.04,0.57,0.14,1.12,0.31,1.64c0.17,0.52,0.44,0.97,0.8,1.34
			c0.36,0.37,0.84,0.62,1.43,0.75c0.46,0.1,0.87,0.05,1.25-0.16c0.38-0.21,0.56-0.64,0.56-1.3c0-0.57-0.2-1.09-0.6-1.56
			c-0.4-0.46-0.93-0.97-1.58-1.51c-0.44-0.37-0.84-0.73-1.23-1.1c-0.38-0.36-0.69-0.75-0.92-1.17c-0.23-0.42-0.34-0.89-0.34-1.41
			c0-0.55,0.12-0.99,0.37-1.3c0.25-0.31,0.57-0.51,0.97-0.6C90.17,32.05,90.6,32.06,91.06,32.16z"/>
		<path class="st1" d="M96.69,42.01c0.24,0.06,0.45,0.2,0.62,0.42c0.18,0.22,0.26,0.46,0.26,0.7c0,0.24-0.09,0.43-0.26,0.57
			c-0.18,0.13-0.38,0.17-0.62,0.11c-0.24-0.06-0.45-0.2-0.63-0.42c-0.17-0.22-0.26-0.45-0.26-0.7c0-0.25,0.09-0.43,0.26-0.57
			C96.24,41.98,96.45,41.95,96.69,42.01z M96.69,32.6c0.18,0.04,0.33,0.14,0.45,0.3c0.12,0.15,0.19,0.37,0.19,0.65
			c0,0.36-0.02,0.81-0.07,1.35c-0.05,0.53-0.11,1.12-0.18,1.76c-0.07,0.64-0.13,1.32-0.18,2.04c-0.05,0.72-0.08,1.44-0.08,2.19
			c-0.08-0.02-0.17-0.04-0.25-0.06c0-0.74-0.03-1.48-0.08-2.22c-0.05-0.74-0.11-1.45-0.18-2.13c-0.07-0.68-0.13-1.3-0.18-1.85
			c-0.05-0.56-0.08-1.02-0.08-1.39c0-0.28,0.06-0.47,0.19-0.56C96.36,32.58,96.51,32.56,96.69,32.6z"/>
	</g>
</g>
<g>
	<path class="st2" d="M57.3,57.1c-0.69,0.64-0.69,0.64-0.62,0.76c0.04,0.06,0.11,0.09,0.18,0.07c0.68-0.18,1.42-0.06,1.99,0.31
		c0.43,0.28,0.7,0.66,0.77,1.07c0.11,0.67-0.17,1.53-0.83,1.82c-0.33,0.15-0.71,0.13-1.02-0.04c-0.29-0.16-0.47-0.43-0.52-0.77
		c-0.06-0.45,0.17-0.67,0.32-0.76c0.24-0.15,0.58-0.15,0.77-0.01c0.15,0.11,0.2,0.29,0.15,0.52c-0.04,0.16-0.2,0.27-0.36,0.23
		c-0.09-0.02-0.14-0.1-0.12-0.19c0.02-0.09-0.04-0.18-0.13-0.19c-0.09-0.02-0.18,0.04-0.19,0.13c-0.03,0.13,0,0.26,0.07,0.37
		c0.07,0.11,0.18,0.19,0.31,0.21c0.34,0.07,0.68-0.14,0.75-0.48c0.08-0.36-0.03-0.67-0.28-0.85c-0.31-0.22-0.77-0.22-1.13,0
		c-0.37,0.22-0.54,0.62-0.47,1.08c0.06,0.43,0.31,0.8,0.69,1.01c0.4,0.22,0.89,0.24,1.31,0.05c0.84-0.37,1.15-1.4,1.03-2.17
		c-0.08-0.51-0.41-0.97-0.91-1.3c-0.49-0.32-1.1-0.47-1.71-0.44c0.77-0.72,2.46-2.3,3.13-2.92v3.79c-0.28-0.55-0.75-1.21-1.46-1.38
		l0.67-0.67v0.49c0,0.09,0.07,0.16,0.16,0.16c0.09,0,0.16-0.07,0.16-0.16v-0.89c0-0.07-0.04-0.13-0.1-0.15
		c-0.06-0.03-0.13-0.01-0.18,0.04l-1.19,1.19c-0.05,0.05-0.06,0.12-0.04,0.18c0.03,0.06,0.09,0.1,0.15,0.1
		c1.24,0,1.81,1.96,1.82,1.98c0.02,0.08,0.1,0.13,0.18,0.12c0.08-0.01,0.14-0.08,0.14-0.16v-5.01c0-0.07-0.04-0.12-0.1-0.15
		c-0.02-0.01-0.04-0.01-0.07-0.01c-0.04,0-0.08,0.02-0.11,0.04L57.3,57.1z"/>
	<path class="st2" d="M55.29,59.25c-0.01,0.03-0.15,0.74,0.22,1.11c0.17,0.17,0.42,0.25,0.75,0.25c0.2,0,0.35-0.03,0.36-0.03
		c0.06-0.01,0.11-0.06,0.13-0.13c0.01-0.03,0.15-0.74-0.22-1.11c-0.17-0.17-0.42-0.25-0.75-0.25c-0.2,0-0.35,0.03-0.36,0.03
		C55.36,59.14,55.31,59.19,55.29,59.25z M56.29,59.57c0.17,0.17,0.17,0.5,0.15,0.7c-0.05,0.01-0.11,0.01-0.18,0.01
		c-0.16,0-0.39-0.03-0.52-0.16c-0.17-0.17-0.17-0.5-0.15-0.7c0.05-0.01,0.11-0.01,0.18-0.01C55.94,59.42,56.17,59.44,56.29,59.57z"
		/>
	<path class="st2" d="M47.89,62.67c0.92-1.14,0.4-2.92-0.38-3.7l-6.15-6.15c-0.03-0.03-0.07-0.05-0.12-0.05
		c-0.04,0-0.08,0.02-0.12,0.05c-0.06,0.06-0.06,0.17,0,0.23l6.15,6.15c0.68,0.68,1.15,2.28,0.36,3.26
		c-0.54,0.67-1.52,0.77-2.19,0.23c-0.44-0.36-0.51-1.01-0.15-1.45c0.11-0.14,0.27-0.23,0.45-0.24c0.18-0.02,0.35,0.03,0.49,0.15
		c0.18,0.14,0.21,0.41,0.06,0.58c-0.08,0.1-0.23,0.12-0.34,0.04c-0.02-0.02-0.04-0.05-0.04-0.08c0-0.03,0.01-0.06,0.03-0.09
		c0.06-0.07,0.05-0.17-0.02-0.23c-0.07-0.06-0.17-0.05-0.23,0.02c-0.07,0.09-0.11,0.21-0.1,0.33c0.01,0.12,0.07,0.22,0.16,0.3
		c0.24,0.2,0.6,0.16,0.8-0.08c0.26-0.32,0.21-0.79-0.11-1.04c-0.21-0.17-0.47-0.24-0.73-0.22c-0.26,0.03-0.5,0.16-0.67,0.36
		c-0.47,0.58-0.38,1.44,0.2,1.91C46.05,63.6,47.24,63.48,47.89,62.67z"/>
	<path class="st2" d="M56.15,60.67c-0.27-0.03-0.52,0.05-0.73,0.22c-0.32,0.26-0.37,0.73-0.11,1.04c0.2,0.24,0.55,0.28,0.8,0.08
		c0.09-0.07,0.15-0.18,0.16-0.3c0.01-0.12-0.02-0.23-0.1-0.33c-0.06-0.07-0.16-0.08-0.23-0.02c-0.07,0.06-0.08,0.16-0.02,0.23
		c0.02,0.02,0.03,0.05,0.03,0.09c0,0.03-0.02,0.06-0.04,0.08c-0.1,0.08-0.25,0.07-0.34-0.04c-0.14-0.18-0.12-0.44,0.06-0.58
		c0.14-0.11,0.31-0.16,0.49-0.15c0.18,0.02,0.34,0.11,0.45,0.24c0.36,0.44,0.29,1.09-0.15,1.45c-0.67,0.54-1.65,0.44-2.19-0.23
		c-0.79-0.98-0.32-2.59,0.36-3.26l6.15-6.15c0.06-0.06,0.06-0.17,0-0.23c-0.03-0.03-0.07-0.05-0.12-0.05
		c-0.04,0-0.08,0.02-0.12,0.05l-6.15,6.15c-0.78,0.78-1.3,2.56-0.38,3.7c0.65,0.81,1.84,0.93,2.65,0.28
		c0.58-0.47,0.67-1.33,0.2-1.91C56.65,60.83,56.42,60.7,56.15,60.67z"/>
	<path class="st2" d="M53.42,63.04c-0.09,0-0.16,0.07-0.16,0.16v0.51c0,0.09,0.07,0.16,0.16,0.16h1.24l-1.09,1.09L51.2,62.6
		l1.61-1.61v1.2H52.4l0.19-0.19c0.06-0.06,0.06-0.17,0-0.23c-0.06-0.06-0.17-0.06-0.23,0l-0.47,0.47c-0.05,0.05-0.06,0.12-0.04,0.18
		c0.03,0.06,0.09,0.1,0.15,0.1h0.97c0.09,0,0.16-0.07,0.16-0.16V60.6c0-0.07-0.04-0.13-0.1-0.15c-0.02-0.01-0.04-0.01-0.06-0.01
		c-0.04,0-0.08,0.02-0.12,0.05l-1.93,1.93L49,60.48c-0.03-0.03-0.07-0.05-0.12-0.05c-0.02,0-0.04,0-0.06,0.01
		c-0.06,0.03-0.1,0.09-0.1,0.15v1.76c0,0.09,0.07,0.16,0.16,0.16h0.97c0.07,0,0.13-0.04,0.15-0.1c0.03-0.06,0.01-0.13-0.04-0.18
		l-0.47-0.47c-0.06-0.06-0.17-0.06-0.23,0c-0.06,0.06-0.06,0.17,0,0.23l0.19,0.19h-0.41v-1.2l1.61,1.61l-2.37,2.37l-1.09-1.09h1.24
		c0.09,0,0.16-0.07,0.16-0.16V63.2c0-0.09-0.07-0.16-0.16-0.16s-0.16,0.07-0.16,0.16v0.35H46.8c-0.07,0-0.13,0.04-0.15,0.1
		c-0.03,0.06-0.01,0.13,0.04,0.18l1.49,1.49c0.06,0.06,0.17,0.06,0.23,0l2.53-2.53l2.53,2.53c0.06,0.06,0.17,0.06,0.23,0l1.49-1.49
		c0.05-0.05,0.06-0.12,0.04-0.18c-0.03-0.06-0.09-0.1-0.15-0.1h-1.47V63.2C53.59,63.11,53.51,63.04,53.42,63.04z"/>
	<path class="st2" d="M50.73,64.01l-1.97,1.97c-0.06,0.06-0.06,0.17,0,0.23l2,2c0.1,0.1,0.25,0.09,0.35,0l2-2
		c0.06-0.06,0.06-0.17,0-0.23l-1.97-1.97C51,63.88,50.86,63.87,50.73,64.01z M49.1,66.09l1.24-1.24l-0.52,1.19
		c-0.02,0.04-0.02,0.09,0,0.13l0.53,1.17L49.1,66.09z M52.75,66.09l-1.25,1.25l0.53-1.17c0.02-0.04,0.02-0.09,0-0.13l-0.52-1.19
		L52.75,66.09z M51.7,66.1l-0.77,1.71l-0.77-1.71l0.77-1.77L51.7,66.1z"/>
	<path class="st2" d="M61.62,50.43c-0.04,0-0.09,0.02-0.12,0.05L50.93,61.22L40.35,50.48c-0.03-0.03-0.07-0.05-0.12-0.05h-0.1
		c-1.29,0-2.16,0.72-2.27,1.88c-0.08,0.83,0.53,1.56,1.35,1.64c0.29,0.03,0.58-0.06,0.8-0.25c0.23-0.19,0.37-0.45,0.39-0.74
		c0.04-0.45-0.28-0.84-0.73-0.89c-0.34-0.03-0.64,0.22-0.67,0.55c-0.01,0.13,0.03,0.25,0.11,0.35c0.08,0.1,0.2,0.16,0.32,0.17
		c0.09,0.01,0.17-0.06,0.18-0.15c0.01-0.09-0.06-0.17-0.15-0.18c-0.04,0-0.08-0.02-0.1-0.05c-0.03-0.03-0.04-0.07-0.03-0.11
		c0.02-0.16,0.16-0.27,0.31-0.26c0.13,0.01,0.24,0.07,0.33,0.17c0.08,0.1,0.12,0.23,0.11,0.35c-0.02,0.2-0.12,0.39-0.28,0.52
		c-0.16,0.13-0.36,0.19-0.56,0.17c-0.65-0.06-1.12-0.64-1.06-1.28c0.1-0.99,0.82-1.59,1.94-1.59h0.03l10.56,10.73
		c0.12,0.12,0.28,0.12,0.41,0l10.56-10.73h0.03c1.12,0,1.85,0.59,1.94,1.59c0.06,0.65-0.41,1.22-1.06,1.28
		c-0.2,0.02-0.4-0.04-0.56-0.17c-0.16-0.13-0.26-0.31-0.28-0.52c-0.01-0.13,0.03-0.25,0.11-0.35c0.08-0.1,0.2-0.16,0.33-0.17
		c0.16-0.02,0.3,0.1,0.31,0.26c0,0.04-0.01,0.08-0.03,0.11c-0.03,0.03-0.06,0.05-0.1,0.05c-0.09,0.01-0.16,0.09-0.15,0.18
		c0.01,0.09,0.09,0.16,0.18,0.15c0.13-0.01,0.24-0.07,0.32-0.17c0.08-0.1,0.12-0.22,0.11-0.35c-0.03-0.34-0.33-0.59-0.67-0.55
		c-0.45,0.04-0.77,0.44-0.73,0.89c0.03,0.29,0.17,0.55,0.39,0.74c0.23,0.19,0.51,0.27,0.8,0.25c0.83-0.08,1.43-0.82,1.35-1.64
		c-0.11-1.16-0.98-1.88-2.27-1.88H61.62z"/>
	<path class="st2" d="M44.94,60.37c0.06-0.47-0.11-0.86-0.47-1.08c-0.36-0.22-0.83-0.22-1.13,0c-0.26,0.18-0.36,0.5-0.28,0.85
		c0.07,0.34,0.41,0.56,0.75,0.48c0.13-0.03,0.24-0.1,0.31-0.21c0.07-0.11,0.09-0.24,0.07-0.37c-0.02-0.09-0.11-0.14-0.19-0.13
		c-0.09,0.02-0.14,0.11-0.13,0.19c0.02,0.09-0.04,0.17-0.12,0.19c-0.16,0.04-0.32-0.07-0.36-0.23c-0.05-0.23,0-0.41,0.15-0.52
		c0.2-0.14,0.53-0.14,0.77,0.01c0.15,0.09,0.38,0.3,0.32,0.76c-0.05,0.33-0.23,0.61-0.52,0.77c-0.31,0.17-0.69,0.19-1.02,0.04
		c-0.66-0.29-0.94-1.16-0.83-1.82c0.07-0.41,0.34-0.8,0.77-1.07c0.57-0.37,1.31-0.49,1.99-0.31c0.07,0.02,0.14-0.01,0.18-0.07
		c0.07-0.11,0.07-0.11-0.62-0.76l-3.2-2.98c-0.03-0.03-0.07-0.04-0.11-0.04c-0.02,0-0.04,0-0.07,0.01c-0.06,0.03-0.1,0.09-0.1,0.15
		v5.01c0,0.08,0.06,0.15,0.14,0.16c0.08,0.01,0.16-0.04,0.18-0.12c0.01-0.02,0.58-1.98,1.82-1.98c0.07,0,0.13-0.04,0.15-0.1
		c0.03-0.06,0.01-0.13-0.04-0.18l-1.19-1.19c-0.05-0.05-0.12-0.06-0.18-0.04c-0.06,0.03-0.1,0.09-0.1,0.15v0.89
		c0,0.09,0.07,0.16,0.16,0.16c0.09,0,0.16-0.07,0.16-0.16v-0.49l0.67,0.67c-0.7,0.17-1.18,0.83-1.46,1.38v-3.79
		c0.66,0.62,2.36,2.2,3.13,2.92c-0.6-0.04-1.21,0.12-1.71,0.44c-0.5,0.33-0.83,0.79-0.91,1.3c-0.13,0.78,0.19,1.8,1.03,2.17
		c0.43,0.19,0.92,0.17,1.31-0.05C44.63,61.17,44.88,60.8,44.94,60.37z"/>
	<path class="st2" d="M45.11,60.45c0.01,0.06,0.06,0.11,0.13,0.13c0.01,0,0.16,0.03,0.36,0.03c0.32,0,0.58-0.09,0.75-0.25
		c0.37-0.37,0.22-1.08,0.22-1.11c-0.01-0.06-0.06-0.11-0.13-0.13c-0.01,0-0.16-0.03-0.36-0.03c-0.32,0-0.58,0.09-0.75,0.25
		C44.96,59.71,45.11,60.42,45.11,60.45z M46.26,59.43c0.02,0.2,0.02,0.53-0.15,0.7c-0.13,0.13-0.35,0.16-0.52,0.16
		c-0.07,0-0.13,0-0.18-0.01c-0.02-0.2-0.02-0.53,0.15-0.7c0.13-0.13,0.35-0.16,0.52-0.16C46.15,59.42,46.21,59.42,46.26,59.43z"/>
	<path class="st2" d="M50.93,55.5c-0.09,0-0.16,0.07-0.16,0.16v4.16l-0.31-0.31c-0.06-0.06-0.17-0.06-0.23,0
		c-0.06,0.06-0.06,0.17,0,0.23l0.59,0.59c0.01,0.01,0.03,0.02,0.05,0.03c0.01,0,0.01,0,0.02,0.01c0.01,0,0.03,0.01,0.04,0.01
		c0.01,0,0.01,0,0.02,0c0.02,0,0.03,0,0.05-0.01c0,0,0,0,0,0c0,0,0,0,0,0c0.02-0.01,0.03-0.02,0.05-0.03c0,0,0,0,0.01,0l0.59-0.59
		c0.03-0.03,0.05-0.07,0.05-0.12c0-0.04-0.02-0.08-0.05-0.12c-0.06-0.06-0.17-0.06-0.23,0l-0.31,0.31v-4.16
		C51.09,55.58,51.02,55.5,50.93,55.5z"/>
	<path class="st2" d="M50.77,50.2v2.98c0,0.09,0.07,0.16,0.16,0.16s0.16-0.07,0.16-0.16V50.2H50.77z"/>
	<path class="st2" d="M50.93,53.88c-0.23,0-0.41,0.18-0.41,0.41c0,0.23,0.18,0.41,0.41,0.41c0.23,0,0.41-0.18,0.41-0.41
		C51.34,54.06,51.16,53.88,50.93,53.88z"/>
	<path class="st2" d="M49.8,50.2v8.21l-6.73-6.73h5.53v3.9l-2.87-2.87h1.64v0.44l-0.23-0.23c-0.06-0.06-0.17-0.06-0.23,0
		c-0.06,0.06-0.06,0.17,0,0.23l0.51,0.51c0.05,0.05,0.12,0.06,0.18,0.04c0.06-0.03,0.1-0.09,0.1-0.15v-1c0-0.09-0.07-0.16-0.16-0.16
		h-2.2c-0.07,0-0.13,0.04-0.15,0.1c-0.03,0.06-0.01,0.13,0.04,0.18l3.43,3.43c0.05,0.05,0.12,0.06,0.18,0.04
		c0.06-0.03,0.1-0.09,0.1-0.15v-4.46c0-0.09-0.07-0.16-0.16-0.16h-6.08c-0.07,0-0.13,0.04-0.15,0.1c-0.03,0.06-0.01,0.13,0.04,0.18
		l7.29,7.29c0.05,0.05,0.12,0.06,0.18,0.04c0.06-0.03,0.1-0.09,0.1-0.15V50.2H49.8z"/>
	<path class="st2" d="M52.93,51.52v4.46c0,0.07,0.04,0.13,0.1,0.15c0.06,0.03,0.13,0.01,0.18-0.04l3.43-3.43
		c0.05-0.05,0.06-0.12,0.04-0.18c-0.03-0.06-0.09-0.1-0.15-0.1h-2.2c-0.09,0-0.16,0.07-0.16,0.16v1c0,0.07,0.04,0.13,0.1,0.15
		c0.06,0.03,0.13,0.01,0.18-0.04l0.51-0.51c0.06-0.06,0.06-0.17,0-0.23c-0.06-0.06-0.17-0.06-0.23,0l-0.23,0.23v-0.44h1.64
		l-2.87,2.87v-3.9h5.53l-6.73,6.73V50.2h-0.33v8.61c0,0.07,0.04,0.13,0.1,0.15c0.06,0.03,0.13,0.01,0.18-0.04l7.29-7.29
		c0.05-0.05,0.06-0.12,0.04-0.18c-0.03-0.06-0.09-0.1-0.15-0.1H53.1C53.01,51.36,52.93,51.43,52.93,51.52z"/>
</g>
<g>
	<path class="st3" d="M11.2,19.06c-0.02-0.03-0.05-0.04-0.08-0.04c-0.03,0.01-0.06,0.03-0.06,0.07c-0.01,0.11-0.05,0.34-0.13,0.39
		c-0.02,0.01-0.04,0.02-0.09-0.01c-0.08-0.04-0.08-0.19-0.09-0.35c0-0.29-0.01-0.7-0.48-0.88c-0.34-0.13-0.7-0.05-0.96,0.22
		c-0.31,0.32-0.38,0.87-0.18,1.47c0.01,0.04,0.02,0.07,0.04,0.1c0,0,0.04,0.08,0.03,0.08c0.43,0.87,1.52,0.73,1.53,0.73
		c0,0,0.01,0,0.01,0c0.03-0.01,0.05-0.04,0.05-0.08c-0.01-0.04-0.04-0.07-0.08-0.06c0,0-0.08,0.01-0.19,0.01
		c-0.79-0.01-1.39-0.73-1.23-1.5c0.03-0.15,0.1-0.3,0.21-0.39c0.19-0.17,0.38-0.22,0.53-0.15c0.14,0.07,0.22,0.26,0.21,0.51
		c-0.02,0.4,0.16,0.57,0.27,0.64c0.16,0.1,0.38,0.09,0.57-0.02C11.39,19.6,11.3,19.23,11.2,19.06z"/>
	<path class="st3" d="M1.87,20.49c-0.1,0.12-0.18,0.22-0.23,0.32c0,0-0.01,0.01-0.01,0.01c-0.14,0.27-0.11,0.46-0.07,0.57
		c0.07,0.17,0.24,0.29,0.44,0.31c0.17,0.01,0.31-0.06,0.38-0.18c0.02-0.03,0.02-0.07-0.01-0.1c-0.04-0.03-0.09-0.02-0.11,0.02
		c-0.05,0.08-0.14,0.12-0.25,0.11c-0.14-0.01-0.26-0.1-0.31-0.22c-0.02-0.06-0.03-0.13-0.02-0.2c0.02-0.14,0.1-0.26,0.21-0.34
		c0.28-0.2,0.96-0.6,1.82-0.5c0.76,0.09,1.51,0.33,2.22,0.55c0.71,0.22,1.42,0.45,2.18,0.55c0.07,0.12,0.15,0.23,0.24,0.34
		c-0.29,0.02-0.58,0.01-0.89-0.03c-1.96-0.24-2.96-0.02-3.24,0.7c-0.17,0.45,0,0.7,0.2,0.79c0.2,0.09,0.49,0.01,0.62-0.27
		c0.01-0.03,0.01-0.07-0.02-0.09c-0.04-0.03-0.1-0.02-0.11,0.03c-0.09,0.2-0.29,0.25-0.43,0.19c-0.1-0.04-0.18-0.15-0.18-0.32
		c0.32-0.78,1.24-0.73,2.63-0.67c0.25,0.01,0.5,0.02,0.78,0.03c0.34,0.01,0.66-0.01,0.95-0.05c0.51,0.43,1.2,0.68,2.06,0.75
		c1.12,0.09,2.27-0.17,2.72-0.32c0.04-0.01,0.06-0.05,0.05-0.09c-0.01-0.04-0.05-0.06-0.09-0.05c-0.44,0.15-1.56,0.4-2.66,0.32
		c-0.78-0.06-1.41-0.27-1.88-0.63c0.3-0.05,0.57-0.12,0.8-0.2c0.67-0.22,1.07-0.44,1.09-0.46c0.03-0.02,0.04-0.06,0.02-0.1
		c-0.02-0.03-0.06-0.04-0.09-0.03c-0.01,0.01-0.95,0.38-2.14,0.49c-0.09-0.09-0.16-0.2-0.23-0.3c0.72,0.08,1.48,0.02,2.29-0.25
		c0.1-0.03,0.38-0.1,0.34-0.18c-0.05-0.1-0.71-0.03-0.74-0.03c-0.9-0.05-1.67-0.23-2.29-0.52c-0.7-2.66,1.32-3.42,1.57-3.5
		c0.62-0.21,2.16-0.16,2.66,1.33c0.49,1.47-0.41,2.09-0.45,2.12c-0.03,0.02-0.04,0.07-0.02,0.1c0.02,0.03,0.07,0.04,0.1,0.02
		c0.01-0.01,1.04-0.7,0.51-2.29c-0.53-1.59-2.17-1.64-2.84-1.42c-0.25,0.08-2.33,0.87-1.69,3.55c-0.29-0.15-0.55-0.33-0.77-0.54
		c-0.57-0.52-0.81-1.13-0.84-1.53c-0.02-0.18,0.02-0.31,0.12-0.39c0.18-0.15,0.52-0.07,0.52-0.07c0.03,0.01,0.07-0.01,0.09-0.04
		c0.01-0.03,0-0.07-0.03-0.09c-0.17-0.11-0.4-0.15-0.59-0.08c0,0,0,0-0.01,0c-0.19,0.06-0.34,0.21-0.41,0.42
		c-0.09,0.24-0.26,1.11,1.21,2.2c0.25,0.18,0.52,0.33,0.81,0.44c0.02,0.05,0.03,0.1,0.05,0.16c0.02,0.06,0.04,0.13,0.07,0.19
		c-0.45-0.08-0.9-0.21-1.32-0.42C4.68,19.62,2.68,19.57,1.87,20.49z M8,20.78c0-0.01-0.01-0.03-0.01-0.04
		c0.67,0.24,1.36,0.32,1.78,0.34c-0.48,0.04-1.06,0.04-1.67-0.04C8.07,20.95,8.03,20.87,8,20.78z"/>
	<path class="st3" d="M11.04,20.14c-0.22,0.07-0.33,0.33-0.25,0.57c0.08,0.24,0.32,0.37,0.54,0.3c0.22-0.07,0.33-0.33,0.25-0.57
		C11.5,20.21,11.25,20.07,11.04,20.14z M11.28,20.87c-0.14,0.05-0.3-0.05-0.35-0.21s0.02-0.33,0.16-0.38
		c0.14-0.05,0.3,0.05,0.35,0.21C11.49,20.65,11.42,20.83,11.28,20.87z"/>
	<path class="st3" d="M14.14,22.61c0.22-0.07,0.33-0.33,0.25-0.57c-0.08-0.24-0.32-0.37-0.54-0.3c-0.22,0.07-0.33,0.33-0.25,0.57
		C13.68,22.55,13.92,22.68,14.14,22.61z M13.9,21.88c0.14-0.05,0.3,0.05,0.35,0.21c0.05,0.16-0.02,0.33-0.16,0.38
		c-0.14,0.05-0.3-0.05-0.35-0.21C13.69,22.1,13.76,21.93,13.9,21.88z"/>
</g>
<g>
	<path class="st3" d="M87.2,19.78c0.19,0.11,0.4,0.12,0.57,0.02c0.11-0.07,0.29-0.24,0.27-0.64c-0.01-0.25,0.07-0.44,0.21-0.51
		c0.14-0.07,0.33-0.01,0.53,0.15c0.11,0.1,0.18,0.24,0.21,0.39c0.16,0.77-0.44,1.49-1.23,1.5c-0.11,0-0.19-0.01-0.19-0.01
		c-0.04-0.01-0.08,0.02-0.08,0.06c-0.01,0.04,0.02,0.07,0.05,0.08c0,0,0.01,0,0.01,0c0.01,0,1.1,0.14,1.53-0.73
		c0,0,0.03-0.08,0.03-0.08c0.01-0.03,0.03-0.07,0.04-0.1c0.2-0.59,0.13-1.14-0.18-1.47c-0.26-0.27-0.62-0.35-0.96-0.22
		c-0.47,0.18-0.48,0.58-0.48,0.88c0,0.17,0,0.31-0.09,0.35c-0.05,0.03-0.08,0.02-0.09,0.01c-0.09-0.05-0.13-0.28-0.13-0.39
		c0-0.03-0.02-0.06-0.06-0.07c-0.03-0.01-0.07,0.01-0.08,0.04C86.97,19.23,86.88,19.6,87.2,19.78z"/>
	<path class="st3" d="M91.66,20.59c-0.42,0.21-0.87,0.34-1.32,0.42c0.02-0.06,0.05-0.12,0.07-0.19c0.02-0.05,0.03-0.11,0.05-0.16
		c0.28-0.11,0.56-0.26,0.81-0.44c1.47-1.09,1.3-1.96,1.21-2.2c-0.08-0.21-0.22-0.35-0.41-0.42c0,0,0,0-0.01,0
		c-0.2-0.06-0.42-0.03-0.59,0.08c-0.03,0.02-0.04,0.06-0.03,0.09c0.01,0.03,0.05,0.05,0.09,0.04c0,0,0.34-0.09,0.52,0.07
		c0.09,0.08,0.13,0.21,0.12,0.39c-0.03,0.4-0.27,1-0.84,1.53c-0.23,0.21-0.48,0.39-0.77,0.54c0.64-2.68-1.44-3.47-1.69-3.55
		c-0.67-0.22-2.31-0.18-2.84,1.42c-0.53,1.58,0.5,2.28,0.51,2.29c0.03,0.02,0.08,0.01,0.1-0.02c0.02-0.03,0.01-0.08-0.02-0.1
		c-0.04-0.03-0.94-0.65-0.45-2.12c0.5-1.49,2.03-1.53,2.66-1.33c0.24,0.08,2.26,0.84,1.57,3.5c-0.63,0.29-1.4,0.47-2.29,0.52
		c-0.04,0-0.7-0.07-0.74,0.03c-0.04,0.08,0.24,0.15,0.34,0.18c0.82,0.27,1.57,0.33,2.29,0.25c-0.07,0.11-0.15,0.21-0.23,0.3
		c-1.18-0.1-2.13-0.48-2.14-0.49c-0.03-0.02-0.08,0-0.09,0.03c-0.02,0.03-0.01,0.07,0.02,0.1c0.03,0.02,0.43,0.23,1.09,0.46
		c0.23,0.08,0.5,0.15,0.8,0.2c-0.47,0.36-1.1,0.57-1.88,0.63c-1.1,0.08-2.22-0.17-2.66-0.32c-0.04-0.01-0.08,0.01-0.09,0.05
		c-0.01,0.04,0.01,0.08,0.05,0.09c0.45,0.15,1.59,0.41,2.72,0.32c0.86-0.07,1.55-0.32,2.06-0.75c0.29,0.04,0.61,0.06,0.95,0.05
		c0.27-0.01,0.53-0.02,0.78-0.03c1.39-0.06,2.31-0.11,2.63,0.67c0,0.18-0.08,0.28-0.18,0.32c-0.14,0.06-0.34,0-0.43-0.19
		c-0.02-0.04-0.08-0.06-0.11-0.03c-0.03,0.02-0.03,0.06-0.02,0.09c0.13,0.27,0.41,0.35,0.62,0.27c0.2-0.08,0.37-0.34,0.2-0.79
		c-0.27-0.72-1.27-0.93-3.24-0.7c-0.3,0.04-0.6,0.04-0.89,0.03c0.09-0.11,0.17-0.22,0.24-0.34c0.75-0.1,1.47-0.33,2.18-0.55
		c0.72-0.23,1.46-0.46,2.22-0.55c0.86-0.11,1.54,0.3,1.82,0.5c0.11,0.08,0.19,0.2,0.21,0.34c0.01,0.07,0,0.14-0.02,0.2
		c-0.05,0.12-0.17,0.21-0.31,0.22c-0.11,0.01-0.2-0.03-0.25-0.11c-0.02-0.04-0.08-0.05-0.11-0.02c-0.03,0.02-0.03,0.07-0.01,0.1
		c0.08,0.12,0.22,0.19,0.38,0.18c0.2-0.01,0.37-0.13,0.44-0.31c0.04-0.1,0.07-0.3-0.07-0.57c0,0,0-0.01-0.01-0.01
		c-0.05-0.1-0.12-0.2-0.23-0.32C95.58,19.57,93.59,19.62,91.66,20.59z M90.17,21.04c-0.6,0.09-1.19,0.08-1.67,0.04
		c0.42-0.03,1.11-0.11,1.78-0.34c0,0.01-0.01,0.03-0.01,0.04C90.24,20.87,90.2,20.95,90.17,21.04z"/>
	<path class="st3" d="M86.69,20.45c-0.08,0.24,0.03,0.49,0.25,0.57c0.22,0.07,0.46-0.06,0.54-0.3c0.08-0.24-0.03-0.49-0.25-0.57
		C87.02,20.07,86.77,20.21,86.69,20.45z M86.83,20.49c0.05-0.16,0.21-0.26,0.35-0.21c0.14,0.05,0.21,0.22,0.16,0.38
		c-0.05,0.16-0.21,0.26-0.35,0.21C86.85,20.83,86.78,20.65,86.83,20.49z"/>
	<path class="st3" d="M84.67,22.31c0.08-0.24-0.03-0.49-0.25-0.57c-0.22-0.07-0.46,0.06-0.54,0.3c-0.08,0.24,0.03,0.49,0.25,0.57
		C84.34,22.68,84.59,22.55,84.67,22.31z M84.53,22.26c-0.05,0.16-0.21,0.26-0.35,0.21c-0.14-0.05-0.21-0.22-0.16-0.38
		c0.05-0.16,0.21-0.26,0.35-0.21C84.51,21.93,84.58,22.1,84.53,22.26z"/>
</g>
</svg>
