<?xml version="1.0" encoding="utf-8"?>
<!-- Generator: Adobe Illustrator 23.0.2, SVG Export Plug-In . SVG Version: 6.00 Build 0)  -->
<svg version="1.1" id="Layer_1" xmlns="http://www.w3.org/2000/svg" xmlns:xlink="http://www.w3.org/1999/xlink" x="0px" y="0px"
	 viewBox="0 0 40 27" style="enable-background:new 0 0 40 27;" xml:space="preserve">
<style type="text/css">
	.st0{fill:#B52025;}
	.st1{fill:#010101;}
</style>
<g>
	<g>
		<path class="st1" d="M38.4,12.5L26.7,0.7c-0.3-0.3-0.8-0.3-1.1,0c-0.3,0.3-0.3,0.8,0,1.1L36,12.2H1.8C1.4,12.2,1,12.6,1,13
			s0.4,0.8,0.8,0.8H36L25.6,24.2c-0.3,0.3-0.3,0.8,0,1.1c0.2,0.2,0.4,0.2,0.6,0.2c0.2,0,0.4-0.1,0.6-0.2l11.8-11.8
			C38.8,13.3,38.8,12.8,38.4,12.5z"/>
	</g>
</g>
</svg>
