<?xml version="1.0" encoding="utf-8"?>
<!-- Generator: Adobe Illustrator 23.0.2, SVG Export Plug-In . SVG Version: 6.00 Build 0)  -->
<svg version="1.1" id="Layer_1" xmlns="http://www.w3.org/2000/svg" xmlns:xlink="http://www.w3.org/1999/xlink" x="0px" y="0px"
	 viewBox="0 0 25 25" style="enable-background:new 0 0 25 25;" xml:space="preserve">
<style type="text/css">
	.st0{fill:#BC896A;}
	.st1{fill:#B6140E;}
</style>
<g>
	<g>
		<g>
			<path class="st0" d="M24.4,8.7c-0.1-0.1-0.3-0.2-0.4-0.1h-6.3V5.8c0-2.7-2.2-5-5-5s-5,2.2-5,5v2.8H1.5c-0.2,0-0.4,0-0.4,0.1
				C0.9,8.8,0.9,9,0.9,9.1l2.2,12C3.4,22.8,4.8,24,6.5,24h12.4c1.7,0,3.1-1.3,3.4-3l2.2-12C24.6,9,24.5,8.8,24.4,8.7z M8.9,5.8
				c0-2.1,1.7-3.8,3.8-3.8s3.8,1.7,3.8,3.8v2.8H8.9V5.8z M21.2,20.9C21,22,20,22.8,18.9,22.9H6.5c-1.1,0-2.1-0.8-2.3-1.9L2.2,9.7
				h21.1L21.2,20.9z"/>
			<path class="st0" d="M17.1,15.4c0.3,0,0.6-0.3,0.6-0.6v-1.8c0-0.3-0.3-0.6-0.6-0.6c-0.3,0-0.6,0.3-0.6,0.6v1.8
				C16.5,15.1,16.8,15.4,17.1,15.4z"/>
			<path class="st0" d="M8.3,15.4c0.3,0,0.6-0.3,0.6-0.6v-1.8c0-0.3-0.3-0.6-0.6-0.6s-0.6,0.3-0.6,0.6v1.8C7.7,15.1,8,15.4,8.3,15.4
				z"/>
		</g>
	</g>
</g>
</svg>
