<?xml version="1.0" encoding="utf-8"?>
<!-- Generator: Adobe Illustrator 23.0.2, SVG Export Plug-In . SVG Version: 6.00 Build 0)  -->
<svg version="1.1" id="Layer_1" xmlns="http://www.w3.org/2000/svg" xmlns:xlink="http://www.w3.org/1999/xlink" x="0px" y="0px"
	 viewBox="0 0 17 31" style="enable-background:new 0 0 17 31;" xml:space="preserve">
<style type="text/css">
	.st0{fill:#C6C5C4;}
	.st1{fill:#B12F2B;}
	.st2{fill:none;}
	.st3{fill:#C1C1C1;}
	.st4{fill:#A61E22;}
	.st5{fill:#C2C2C2;}
	.st6{fill:#A81812;}
	.st7{fill:#C79571;}
	.st8{fill:#A7C976;}
	.st9{fill:#FFFFFF;}
	.st10{fill:#EEE3D6;}
	.st11{fill:#CBCBCB;}
	.st12{fill:none;stroke:#000000;stroke-width:0.5;stroke-miterlimit:10;}
	.st13{clip-path:url(#SVGID_2_);fill:#C1C1C1;}
	.st14{clip-path:url(#SVGID_2_);fill:#A81812;}
	.st15{fill:#71D45B;}
	.st16{fill:#D1D1D1;}
</style>
<g>
	<path d="M14.5,1.2H2.7c-1.1,0-2.1,0.9-2.1,2.1V28c0,1.1,0.9,2.1,2.1,2.1h11.7c1.1,0,2.1-0.9,2.1-2.1V3.3
		C16.6,2.2,15.6,1.2,14.5,1.2z M15.8,28c0,0.7-0.6,1.3-1.3,1.3H2.7c-0.7,0-1.3-0.6-1.3-1.3V3.3C1.4,2.6,2,2,2.7,2h11.7
		c0.7,0,1.3,0.6,1.3,1.3L15.8,28L15.8,28z"/>
	<path d="M9.7,2.7H7.9c-0.2,0-0.4,0.2-0.4,0.4s0.2,0.4,0.4,0.4h1.8c0.2,0,0.4-0.2,0.4-0.4S9.9,2.7,9.7,2.7z"/>
	<path d="M9.7,27.5H7.9c-0.2,0-0.4,0.2-0.4,0.4s0.2,0.4,0.4,0.4h1.8c0.2,0,0.4-0.2,0.4-0.4S9.9,27.5,9.7,27.5z"/>
</g>
</svg>
