<?xml version="1.0" encoding="utf-8"?>
<!-- Generator: Adobe Illustrator 23.0.2, SVG Export Plug-In . SVG Version: 6.00 Build 0)  -->
<svg version="1.1" id="Layer_1" xmlns="http://www.w3.org/2000/svg" xmlns:xlink="http://www.w3.org/1999/xlink" x="0px" y="0px"
	 viewBox="0 0 70 70" style="enable-background:new 0 0 70 70;" xml:space="preserve">
<style type="text/css">
	.st0{fill:none;}
	.st1{fill:#B52025;}
</style>
<g>
	<path class="st0" d="M31.7,17.7l-7.4,1.1l5.4,5.5c0.2,0.2,0.2,0.4,0.2,0.6l-1.3,7.7l6.6-3.6c0.1-0.1,0.2-0.1,0.3-0.1
		c0.1,0,0.2,0,0.3,0.1l6.6,3.6l-1.3-7.7c0-0.2,0-0.4,0.2-0.6l5.4-5.5l-7.4-1.1c-0.2,0-0.4-0.2-0.5-0.4l-3.3-7l-3.3,7
		C32.1,17.5,31.9,17.7,31.7,17.7z"/>
	<path class="st0" d="M35.6,65c3.4-5.8,18.7-32.6,18.8-43.7c0.1-5-1.9-9.7-5.4-13.3c-3.6-3.7-8.4-5.7-13.6-5.7
		c-10.4,0-18.9,8.5-19,19C16.4,33.4,32.1,59.4,35.6,65z M22.1,18.1c0.1-0.3,0.3-0.4,0.6-0.5l8.4-1.3l3.8-8C34.9,8.1,35.2,8,35.5,8
		c0.3,0,0.5,0.2,0.6,0.4l3.8,8l8.4,1.3c0.3,0,0.5,0.2,0.6,0.5c0.1,0.3,0,0.5-0.2,0.7l-6.1,6.2l1.4,8.8c0,0.3-0.1,0.5-0.3,0.7
		c-0.1,0.1-0.3,0.1-0.4,0.1c-0.1,0-0.2,0-0.3-0.1l-7.5-4.1L28,34.6c-0.2,0.1-0.5,0.1-0.7,0c-0.2-0.2-0.3-0.4-0.3-0.7l1.4-8.8
		l-6.1-6.2C22.1,18.6,22.1,18.4,22.1,18.1z"/>
	<path class="st1" d="M25.3,49.2c3.9,7.5,7.9,14.1,9.4,16.4h1.8c1.4-2.4,5.3-9.1,9.2-16.8c6.5-12.9,9.8-22.1,9.9-27.4
		c0.1-5.3-2-10.3-5.7-14.1c-3.8-3.9-8.9-6-14.4-6c-5.4,0-10.4,2.1-14.2,5.9c-3.8,3.8-5.9,8.8-5.9,14.2
		C15.3,27.1,18.7,36.5,25.3,49.2z M35.5,2.1c5.2,0,10.1,2,13.8,5.7c3.6,3.6,5.5,8.4,5.5,13.5c-0.1,11.3-15.8,38.6-19,44l-0.1,0.2
		l-0.1-0.2c-3.2-5.2-19.4-31.7-19.3-44C16.2,10.7,24.9,2.1,35.5,2.1z"/>
	<path class="st1" d="M67.8,65.9H3.1c-0.2,0-0.4,0.2-0.4,0.4c0,0.2,0.2,0.4,0.4,0.4h64.7c0.2,0,0.4-0.2,0.4-0.4
		C68.2,66.1,68,65.9,67.8,65.9z"/>
	<path class="st1" d="M22.5,18.6l6.2,6.3l-1.5,8.9c0,0.2,0,0.3,0.2,0.4c0.1,0.1,0.3,0.1,0.4,0l7.6-4.2l7.6,4.2
		c0.1,0.1,0.3,0.1,0.4,0c0.1-0.1,0.2-0.3,0.2-0.4L42.2,25l6.2-6.3c0.1-0.1,0.1-0.3,0.1-0.4c-0.1-0.2-0.2-0.3-0.3-0.3l-8.5-1.3
		l-3.8-8.1c-0.1-0.1-0.2-0.2-0.4-0.2c-0.2,0-0.3,0.1-0.4,0.2l-3.8,8.1l-8.5,1.3c-0.2,0-0.3,0.1-0.3,0.3
		C22.4,18.4,22.4,18.5,22.5,18.6z M31.6,17.4c0.1,0,0.3-0.1,0.3-0.2l3.5-7.5l3.5,7.5c0.1,0.1,0.2,0.2,0.3,0.2l7.9,1.2l-5.8,5.9
		c-0.1,0.1-0.1,0.2-0.1,0.4l1.4,8.3l-7.1-3.9c-0.1-0.1-0.3-0.1-0.4,0l-7.1,3.9l1.4-8.3c0-0.1,0-0.3-0.1-0.4l-5.8-5.9L31.6,17.4z"/>
</g>
</svg>
