<?xml version="1.0" encoding="utf-8"?>
<!-- Generator: Adobe Illustrator 23.0.2, SVG Export Plug-In . SVG Version: 6.00 Build 0)  -->
<svg version="1.1" id="Layer_1" xmlns="http://www.w3.org/2000/svg" xmlns:xlink="http://www.w3.org/1999/xlink" x="0px" y="0px"
	 viewBox="0 0 70 70" style="enable-background:new 0 0 70 70;" xml:space="preserve">
<style type="text/css">
	.st0{fill:none;}
	.st1{fill:#B52025;}
</style>
<g>
	<path class="st0" d="M24.2,12.2c-1.2-1.8-2.3-3.7-3-5.5l-0.8,0.2c0.9,1.7,2.1,3.3,3.3,4.8C23.9,11.9,24,12,24.2,12.2z"/>
	<path class="st0" d="M37.5,22.1c2.7-5.2,8.9-9.7,11.3-11.4l0,0l-0.3-0.3L47.6,11c-2.2,1.4-6.6,4.4-9.6,9.5l0,0.1
		c-1.1,1.9-1.8,4-2.3,6.1C36,25.4,36.6,23.8,37.5,22.1z"/>
	<path class="st0" d="M35.2,32.6c0,0,0-0.1,0-0.1c0,0,0-0.1,0-0.1C35.1,32.5,35.2,32.5,35.2,32.6z"/>
	<polygon class="st0" points="64.5,39.8 64.5,39.8 64.5,39.8 	"/>
	<path class="st0" d="M33.9,37.3c-0.1,0.3-0.3,0.5-0.5,0.8l0.1,0.6c0.2,0,0.5,0,0.7,0C34.2,38.3,34,37.8,33.9,37.3z"/>
	<path class="st0" d="M38.4,25.2c1.4-3,5-7.7,6.4-9.1c-3.2,2.9-4.9,5.2-5.7,6.8c-0.4,0.8-0.8,1.6-1.1,2.4
		C38.1,25.3,38.3,25.3,38.4,25.2z"/>
	<path class="st0" d="M29,25.6C29,25.6,29,25.6,29,25.6c0.6-0.3,1.1-0.5,1.7-0.4c-1.3-2.2-2.7-4.5-4.1-6.6c0.4,0.8,0.7,1.7,0.9,2.7
		L29,25.6z"/>
	<path class="st1" d="M68.5,34.1c-0.2-0.3-0.5-0.5-0.9-0.5l0,0l0,0c-0.9-0.1-1.8-0.2-2.6-0.4c-3-0.6-7.5-1.5-11-0.2
		c-3.6,1.4-8.7,4.2-14.7,8.1c-0.3,0.2-0.4,0.3-0.4,0.3c0,0,0,0,0,0c0,0-0.1,0.1-0.1,0.1l-0.5,0.4v-1l0.3-0.1c0,0,0,0,0,0
		c0.1-0.1,0.3-0.2,0.4-0.3c0.8-0.5,2.9-2.1,8.3-6.4l0.1,0c1.3-1,5.6-4.3,7.1-5.1c1.3-0.7,5.2-3.8,3.8-15.4c0-0.1-0.1-0.2-0.2-0.2
		c-0.1,0-7.4-1.3-11.9,2.6l-0.2,0.2c-0.1,0.1-0.3,0.3-0.4,0.4c-1.3,1.3-5.1,6.1-6.4,9.1l-0.1,0.2l-0.2,0c-0.3,0-0.5,0.1-0.8,0.3
		c-0.1,0.1-0.2,0.1-0.3,0.2l-1,0.8L37,26c0.4-1.2,0.9-2.3,1.4-3.3c1.9-3.5,5.6-7.2,11.2-11.2c0.4-0.3,0.5-0.9,0.2-1.3
		c0,0-0.1-0.1-0.1-0.1l-0.6-0.6c-0.3-0.3-0.8-0.4-1.2-0.1c-0.2,0.1-0.5,0.4-0.9,0.6c-3.5,2.2-6.5,4.9-8.9,8.2l-0.6,0.8l0-1
		c-0.2-4.1-1.5-8-3.9-11.3c-0.1-0.2-0.3-0.3-0.5-0.3c-0.2,0-0.4,0-0.6,0.1c-0.1,0-0.1,0.1-0.1,0.1l-1,1.2c-0.1,0.2-0.2,0.4-0.2,0.6
		c0,0.2,0.1,0.4,0.3,0.5c1.4,1.1,4.7,6.6,4.2,13.9l0,0.1c-0.3,0.8-0.6,1.7-0.8,2.5l-0.2,0.8l-0.7-1.1c-1.1-1.9-3-5-4.5-7.4
		c-0.6-1-1.4-2.2-2.3-3.5L27,14.4c-1.8-2.6-3.8-5.6-4.8-8.3c-0.2-0.4-0.6-0.7-1.1-0.6l-1.3,0.3c-0.2,0.1-0.4,0.2-0.5,0.4
		c-0.1,0.2-0.1,0.4-0.1,0.7c0,0.1,0,0.1,0.1,0.2c1,1.9,2.2,3.6,3.6,5.3c1.4,1.5,5.8,7.9,8.8,13.3l0.3,0.6L32,26l1.3,2.7
		c0.3,0.6,0.5,1.1,0.7,1.5l0,0.1l0,0.1c0,1.1,0,2.2,0.1,3.3l-0.1,0l0.4,2.1c0.2,1.2,0.4,2.2,0.7,3.2l0.1,0.5l-0.5,0
		c-0.5,0-0.9,0-1.4,0.1L33,39.6l-0.4-1.8l0.2-0.1c0,0,0,0,0,0c0.4-0.5,0.7-1.1,0.8-1.8l0.3-2.1l-0.5,0.1c-0.1-0.6-0.2-1.3-0.3-2.1
		l0-0.1c-0.1-0.9-0.2-1.8-0.4-2.6l-0.5-2.2l-1-0.6c-0.5-0.3-1.2-0.3-1.8,0c-0.1,0.1-0.2,0.2-0.3,0.3L28.7,27l-1.9-5.4
		c-2.2-9.7-13.7-8.2-15-8c-0.1,0-0.2,0.1-0.2,0.2c-1.4,11.3,2.2,14.5,3.9,15.4c1.7,0.9,8.6,6.8,8.7,6.8l4.2,3.1L28,39.7
		c-2.5-1.6-10.8-6.9-14.8-7.5c-2.7-0.3-5.4-0.1-8.1,0.7c-0.8,0.2-1.7,0.4-2.6,0.5c-0.4,0-0.8,0.1-1,0.5c-0.4,0.8,0.6,2.5,2.8,5.4
		c0.2,0.3,0.4,0.5,0.7,0.9c1.6,2.2,4.1,5.6,10.1,5.6c0.7,0,1.4,0,2.1-0.1c1.3-0.1,2.4-0.3,3.4-0.4L22,45c1.2-0.2,2.2-0.3,3.1-0.3
		l0.1,0.7c-3.1,0.4-5.3,1.1-6.5,1.9c-1.2,0.7-2.4,1.3-3.7,1.7c-1.4,0.5-2.6,0.9-3.5,2.2c-0.4,0.6-0.4,1.4-0.1,2.1
		c0.9,2.3,4.6,4.7,8.1,5.4c0.2,0,0.4,0.1,0.6,0.1c0,0,0,0,0.1,0c3.7,0,8.9-5,11.6-7.9l0.6-0.6l0.4,15.6c0,0,0,0.1,0.1,0.1
		c0.4,0.5,1,0.8,1.7,0.9l0.1,0c0.5-0.1,0.9-0.4,1.2-0.8c0-0.1,0-0.1,0-0.1l0.9-15.9l0.6,0.6c2.3,2.5,8,8.4,11.9,8.4
		c0.2,0,0.4,0,0.6-0.1c3.5-0.7,7.2-3.1,8.1-5.3c0.3-0.7,0.3-1.5-0.1-2.1c-0.9-1.3-2.1-1.7-3.5-2.2c-1.3-0.4-2.6-1-3.7-1.7
		c-1.4-0.8-3-1.3-4.6-1.6l0.1-0.7l0.9,0.1c1.4,0.2,3.2,0.5,5.6,0.7c0.7,0.1,1.4,0.1,2.1,0.1c6.2,0,8.8-3.4,10.6-5.7l0-0.1
		c0.2-0.2,0.4-0.5,0.5-0.7C68.6,35.9,68.7,34.7,68.5,34.1z M39.5,25.6c1.7-3.1,3.8-6.1,6.2-8.7l0,0c0.1-0.1,0.2-0.2,0.4-0.4l0.1-0.1
		c3.8-3.3,9.6-2.9,11.2-2.7l0.3,0l0,0.3c1.2,11-2.5,14-3.7,14.6c-1,0.5-3.6,2.4-7.1,5.1l-0.1,0.1c-6.1,5-8.3,6.5-8.6,6.6
		c0,0-0.1,0.1-0.1,0.1l-0.2,0.5l-0.7-0.6c-0.2-0.2-0.4-0.3-0.7-0.5l-0.2-0.1l0.4-2l0.2-0.1c0.1,0,0.3-0.1,0.4-0.2
		c1.4-0.9,2.9-4.5,3.1-7.3c0.2-2.3-0.1-3.7-0.8-4.2l-0.3-0.2L39.5,25.6z M38.1,26.5c0.6-0.3,1-0.3,1.3-0.1c0.4,0.3,0.9,1.2,0.6,3.8
		c-0.3,3.3-2.2,7.1-3.2,7.2l-0.2,0l-0.2-0.1c-0.7-0.8-0.9-2-0.6-3c0.2-0.8,0.4-1.7,0.5-2.6C36.7,29.1,37.1,27,38.1,26.5z M31.6,8.8
		L31.6,8.8l-0.2-0.3l0.1-0.3l1-1.3l0.2-0.1l0.1,0c0,0,0,0,0,0C32.9,7,33,7,33,7l0.1,0l0.1,0.1c2.7,3.7,4.1,8.3,3.8,12.8l0,0.2
		L36,21.7L36,20.5C35.7,14.4,33,9.9,31.6,8.8z M34.4,27.2c-0.1,0.3-0.1,0.6-0.1,0.9L34,29.2l-0.5-1c-2.7-5.4-8.6-14.2-10.3-16.1
		c-1.4-1.6-2.5-3.4-3.5-5.2l0,0c-0.1-0.1-0.1-0.3,0-0.4c0-0.1,0.2-0.2,0.3-0.3L21.2,6c0.3-0.1,0.5,0.1,0.6,0.3c1,2.6,2.9,5.5,4.6,8
		l0.2,0.4c0.9,1.2,1.7,2.4,2.3,3.4c1.8,3,4.3,7.1,5.2,8.5l0.3,0.4L34.4,27.2z M35.2,37.6l0,0.2L35,36.9l-0.6-2.7l0.2,0.4
		c-0.7-4.9,0.3-9.9,2.6-14.2v0l0-0.1c2.7-4.8,6.7-7.7,9.1-9.3l0.9-0.6c0.3-0.2,0.6-0.4,0.8-0.6c0.2-0.2,0.5-0.2,0.7,0l0.6,0.6
		c0.1,0.1,0.2,0.3,0.2,0.4c0,0.2-0.1,0.3-0.2,0.4l-0.2,0.2c-2.3,1.7-8.4,6.2-11,11.2c-2.9,5.5-2.4,9.3-2.2,10l0,0.1l0,0.1
		c-0.1,0.6-0.2,1.1-0.3,1.7c-0.1,0.3-0.1,0.5-0.2,0.8l-0.1,1l0.4,0.9c0.1,0.3,0.3,0.6,0.5,0.8l0.2,0.2l0,0l0,0.1L36.4,38l-0.5,2.3
		l-0.4-1.4C35.4,38.5,35.2,38.1,35.2,37.6z M33.3,43.8c0,0.1,0.1,0.2,0.2,0.2h0.1c0,0,0.1-0.1,0.1-0.2L33,40l0.3-0.1
		c0.6-0.1,1.2-0.1,1.7,0l0.2,0l0.1,0.4c0,0.1,0.1,0.2,0.1,0.3c0,0,0,0.1,0,0.1l0.1,0.1L35.1,44c0,0.1,0,0.2,0.1,0.2h0.1
		c0.1,0,0.2-0.1,0.2-0.2l0.8-3.8l0.4,0.3c0.1,0.1,0.2,0.2,0.3,0.2c0.6,0.4,1,1,1.1,1.8l0,0l0,0c-0.1,0.8-0.5,1.6-1.1,2.1
		c0,0,0,0,0,0.1c0,0.1-0.1,0.1-0.1,0.1l-0.1,0.1c-0.7,0.4-1.4,0.6-2.1,0.7l-0.1,0l-0.1,0c-0.8-0.1-1.5-0.4-2.1-0.7L32.3,45l-0.2-0.2
		c0,0,0,0,0-0.1c0,0-1.7-1.6-1.5-3c0.1-0.6,0.6-1,1.4-1.4l0.7-0.3L33.3,43.8z M29.7,26.5l0.6-0.4v0.3c0.3,0,0.6,0.1,0.8,0.2
		c1,0.5,1.3,2.5,1.7,5.1c0.1,1,0.2,1.9,0.5,2.7c0.3,1,0.1,2.1-0.6,3c0,0-0.1,0.1-0.1,0.1l-0.1,0.3l-0.3-0.1c-0.1,0-0.2-0.1-0.2-0.1
		c-1.2-0.8-2.6-4.4-2.8-7.2C28.9,28.2,29.1,26.9,29.7,26.5z M24.5,35.7c-0.3-0.2-7.1-5.9-8.8-6.9c-1.2-0.6-4.9-3.6-3.7-14.6l0-0.3
		l0.3,0c2-0.3,12.1-1.1,14.1,7.7l0,0.1l2.1,6.2l0,0.1c-0.1,0.8-0.1,1.6,0,2.4c0.2,3,1.7,6.7,3,7.6c0.1,0.1,0.3,0.1,0.4,0.2l0.2,0.1
		l0.3,1.6l-0.3,0.1c-0.2,0.1-0.3,0.1-0.5,0.2c-0.3,0.1-0.5,0.2-0.7,0.4l-0.5,0.3l-0.1-0.5c0,0,0-0.1-0.1-0.1L24.5,35.7z M21.6,44.7
		c-1.2,0.2-2.6,0.3-4.3,0.5c-0.7,0.1-1.4,0.1-2.1,0.1c-5.8,0-8.1-3.1-9.8-5.4l-0.1-0.1C5.2,39.6,5,39.3,4.7,39
		c-2.9-3.6-2.9-4.7-2.8-4.9L2,34l0.1-0.1c0.1-0.1,0.3-0.1,0.4-0.1c0.8-0.1,1.7-0.2,2.6-0.5c2.6-0.8,5.3-1,8-0.7
		c5,0.7,16.8,8.7,16.9,8.8l0.2,0.1l0,0.2c0,0.8,0.2,1.6,0.7,2.2l0.6,0.7l-0.9-0.2C27.3,44,25.7,44.2,21.6,44.7z M36.2,49.8
		C36.2,49.9,36.2,49.9,36.2,49.8l-0.1,0.1l-0.8,15.6l0,0.1c-0.2,0.3-0.5,0.5-0.8,0.6l0,0l0,0c-0.5,0-0.9-0.2-1.2-0.6l-0.1-0.1
		L32.6,50l-0.1-0.2l0.1-0.2c0.8-0.9,1.3-1.5,1.4-1.7c0.1-0.1,0.2-0.2,0.3-0.3l0.2-0.1l0.2,0.1c0.1,0.1,0.2,0.2,0.3,0.3
		c0.1,0.1,0.4,0.5,0.9,1.1l0.6,0.7L36.2,49.8z M50.1,47.6c1.2,0.8,2.5,1.4,3.9,1.8l0,0c1.4,0.5,2.5,0.8,3.3,2.1
		c0.3,0.5,0.3,1.2,0,1.7c-0.9,2.1-4.4,4.4-7.7,5.1c-4.3,0.8-12.9-8.6-14.2-10.6c-0.2-0.3-0.5-0.5-0.8-0.5l-0.1,0
		c-0.3,0-0.6,0.2-0.8,0.5c-1.3,1.9-9.2,10.6-13.7,10.6c-0.2,0-0.4,0-0.6-0.1c-3.3-0.6-6.9-3-7.8-5.1c-0.3-0.5-0.3-1.1,0-1.7
		c0.8-1.2,1.9-1.6,3.3-2.1c1.4-0.4,2.6-1,3.8-1.8c2.7-1.8,10.5-2.3,12.8-2.4l0.1,0l0.3,0.2c0.7,0.4,1.6,0.7,2.5,0.8l0.1,0
		c0.8-0.1,1.7-0.4,2.4-0.9l0.3-0.1l0.1,0C38.3,45.3,47.1,45.6,50.1,47.6z M65.3,39.3c-0.2,0.2-0.3,0.4-0.5,0.6l-0.3-0.2c0,0,0,0,0,0
		l0.3,0.2c-1.7,2.3-4.3,5.6-10.3,5.6c-0.6,0-1.3,0-2-0.1c-1.7-0.2-3.2-0.4-4.5-0.6l-1.1-0.1c-3.5-0.5-5.4-0.8-8.4-0.3l-0.7,0.1
		l0.4-0.6c0.2-0.4,0.3-0.9,0.3-1.3c0-0.1,0-0.2,0-0.3l0-0.2l0.2-0.1c1-0.6,9.5-6.2,15.4-8.6c3.4-1.3,7.8-0.4,10.8,0.2
		c0.9,0.2,1.8,0.4,2.7,0.4c0.1,0,0.2,0,0.3,0l0.5,0.1l-0.2,0.4C68.1,35.6,66.6,37.7,65.3,39.3L65.3,39.3z"/>
</g>
</svg>
