<?xml version="1.0" encoding="utf-8"?>
<!-- Generator: Adobe Illustrator 23.0.2, SVG Export Plug-In . SVG Version: 6.00 Build 0)  -->
<svg version="1.1" id="Layer_1" xmlns="http://www.w3.org/2000/svg" xmlns:xlink="http://www.w3.org/1999/xlink" x="0px" y="0px"
	 viewBox="0 0 70 70" style="enable-background:new 0 0 70 70;" xml:space="preserve">
<style type="text/css">
	.st0{fill:none;}
	.st1{fill:#B52025;}
</style>
<g>
	<path class="st0" d="M66.9,25.8c0-4.9-1.9-9.5-5.4-13c-3.5-3.5-8.1-5.4-13-5.4c-4.9,0-9.5,1.9-13,5.4L20.1,28.1
		c-0.1,0.1,0,0.4,0.3,0.9c0.6,0.6,1.5,1.1,2.5,1.2h0.3c1.6,0.2,2.9-0.3,4.1-1.5l6.6-6.6c0.3-0.3,0.7-0.5,1.2-0.6
		c0.5,0,1.1,0.2,1.5,0.6c2,2,4.2,3.3,6.1,3.6c1.9,0.3,3.5-0.4,5.1-1.9c0.8-0.8,1.9-0.8,2.7,0c0.8,0.8,0.8,1.9,0,2.7
		c-2.5,2.4-5.3,3.4-8.3,3c-2.3-0.3-4.6-1.4-6.9-3.3L30,31.4c-1.7,1.7-3.9,2.6-6.2,2.6c0,0,0,0,0,0l-8.2,8.5c-0.9,0.9-1,2.3-0.1,3.2
		l0.4,0.4c0.9,0.6,2.1,0.5,2.9-0.3L31,33.5c0.8-0.8,1.9-0.8,2.7,0c0.4,0.4,0.6,0.8,0.6,1.4c0,0.5-0.2,1-0.6,1.4L21.4,48.5
		c-0.5,0.5-0.7,1-0.7,1.6c0,0.6,0.2,1.2,0.7,1.7c0.5,0.6,1.2,0.7,1.6,0.7c0.6,0,1.2-0.2,1.6-0.7L37,39.5c0.7-0.7,2-0.7,2.7,0
		c0.4,0.4,0.6,0.8,0.6,1.4c0,0.5-0.2,1-0.6,1.4L27.4,54.5c-0.6,0.5-0.7,1.2-0.7,1.6c0,0.6,0.2,1.2,0.7,1.6c0.9,0.9,2.4,0.9,3.3,0
		L43,45.4c0.4-0.4,0.9-0.6,1.4-0.6c0.5,0,1,0.2,1.4,0.6c0.4,0.4,0.6,0.8,0.6,1.4s-0.2,1-0.6,1.4L33.4,60.4c-0.6,0.5-0.7,1.2-0.7,1.6
		c0,0.6,0.2,1.2,0.7,1.7c0.9,0.9,2.3,0.9,3.3,0l24.9-24.9C65,35.3,66.9,30.7,66.9,25.8z"/>
	<path class="st0" d="M19.5,32.9c-0.6-0.3-1.2-0.8-1.7-1.2c-2-2-2.2-4.5-0.4-6.3c3.8-3.8,12.2-12.2,14.7-14.6
		c-3.2-2.2-6.8-3.4-10.6-3.4c-4.9,0-9.5,1.9-13,5.4c-3.5,3.5-5.4,8.1-5.4,13c0,5,1.9,9.6,5.4,13.1l0.1,0.1l2.8,2.8
		c0.3-0.7,0.8-1.4,1.3-1.9L19.5,32.9z"/>
	<path class="st1" d="M48.5,5.1c-4.8,0-9.3,1.6-13.1,4.6L35,10.1l-0.5-0.4c-3.8-3-8.3-4.6-13.1-4.6c-5.5,0-10.7,2.1-14.6,6
		C2.9,15,0.7,20.2,0.7,25.7c0,5.5,2.1,10.7,6,14.6l6.9,6.9c1.1,1.1,2.4,1.3,3.3,1.3c0.1,0,0.3,0,0.3,0l1.2-0.6l-0.2,1.4
		c-0.1,1.5,0.3,2.9,1.3,3.8c0.8,0.8,2,1.3,3.2,1.3c0.1,0,0.3,0,0.3,0l1.1-0.6l0,1.3c0,0.2,0,0.3-0.1,0.5c0,0,0,0.1,0,0.1
		c0,1.3,0.5,2.4,1.4,3.2c0.9,0.9,2,1.3,3.2,1.3c0.1,0,0.3,0,0.3,0l1.1-0.6l0,1.3c0,0.2,0,0.3-0.1,0.5c0,0,0,0.1,0,0.1
		c0,1.3,0.5,2.4,1.4,3.3c1.1,1.1,2.4,1.3,3.3,1.3c1.2,0,2.4-0.5,3.3-1.3l24.9-24.9c3.9-3.9,6-9.1,6-14.6c0.1-5.2-2-10.5-5.9-14.4
		C59.2,7.2,54,5.1,48.5,5.1z M12.3,44.7l-4.8-4.8c-3.8-3.8-5.8-8.8-5.8-14.2c0-5.3,2.1-10.3,5.8-14.1c3.8-3.8,8.8-5.8,14.1-5.8
		c4.4,0,8.7,1.5,12.3,4.2l0.7,0.6l-0.7,0.6C32.9,12,21.9,23,18.5,26.4c-1.2,1.2-1,2.7,0.4,4.1c0.6,0.6,1.3,1,2.2,1.4l1.1,0.4
		l-8.5,8.5c-0.6,0.6-1.1,1.6-1.2,2.4L12.3,44.7z M62.6,39.9L37.7,64.8c-0.8,0.8-1.8,1.2-2.7,1.2c-1,0-2-0.4-2.7-1.2
		c-0.7-0.8-1.1-1.8-1.1-2.8c0-1.1,0.4-2.1,1.2-2.7L44.6,47c0.2-0.2,0.2-0.4,0-0.5c-0.2-0.2-0.4-0.2-0.5,0L31.7,58.8
		c-1.5,1.5-3.9,1.5-5.5,0c-0.7-0.7-1.1-1.7-1.1-2.7c0-1.1,0.4-2.1,1.2-2.7l12.3-12.3c0.1-0.1,0.1-0.2,0.1-0.3s0-0.2-0.1-0.3
		c-0.2-0.2-0.4-0.2-0.5,0L25.7,52.9C25,53.6,24,54,23,54c-1.1,0-2.1-0.4-2.7-1.2c-0.7-0.7-1.1-1.7-1.1-2.7c0-1,0.4-2,1.1-2.7
		l12.3-12.3c0.2-0.2,0.2-0.4,0-0.5c-0.2-0.2-0.4-0.2-0.5,0L19.8,46.9c-1.5,1.5-3.9,1.5-5.5,0L13,45.6h0.5c-0.6-1.4-0.3-3,0.9-4.2
		l8.7-8.9l0.3,0c1.4,0.1,3.5-0.3,5.4-2.2l6.4-6.4l0.5,0.5c2.2,2,4.5,3.1,6.6,3.4c2.6,0.3,4.9-0.5,7.1-2.6c0.1-0.1,0.1-0.2,0.1-0.3
		s0-0.2-0.1-0.3c-0.2-0.2-0.4-0.2-0.5,0c-1.9,1.9-4.1,2.7-6.4,2.4c-2.3-0.3-4.7-1.8-7-4c-0.1-0.1-0.2-0.1-0.3-0.1c0,0-0.1,0-0.2,0.1
		l-6.7,6.7c-1.5,1.5-3.2,2.1-5.2,1.9l-0.3,0l0,0c-1.3-0.2-2.5-0.8-3.5-1.7c-1.4-1.6-0.7-2.6-0.3-3l15.3-15.3
		c3.8-3.8,8.8-5.8,14.1-5.8c5.3,0,10.3,2.1,14.1,5.8c3.8,3.8,5.8,8.8,5.8,14.1C68.5,31.1,66.4,36.1,62.6,39.9z"/>
</g>
</svg>
