<?xml version="1.0" encoding="utf-8"?>
<!-- Generator: Adobe Illustrator 23.0.2, SVG Export Plug-In . SVG Version: 6.00 Build 0)  -->
<svg version="1.1" id="Layer_1" xmlns="http://www.w3.org/2000/svg" xmlns:xlink="http://www.w3.org/1999/xlink" x="0px" y="0px"
	 viewBox="0 0 80 76" style="enable-background:new 0 0 80 76;" xml:space="preserve">
<style type="text/css">
	.st0{fill:#C4A187;}
	.st1{fill:#BE977B;}
	.st2{fill:#C4A187;stroke:#BE977B;stroke-width:0.5;stroke-miterlimit:10;}
</style>
<g>
	<path class="st1" d="M33.6,34.4c2.5,15.5-10.3,20.7-19.2,20.7c-8,0-12.2-4.3-12.7-5.2c-0.4-0.8-0.7-2.2-0.1-3.1
		c0.8-1.3,2.5-1.7,3.9-0.9c1.3,0.8,1.6,2.6,0.8,3.9c-0.4,0.7-1.2,1-1.9,1c-0.8,0.1,3.1,3.5,10,3.5c8.5,0,18.7-7,15-19.2
		C26.6,26.3,16.1,23,1.8,27.6L5.2,1.7h25.9l-0.7,4H5.8L3.3,23.3C18.3,18.2,31.8,24,33.6,34.4z"/>
	<path class="st1" d="M78.6,28.5c0,10.8-2.9,26.6-19.4,26.6c-16.5,0-19.5-15.8-19.5-26.6C39.8,17.6,42.7,1,59.3,1
		C75.7,1,78.6,17.6,78.6,28.5z M74.3,28.5c0-21.6-8.6-26.8-15-26.8c-6.7,0-15.1,5.2-15.1,26.8c0,21.5,8.5,25.9,15.1,25.9
		C66.1,54.4,74.3,50,74.3,28.5z"/>
</g>
<g>
	<path class="st1" d="M28.3,62.6v0.3c-0.2,0.1-0.5,0.3-0.8,0.6c-0.3,0.3-0.5,0.7-0.9,1.3l-3.2,6.2h-0.8l-3.9-7.2
		c-0.2-0.4-0.4-0.6-0.5-0.8c-0.2-0.1-0.3-0.2-0.4-0.2v-0.4c0.3,0,0.6,0.1,0.9,0.1c0.3,0,0.7,0,1,0c0.5,0,1,0,1.6,0
		c0.6,0,1.1,0,1.6-0.1v0.4c-0.3,0-0.5,0-0.8,0.1c-0.2,0-0.4,0.1-0.5,0.2c-0.1,0.1-0.1,0.3,0.1,0.6l2.6,5.1L24,69.5l1.7-3.5
		c0.4-0.8,0.6-1.4,0.7-1.9c0-0.5-0.1-0.8-0.3-1c-0.3-0.2-0.6-0.3-1.1-0.3v-0.3c0.4,0,0.7,0,1.1,0c0.3,0,0.7,0,1,0c0.2,0,0.5,0,0.7,0
		C28,62.6,28.2,62.6,28.3,62.6z M24.8,68.5v4.2c0,0.4,0,0.7,0.1,0.9c0.1,0.2,0.2,0.3,0.4,0.4c0.2,0.1,0.4,0.1,0.8,0.1v0.3
		c-0.3,0-0.7,0-1.2,0c-0.5,0-0.9,0-1.4,0c-0.5,0-1,0-1.5,0c-0.5,0-0.8,0-1.1,0v-0.3c0.4,0,0.6-0.1,0.8-0.1c0.2-0.1,0.3-0.2,0.4-0.4
		c0.1-0.2,0.1-0.5,0.1-0.9v-3.4l1.5,1L24.8,68.5z"/>
	<path class="st1" d="M31.8,65.6c1,0,1.7,0.3,2.3,0.9c0.6,0.6,0.8,1.5,0.8,2.8h-5.5l0-0.3h3.4c0-0.5,0-1-0.1-1.5
		c-0.1-0.5-0.2-0.8-0.4-1.1c-0.2-0.3-0.4-0.4-0.7-0.4c-0.4,0-0.7,0.2-1,0.7c-0.3,0.5-0.4,1.3-0.5,2.4l0.1,0.1c0,0.1,0,0.3,0,0.4
		c0,0.1,0,0.3,0,0.5c0,0.8,0.1,1.4,0.3,1.9c0.2,0.5,0.5,0.8,0.8,1c0.3,0.2,0.7,0.3,1,0.3c0.3,0,0.7-0.1,1.1-0.3
		c0.4-0.2,0.8-0.5,1.1-1.1l0.3,0.1c-0.1,0.4-0.3,0.8-0.6,1.2c-0.3,0.4-0.7,0.7-1.1,1s-1,0.4-1.6,0.4c-0.8,0-1.4-0.2-2-0.5
		c-0.6-0.3-1-0.8-1.4-1.5c-0.3-0.7-0.5-1.5-0.5-2.5c0-1,0.2-1.9,0.5-2.6c0.4-0.7,0.8-1.2,1.5-1.5C30.3,65.7,31,65.6,31.8,65.6z"/>
	<path class="st1" d="M38.1,74.5c-0.7,0-1.3-0.2-1.6-0.6c-0.3-0.4-0.5-0.9-0.5-1.4c0-0.5,0.1-0.9,0.3-1.2c0.2-0.3,0.5-0.5,0.8-0.7
		c0.3-0.2,0.7-0.4,1.1-0.5c0.4-0.1,0.8-0.3,1.1-0.4c0.4-0.1,0.6-0.3,0.9-0.4c0.2-0.2,0.3-0.4,0.3-0.6v-1.3c0-0.3,0-0.5-0.1-0.8
		c-0.1-0.2-0.2-0.4-0.4-0.5c-0.2-0.1-0.4-0.2-0.8-0.2c-0.2,0-0.4,0-0.7,0.1c-0.2,0.1-0.4,0.2-0.6,0.3c0.3,0.1,0.6,0.3,0.7,0.5
		c0.2,0.2,0.3,0.5,0.3,0.8c0,0.4-0.1,0.7-0.4,0.9c-0.3,0.2-0.6,0.3-0.9,0.3c-0.4,0-0.7-0.1-0.9-0.4c-0.2-0.3-0.3-0.6-0.3-0.9
		c0-0.3,0.1-0.6,0.2-0.8c0.2-0.2,0.4-0.4,0.7-0.6c0.3-0.2,0.7-0.3,1.1-0.4c0.4-0.1,0.9-0.2,1.4-0.2c0.5,0,1,0.1,1.4,0.2
		c0.4,0.1,0.8,0.3,1,0.6c0.3,0.3,0.4,0.6,0.5,0.9c0.1,0.4,0.1,0.8,0.1,1.4v4.5c0,0.3,0,0.5,0.1,0.6c0.1,0.1,0.2,0.2,0.3,0.2
		c0.1,0,0.2,0,0.3-0.1s0.2-0.1,0.3-0.2l0.2,0.3c-0.2,0.2-0.5,0.4-0.8,0.5c-0.3,0.1-0.6,0.2-1,0.2c-0.7,0-1.1-0.1-1.3-0.4
		c-0.2-0.3-0.3-0.6-0.3-0.9c-0.3,0.5-0.6,0.8-1,1C39.1,74.4,38.7,74.5,38.1,74.5z M39.4,73.5c0.2,0,0.4-0.1,0.6-0.2
		c0.2-0.1,0.4-0.3,0.5-0.5v-3.4c-0.1,0.2-0.3,0.4-0.6,0.6c-0.2,0.2-0.5,0.3-0.7,0.5c-0.3,0.2-0.5,0.4-0.6,0.7
		c-0.2,0.3-0.3,0.6-0.3,1.1c0,0.5,0.1,0.8,0.3,1S39.1,73.5,39.4,73.5z"/>
	<path class="st1" d="M50.3,65.6c0.4,0,0.6,0.1,0.9,0.2c0.2,0.2,0.4,0.3,0.5,0.6c0.1,0.2,0.2,0.5,0.2,0.7c0,0.4-0.1,0.7-0.4,1
		s-0.6,0.4-0.9,0.4c-0.4,0-0.7-0.1-0.9-0.3c-0.2-0.2-0.3-0.5-0.3-0.8c0-0.3,0.1-0.6,0.2-0.8c0.1-0.2,0.3-0.4,0.5-0.5
		c-0.2,0-0.3,0-0.5,0c-0.3,0-0.5,0.2-0.8,0.4c-0.2,0.2-0.4,0.5-0.5,0.8C48.1,67.7,48,68,48,68.3v4.4c0,0.5,0.1,0.9,0.4,1.1
		c0.3,0.2,0.7,0.3,1.2,0.3v0.4c-0.3,0-0.6,0-1.1,0c-0.5,0-1,0-1.5,0c-0.4,0-0.9,0-1.4,0c-0.5,0-0.8,0-1,0v-0.4
		c0.4,0,0.7-0.1,0.8-0.3c0.2-0.2,0.2-0.5,0.2-1v-5.3c0-0.5-0.1-0.9-0.2-1.1c-0.2-0.2-0.4-0.4-0.8-0.4v-0.4c0.4,0,0.7,0.1,1,0.1
		c0.5,0,0.9,0,1.3-0.1c0.4,0,0.8-0.1,1.1-0.2v1.6c0.1-0.3,0.3-0.6,0.5-0.8c0.2-0.2,0.5-0.4,0.8-0.6C49.6,65.6,49.9,65.6,50.3,65.6z"
		/>
	<path class="st1" d="M55.7,65.6c0.5,0,0.9,0.1,1.2,0.2c0.4,0.1,0.6,0.2,0.8,0.3c0.4,0.3,0.6,0.1,0.7-0.5h0.4c0,0.3,0,0.7-0.1,1.1
		c0,0.5,0,1,0,1.8h-0.4c-0.1-0.4-0.2-0.8-0.3-1.2c-0.2-0.4-0.4-0.7-0.7-1c-0.3-0.3-0.7-0.4-1.1-0.4c-0.3,0-0.6,0.1-0.8,0.3
		C55.1,66.4,55,66.6,55,67c0,0.3,0.1,0.6,0.3,0.9c0.2,0.3,0.5,0.5,0.8,0.7c0.3,0.2,0.6,0.5,1,0.7c0.6,0.4,1,0.8,1.4,1.2
		c0.4,0.4,0.6,1,0.6,1.6c0,0.5-0.1,0.9-0.4,1.3c-0.3,0.4-0.7,0.7-1.1,0.9c-0.5,0.2-1,0.3-1.6,0.3c-0.3,0-0.6,0-0.9-0.1
		c-0.3-0.1-0.5-0.2-0.7-0.3c-0.1-0.1-0.3-0.1-0.4-0.2c-0.1-0.1-0.2-0.1-0.4-0.2c-0.1,0-0.2,0-0.3,0.1c-0.1,0.1-0.1,0.3-0.2,0.5h-0.4
		c0-0.4,0-0.8,0.1-1.3c0-0.5,0-1.2,0-2h0.4c0.1,0.6,0.2,1.1,0.4,1.6c0.2,0.5,0.4,0.8,0.7,1.1c0.3,0.3,0.7,0.4,1.2,0.4
		c0.3,0,0.6-0.1,0.8-0.3c0.2-0.2,0.4-0.5,0.4-0.9c0-0.5-0.2-0.9-0.5-1.2c-0.3-0.3-0.7-0.7-1.2-1.1c-0.4-0.3-0.7-0.6-1-0.9
		c-0.3-0.3-0.6-0.6-0.8-0.9c-0.2-0.3-0.3-0.7-0.3-1.2c0-0.5,0.1-0.9,0.4-1.3s0.6-0.6,1.1-0.8C54.7,65.6,55.2,65.6,55.7,65.6z"/>
</g>
<g>
	<g>
		<path class="st1" d="M62.6,69.3c4.5,0,8.1-2.4,8.1-5.4c0,3,3.6,5.4,8.1,5.4c-4.5,0-8.1,2.4-8.1,5.4C70.7,71.7,67.1,69.3,62.6,69.3
			z"/>
		<g>
			<path class="st1" d="M70.7,74.7v-5.4h-8.1C67.1,69.3,70.7,71.7,70.7,74.7z"/>
			<path class="st1" d="M70.7,63.9v5.4h8.1C74.3,69.3,70.7,66.9,70.7,63.9z"/>
		</g>
	</g>
</g>
<g>
	<g>
		<path class="st1" d="M1.2,69.3c4.5,0,8.1-2.4,8.1-5.4c0,3,3.6,5.4,8.1,5.4c-4.5,0-8.1,2.4-8.1,5.4C9.3,71.7,5.7,69.3,1.2,69.3z"/>
		<g>
			<path class="st1" d="M9.3,74.7v-5.4H1.2C5.7,69.3,9.3,71.7,9.3,74.7z"/>
			<path class="st1" d="M9.3,63.9v5.4h8.1C12.9,69.3,9.3,66.9,9.3,63.9z"/>
		</g>
	</g>
</g>
</svg>
