<?xml version="1.0" encoding="utf-8"?>
<!-- Generator: Adobe Illustrator 23.0.2, SVG Export Plug-In . SVG Version: 6.00 Build 0)  -->
<svg version="1.1" id="Layer_1" xmlns="http://www.w3.org/2000/svg" xmlns:xlink="http://www.w3.org/1999/xlink" x="0px" y="0px"
	 viewBox="0 0 80 76" style="enable-background:new 0 0 80 76;" xml:space="preserve">
<style type="text/css">
	.st0{fill:#C4A187;}
	.st1{fill:#BE977B;}
	.st2{fill:#C4A187;stroke:#BE977B;stroke-width:0.5;stroke-miterlimit:10;}
</style>
<path class="st0" d="M63.7,37.9c9.6-6.4,13.9-15.4,12.8-26.1c-0.1-0.4-0.4-0.7-0.7-0.7c-0.1,0-2.2,0-5.6,1.9c-0.4,0.2-0.5,0.7-0.3,1
	c0.2,0.4,0.7,0.5,1,0.3c1.9-1.1,3.3-1.5,4.1-1.6c0.9,9.9-3.2,17.9-12.1,23.9c-4.1,2.7-8.3,4.3-11.1,5.2c2.5-2.3,6.5-6.2,9.8-10.8
	c7.3-10,8.5-18.7,3.6-25.1c-0.1-0.2-0.4-0.3-0.7-0.3C56.4,6.5,51,13.4,48.8,25.6c-1,5.6-1.1,11.1-1,14.5c-1.3-2.6-3-6.8-3.9-11.6
	C42.1,18,45,9.5,52.8,3.3c0.4,0.6,1,1.8,1.6,3.7c0.1,0.4,0.5,0.7,1,0.5c0.4-0.1,0.7-0.5,0.5-1c-1-3.5-2.3-4.8-2.4-4.9
	c-0.3-0.3-0.7-0.3-1-0.1c-8.5,6.5-12,16-10,27.2c1.3,7.4,4.6,13.3,5.4,14.8c-0.7,1.9-4.2,10.9-6.3,19.7
	c-2.7-10.7-9.6-14.7-11.6-15.6c0.3-3.5,1-21.3-15.1-24.9c-0.4-0.1-0.7,0.1-0.9,0.5c0,0.1-0.3,1.1-0.1,3c0.1,0.4,0.4,0.7,0.8,0.7
	c0.4-0.1,0.7-0.4,0.7-0.8c-0.1-0.7-0.1-1.3,0-1.7c6.4,1.7,10.5,6.1,12.3,13c0.7,2.7,0.9,5.3,0.9,7.2c-1-2.2-2.4-5-4.4-7.8
	c-4.9-7.1-10.4-9.9-15.8-8.1C8,28.8,7.8,29,7.7,29.3C6.6,34.9,9.9,40,17.5,44.2c3,1.6,5.9,2.8,8.2,3.6c-5.8,0.5-17.2-0.1-21.4-11.3
	c0.4-0.1,0.9-0.1,1.6-0.1c0.1,0,0.1,0,0.1,0c0.4,0,0.7-0.4,0.7-0.7c0-0.4-0.4-0.7-0.7-0.8c-2,0-3,0.4-3,0.5c-0.4,0.1-0.5,0.6-0.4,1
	C7.9,52.5,26.7,49.4,29.1,49c0.7,0.3,2.8,1.4,5,3.7c2.5,2.5,5.6,7.1,6.6,14.6c-0.1,0.9-0.3,1.9-0.4,2.7c-2.6-4.7-7.6-6.1-9.2-6.4
	c-0.1-0.4-0.4-0.7-0.8-1c-2.6-1.7-8-4.2-15-0.9c-0.7,0.4-1.2,1-1.3,1.7c-0.1,0.7,0.4,1.4,1,1.9c3,1.9,5.8,2.4,8.2,2.4
	c2.9,0,5.3-0.9,6.7-1.6c0.4-0.2,0.8-0.6,1-1c1.9,0.4,7.3,2.1,8.9,8.1l0,0c0,0.3,0,0.5-0.1,0.8c0,0.4,0.3,0.8,0.7,0.8l0,0
	c0.4,0,0.7-0.3,0.7-0.7c0.3-10.1,6.7-27.2,7.9-30C51,43.8,57.4,42.1,63.7,37.9z M9.3,30.1c9.6-2.7,16.5,12.1,18.5,16.9
	C22.9,45.4,7.6,39.8,9.3,30.1z M29.4,64.8c-2.5,1.3-7.6,2.9-13.5-0.7c-0.2-0.1-0.4-0.3-0.3-0.4c0-0.1,0.1-0.3,0.4-0.4
	c6.3-3,11.1-0.7,13.5,0.7c0.2,0.1,0.3,0.3,0.3,0.4C29.8,64.5,29.6,64.6,29.4,64.8z M64.2,7.3c9,12.5-9.8,30.3-14.8,34.6
	C49.1,35.3,49,9.4,64.2,7.3z"/>
<path class="st0" d="M70.5,53.6c-0.4-0.2-0.8-0.1-1,0.4c-2.4,4.7-6.1,8.2-11.3,10.4c-2.8,1.2-5.4,3.1-7.9,5.7
	c-0.3,0.3-0.3,0.8,0.1,1.1c0.1,0.1,0.4,0.2,0.5,0.2c0.2,0,0.4-0.1,0.6-0.2c2.2-2.4,4.7-4.2,7.3-5.3c5.5-2.4,9.5-6,12.1-11
	C71,54.3,70.9,53.9,70.5,53.6z"/>
<path class="st0" d="M70,46.1c0-0.4-0.3-0.8-0.7-0.8c-0.4,0-0.8,0.3-0.8,0.7C68.2,51.3,65,58,56.9,61.5C48.4,65.2,44,73.4,43.8,73.7
	c-0.2,0.4-0.1,0.8,0.3,1c0.1,0.1,0.2,0.1,0.4,0.1c0.3,0,0.5-0.1,0.7-0.4c0.1-0.1,4.3-8,12.4-11.5C66.3,59.2,69.7,51.8,70,46.1z"/>
<path class="st0" d="M31.8,26.6c0.1,0,0.1,0,0.2,0c0.4-0.1,0.7-0.5,0.5-1C30.7,19,31,13.3,31.5,9.7c0.1-0.4-0.2-0.8-0.7-0.9
	c-0.4-0.1-0.8,0.2-0.9,0.7C29.3,13.2,29,19.1,31,26C31.2,26.3,31.6,26.6,31.8,26.6z"/>
<path class="st0" d="M38.2,49.9c-0.1,0.4,0.2,0.8,0.6,0.9c0.1,0,0.1,0,0.1,0c0.4,0,0.7-0.2,0.7-0.6c1.3-6.4-0.6-16.2-3-22.1
	C32,16.3,35.3,6.8,35.3,6.7c0.1-0.4-0.1-0.8-0.4-1c-0.4-0.1-0.8,0.1-1,0.4c-0.1,0.4-3.6,10.1,1.3,22.5C37.6,34.4,39.3,44,38.2,49.9z
	"/>
</svg>
