<?xml version="1.0" encoding="utf-8"?>
<!-- Generator: Adobe Illustrator 23.0.2, SVG Export Plug-In . SVG Version: 6.00 Build 0)  -->
<svg version="1.1" id="Layer_1" xmlns="http://www.w3.org/2000/svg" xmlns:xlink="http://www.w3.org/1999/xlink" x="0px" y="0px"
	 viewBox="0 0 80 76" style="enable-background:new 0 0 80 76;" xml:space="preserve">
<style type="text/css">
	.st0{fill:#C4A187;}
	.st1{fill:#BE977B;}
	.st2{fill:#C4A187;stroke:#BE977B;stroke-width:0.5;stroke-miterlimit:10;}
</style>
<g transform="translate(0,-952.36218)">
	<path class="st2" d="M42.2,953.8c-0.1,0-0.1,0-0.2,0.1l-18.1,9.6l-1.3,0.6c0,0,0,0-0.1,0l-10.4,5.5c-0.1,0-0.2,0.1-0.2,0.2
		c0,0,0,0,0,0c0,0,0,0.1-0.1,0.1c0,0,0,0,0,0c0,0,0,0.1,0,0.1c0,0.1,0,0.1,0,0.2v34c0,0.2,0.1,0.3,0.2,0.4l21.1,12.2
		c-0.1,0.6-0.3,1.3-0.3,2c0,4.8,3.9,8.7,8.7,8.7s8.7-3.9,8.7-8.7c0-0.6-0.1-1.2-0.2-1.7l21.5-12.5c0.1-0.1,0.2-0.3,0.2-0.4v-34
		c0.1-0.2,0-0.5-0.2-0.7c0,0,0,0,0,0l-29.4-15.8C42.4,953.8,42.3,953.7,42.2,953.8L42.2,953.8z M42.3,954.8L70.6,970l-4.1,2.4
		l-5.8,3.3l-28.7-15.5L42.3,954.8L42.3,954.8z M31,960.8l28.7,15.6l-7.3,4.2c0,0-0.1-0.1-0.1-0.1l-28.4-15.9l1.3-0.7L31,960.8
		L31,960.8z M22.9,965.1l0.2,0.2c0,0,0,0,0,0l28.3,15.9l-9.4,5.4l-28.5-16.5L22.9,965.1L22.9,965.1z M13,970.9l28.6,16.5v6.7
		L13,977.6V970.9z M71.1,970.9v6.5l-10,5.9v-6.7L71.1,970.9L71.1,970.9z M60.2,977.3l0,13.1l-3.3-0.8c-0.2,0-0.4,0-0.5,0.2l-3.6,4.8
		l-0.1-4.9c0.2-0.2,0.2-0.5,0-0.7c0,0,0,0,0,0l-0.1-7.1L60.2,977.3L60.2,977.3z M71.1,978.6v25.3l-21.1,12.2c-1.1-3.2-4-5.6-7.5-5.9
		v-14.7l9.1-5.4l0.1,5.8c0,0.3,0.2,0.5,0.5,0.5c0.2,0,0.3-0.1,0.4-0.2l4.2-5.6l3.6,0.9c0.3,0.1,0.5-0.1,0.6-0.4c0,0,0-0.1,0-0.1
		v-6.5L71.1,978.6L71.1,978.6z M13,978.8l28.6,16.5v14.9c-3.6,0.1-6.7,2.5-7.9,5.7l-20.7-12L13,978.8L13,978.8z M51.6,982.2l0.1,6.8
		l-9.1,5.4v-6.9L51.6,982.2L51.6,982.2z M41.8,1011.1H42c0.1,0,0.2,0,0.3,0c0.8,0,1.6,0.2,2.3,0.5h0c0.8,0.3,1.5,0.7,2.1,1.2
		c0,0,0,0,0.1,0c1.2,1,2.2,2.5,2.6,4.1c0,0.1,0,0.1,0.1,0.2c0.1,0.5,0.2,1.1,0.2,1.7c0,4.3-3.4,7.7-7.7,7.7s-7.7-3.4-7.7-7.7
		c0-0.7,0.1-1.4,0.3-2c0,0,0,0,0-0.1c0.1-0.3,0.2-0.6,0.3-0.9c0-0.1,0.1-0.1,0.1-0.2c0-0.1,0.1-0.2,0.1-0.3c0.1-0.1,0.1-0.2,0.2-0.4
		c0.1-0.2,0.2-0.4,0.3-0.5c0,0,0,0,0,0c0.1-0.2,0.3-0.4,0.4-0.6c0.1-0.1,0.2-0.2,0.3-0.3c0.1-0.1,0.2-0.2,0.3-0.3
		c0.1-0.1,0.2-0.2,0.3-0.3c0.2-0.1,0.3-0.3,0.5-0.4c0.2-0.1,0.3-0.2,0.5-0.4c0.2-0.1,0.3-0.2,0.5-0.3c0.2-0.1,0.4-0.2,0.6-0.3
		c0.2-0.1,0.4-0.2,0.6-0.3c0.1,0,0.2-0.1,0.3-0.1c0.2,0,0.3-0.1,0.5-0.1c0,0,0.1,0,0.1,0C40.8,1011.2,41.3,1011.1,41.8,1011.1
		L41.8,1011.1z M46.4,1015.3c-0.1,0-0.2,0.1-0.2,0.1l-7.6,6.7l-1.5-2.7c-0.1-0.2-0.4-0.3-0.7-0.2c-0.2,0.1-0.3,0.4-0.2,0.7
		c0,0,0,0,0,0l1.7,3.2c0.1,0.2,0.4,0.3,0.7,0.2c0,0,0.1,0,0.1-0.1l8-7.1c0.2-0.2,0.2-0.5,0.1-0.7c-0.1-0.1-0.2-0.2-0.4-0.2
		C46.5,1015.3,46.5,1015.3,46.4,1015.3L46.4,1015.3z"/>
</g>
</svg>
