<?xml version="1.0" encoding="utf-8"?>
<!-- Generator: Adobe Illustrator 23.0.2, SVG Export Plug-In . SVG Version: 6.00 Build 0)  -->
<svg version="1.1" id="Layer_1" xmlns="http://www.w3.org/2000/svg" xmlns:xlink="http://www.w3.org/1999/xlink" x="0px" y="0px"
	 viewBox="0 0 69.6 71" style="enable-background:new 0 0 69.6 71;" xml:space="preserve">
<style type="text/css">
	.st0{fill:#C6C5C4;}
	.st1{fill:#B12F2B;}
	.st2{fill:none;}
	.st3{fill:#C1C1C1;}
	.st4{fill:#A61E22;}
	.st5{fill:#C2C2C2;}
	.st6{fill:#A81812;}
	.st7{fill:#C79571;}
	.st8{fill:#A7C976;}
	.st9{fill:#FFFFFF;}
	.st10{fill:#EEE3D6;}
	.st11{fill:#CBCBCB;}
	.st12{fill:none;stroke:#000000;stroke-width:0.5;stroke-miterlimit:10;}
	.st13{clip-path:url(#SVGID_2_);fill:#C1C1C1;}
	.st14{clip-path:url(#SVGID_2_);fill:#A81812;}
	.st15{fill:#71D45B;}
	.st16{fill:#D1D1D1;}
</style>
<g>
	<path class="st0" d="M65.9,13.3c-0.2-0.2-0.4-0.2-0.7-0.2c0,0-0.1,0-0.2,0c-19.3,0-26.2-10.4-26.4-10.8c-0.2-0.3-0.5-0.5-0.8-0.5
		c-0.3,0-0.6,0.2-0.8,0.5c-0.2,0.3-4.4,6.6-15.5,9.4c-0.5,0.1-0.8,0.6-0.7,1.1c0.1,0.5,0.6,0.8,1.1,0.7c8.8-2.2,13.9-6.8,15.9-9.2
		c0.6,0.7,1.2,1.3,1.3,1.4c3.4,3.4,11.1,9,25.2,9.2v12.9c0,28.6-23.7,38.7-26.6,39.8c-1-0.4-4.8-2-9.3-5.3c-0.4-0.3-1-0.2-1.3,0.2
		c-0.3,0.4-0.2,1,0.2,1.3c5.3,3.9,9.9,5.7,10.5,5.7c0,0,0,0,0,0c0.1,0,0.2,0,0.3,0c0.3-0.1,28.1-10.1,28.1-41.7V13.9
		C66.1,13.6,66.1,13.5,65.9,13.3z"/>
	<path class="st0" d="M45.7,32c0.2,0,0.4-0.1,0.6-0.2l10.7-9.3c0.4-0.3,0.4-0.9,0.1-1.3c-0.3-0.4-0.9-0.4-1.3-0.1l-10,8.8L41,25.1
		c-0.4-0.4-0.9-0.4-1.3,0c-0.4,0.4-0.4,0.9,0,1.3l5.3,5.3C45.2,31.9,45.4,32,45.7,32z"/>
	<path class="st0" d="M27.3,24.2l-0.6,1.8c0.6,0.2,1.3,0.5,1.9,0.8l0.8-1.6C28.7,24.7,28,24.4,27.3,24.2z"/>
	<path class="st1" d="M23.7,54.2V52c3.3-0.2,6.3-1.5,8.7-3.5l0.3,0.3c-0.3,0.5-0.5,1-0.5,1.5c0,0.6,0.2,1.1,0.6,1.4
		c0.4,0.4,0.9,0.6,1.4,0.6c0.8,0,1.6-0.4,2.2-1c1.2-1.2,1.4-2.8,0.5-3.7c-0.7-0.7-1.9-0.7-2.9-0.1l-0.3-0.3c2-2.2,3.2-5.1,3.5-8.2
		h2.4c0.3,1,1.1,1.7,2.1,1.7c1.3,0,2.3-1.3,2.3-2.9c0-1.6-1-2.9-2.3-2.9c-1.1,0-2,0.9-2.2,2.3h-2.3c-0.2-3.3-1.4-6.3-3.5-8.7L34,28
		c0.5,0.3,1,0.5,1.5,0.5c0.6,0,1.1-0.2,1.4-0.6c0.9-0.9,0.7-2.5-0.5-3.7c-1.1-1.1-2.8-1.3-3.7-0.5c-0.7,0.7-0.7,1.9-0.1,2.9
		l-0.3,0.3c-0.3-0.2-0.5-0.5-0.8-0.7l-1.1,1.5c3.2,2.4,5,6,5,9.9c0,6.8-5.6,12.4-12.4,12.4s-12.4-5.6-12.4-12.4S16.2,25.3,23,25.3
		c0.2,0,0.4,0,0.6,0l0-0.3h0.1v-3.8c1.3-0.2,2.2-1.1,2.2-2.2c0-1.3-1.3-2.3-2.9-2.3s-2.9,1-2.9,2.3c0,1,0.7,1.8,1.8,2.1v2.4
		c-3.2,0.2-6,1.5-8.3,3.5l-0.3-0.3c0.2-0.3,0.3-0.7,0.4-1c0.1-0.7,0-1.4-0.5-1.9c-0.9-0.9-2.5-0.6-3.7,0.5c-1.2,1.2-1.4,2.8-0.5,3.7
		c0.4,0.4,0.9,0.6,1.4,0.6c0.5,0,1-0.2,1.5-0.5l0.3,0.3c-2.1,2.4-3.4,5.4-3.5,8.7H6.5c-0.2-1.3-1.1-2.3-2.2-2.3
		c-1.3,0-2.3,1.3-2.3,2.9c0,1.6,1,2.9,2.3,2.9c0.9,0,1.7-0.7,2.1-1.7h2.4c0.3,3.1,1.5,6,3.5,8.2L12,47.5c-1-0.6-2.2-0.6-2.9,0.1
		c-0.5,0.5-0.7,1.2-0.5,1.9c0.1,0.6,0.5,1.2,1,1.7c0.7,0.7,1.5,1,2.3,1c0.6,0,1.1-0.2,1.4-0.6c0.7-0.7,0.7-1.9,0.1-2.9l0.3-0.3
		c2.2,2,5.1,3.3,8.3,3.5v2.4c-1.1,0.3-1.8,1.1-1.8,2.1c0,1.3,1.3,2.3,2.9,2.3s2.9-1,2.9-2.3C25.9,55.4,25,54.5,23.7,54.2z
		 M41.7,36.7c0.1,0,0.4,0.4,0.4,1.1c0,0.7-0.3,1-0.4,1.1c-0.1,0-0.4-0.4-0.4-1.1C41.3,37.1,41.6,36.7,41.7,36.7z M34.1,25.1
		c0,0,0,0,0.1,0c0.2,0,0.6,0.1,0.9,0.5c0.5,0.5,0.5,1,0.5,1.1c0,0-0.6,0-1.1-0.5C34.1,25.7,34.1,25.2,34.1,25.1z M35.5,48.8
		c0.1,0,0.1,0,0.1,0c0.1,0.1,0,0.6-0.5,1.1c-0.4,0.4-0.7,0.5-0.9,0.5c-0.1,0-0.1,0-0.1,0c-0.1-0.1,0-0.6,0.5-1.1
		C34.9,49,35.3,48.8,35.5,48.8z M23,18.7c0.7,0,1.1,0.3,1.1,0.4c0,0.1-0.4,0.4-1.1,0.4c-0.7,0-1.1-0.3-1.1-0.4
		C21.9,19,22.3,18.7,23,18.7z M10.5,26.7c-0.1,0-0.1,0-0.1,0c-0.1-0.1,0-0.6,0.5-1.1c0.4-0.4,0.7-0.5,0.9-0.5c0.1,0,0.1,0,0.1,0
		c0.1,0.1,0,0.6-0.5,1.1C11.1,26.5,10.7,26.7,10.5,26.7z M4.3,38.8c-0.1,0-0.4-0.4-0.4-1.1c0-0.7,0.3-1.1,0.4-1.1
		c0.1,0,0.4,0.4,0.4,1.1C4.7,38.4,4.4,38.8,4.3,38.8z M11.9,50.4c0,0,0,0-0.1,0c-0.2,0-0.6-0.1-0.9-0.5c-0.5-0.5-0.5-1-0.5-1.1
		c0,0,0,0,0.1,0c0.2,0,0.6,0.1,0.9,0.5C11.9,49.8,11.9,50.3,11.9,50.4z M23,56.8c-0.7,0-1.1-0.3-1.1-0.4c0-0.1,0.4-0.4,1.1-0.4
		c0.7,0,1.1,0.3,1.1,0.4C24.1,56.5,23.7,56.8,23,56.8z"/>
</g>
</svg>
