<?xml version="1.0" encoding="utf-8"?>
<!-- Generator: Adobe Illustrator 23.0.2, SVG Export Plug-In . SVG Version: 6.00 Build 0)  -->
<svg version="1.1" id="Layer_1" xmlns="http://www.w3.org/2000/svg" xmlns:xlink="http://www.w3.org/1999/xlink" x="0px" y="0px"
	 viewBox="0 0 69.1 71" style="enable-background:new 0 0 69.1 71;" xml:space="preserve">
<style type="text/css">
	.st0{fill:#C6C5C4;}
	.st1{fill:#B12F2B;}
	.st2{fill:none;}
	.st3{fill:#C1C1C1;}
	.st4{fill:#A61E22;}
	.st5{fill:#C2C2C2;}
	.st6{fill:#A81812;}
	.st7{fill:#C79571;}
	.st8{fill:#A7C976;}
	.st9{fill:#FFFFFF;}
	.st10{fill:#EEE3D6;}
	.st11{fill:#CBCBCB;}
	.st12{fill:none;stroke:#000000;stroke-width:0.5;stroke-miterlimit:10;}
	.st13{clip-path:url(#SVGID_2_);fill:#C1C1C1;}
	.st14{clip-path:url(#SVGID_2_);fill:#A81812;}
	.st15{fill:#71D45B;}
	.st16{fill:#D1D1D1;}
</style>
<g>
	<path class="st1" d="M13.1,7.5l4.2,5l-3.4,0.6c-0.2,0-0.4,0.2-0.5,0.4c-0.1,0.2,0,0.4,0.1,0.6l4.7,5.2c0.2,0.2,0.6,0.3,0.8,0
		c0.2-0.2,0.3-0.6,0-0.8l-4-4.4l3.3-0.6c0.2,0,0.4-0.2,0.5-0.4c0.1-0.2,0-0.4-0.1-0.6L14,6.8c-0.1-0.1-0.2-0.2-0.4-0.2
		c0,0,0,0-0.1,0c-0.1,0-0.3,0-0.4,0.1C13.1,6.8,13,6.9,13,7.1C13,7.2,13,7.4,13.1,7.5z"/>
	<path class="st1" d="M8.6,25.2l7-0.4c0.2,0,0.3-0.1,0.4-0.2c0.1-0.1,0.2-0.3,0.2-0.4c0-0.3-0.3-0.6-0.6-0.6l-5.9,0.3l1.6-3
		c0.1-0.2,0.1-0.4,0-0.6c-0.1-0.2-0.3-0.3-0.5-0.3c0,0,0,0,0,0l-7.5,0.1c-0.2,0-0.3,0.1-0.4,0.2c-0.1,0.1-0.2,0.3-0.2,0.4
		c0,0.3,0.3,0.6,0.6,0.6l6.5-0.1l-1.7,3c-0.1,0.2-0.1,0.4,0,0.6C8.2,25.1,8.4,25.2,8.6,25.2L8.6,25.2z"/>
	<path class="st1" d="M23.3,9.2l1.8,6.8c0.1,0.3,0.4,0.5,0.7,0.4c0.2,0,0.3-0.1,0.4-0.3c0.1-0.1,0.1-0.3,0.1-0.5L24.8,10l3.2,1
		c0.2,0.1,0.4,0,0.6-0.1c0.2-0.1,0.2-0.4,0.2-0.6l-1.6-7.4c-0.1-0.3-0.4-0.5-0.7-0.5c-0.2,0-0.3,0.1-0.4,0.3S26,3,26,3.2l1.4,6.4
		l-3.3-1c-0.1,0-0.1,0-0.2,0c-0.2,0-0.3,0.1-0.4,0.2C23.4,8.8,23.3,9,23.3,9.2z"/>
	<path class="st0" d="M8.8,64.7c0.2,0.1,0.4,0.2,0.6,0.2c0.4,0,0.7-0.2,0.9-0.5c0.2-0.4,5.4-9,5.1-17.6c-0.3-8.1,0.8-16.5,10.4-22.8
		c6.4-4.2,11.1-3.9,16.1-3.6c5.4,0.3,11,0.6,18.1-5.3c0.5-0.4,0.5-1.1,0.1-1.6c-0.2-0.2-0.5-0.4-0.8-0.4c-0.3,0-0.6,0.1-0.8,0.3
		c-6.4,5.4-11.1,5.1-16.5,4.8c-1.2-0.1-2.5-0.1-3.8-0.1c-4,0-8.4,0.7-13.6,4.1C14,29,12.9,38.4,13.2,46.8c0.3,8-4.7,16.4-4.8,16.4
		c-0.2,0.3-0.2,0.5-0.1,0.8C8.3,64.3,8.5,64.6,8.8,64.7z"/>
	<path class="st0" d="M45.9,48.9c-6,5.6-11.3,7-18.1,8.7l-1.4,0.4c-7.8,2-12.4,9.3-12.5,9.4c-0.3,0.5-0.2,1.2,0.3,1.5
		c0.2,0.1,0.4,0.2,0.6,0.2c0.4,0,0.7-0.2,0.9-0.5c0-0.1,4.4-6.7,11.2-8.4l1.4-0.4c6.8-1.8,12.7-3.3,19.1-9.2
		c7.2-6.7,9.1-13.2,10.8-18.9c1.3-4.6,2.5-8.5,6.1-11.8c0.4-0.4,0.5-1.1,0.1-1.6c-0.2-0.2-0.5-0.3-0.8-0.4c0,0,0,0-0.1,0
		c-0.3,0-0.5,0.1-0.7,0.3c-4.1,3.7-5.4,8.2-6.8,12.9C54.4,36.7,52.7,42.6,45.9,48.9z"/>
	<path class="st1" d="M41,27c0.3,0,0.6-0.3,0.5-0.6c0-0.2-0.1-0.3-0.2-0.4c-0.1-0.1-0.2-0.1-0.4-0.1c0,0,0,0,0,0
		c-4.5,0.4-10.1,4.2-10.3,4.4c-0.3,0.2-0.3,0.6-0.1,0.8c0.2,0.3,0.6,0.3,0.8,0.1C31.3,31.2,36.7,27.4,41,27z"/>
	<path class="st1" d="M40.4,35.1c0.3-0.2,0.3-0.6,0.2-0.8c-0.1-0.1-0.2-0.2-0.4-0.3c0,0-0.1,0-0.1,0c-0.1,0-0.2,0-0.3,0.1
		c-0.3,0.2-8.1,5.4-12.5,11.4c-0.2,0.3-0.1,0.6,0.1,0.8c0.3,0.2,0.6,0.1,0.8-0.1C32.4,40.3,40.3,35.1,40.4,35.1z"/>
	<path class="st1" d="M29.5,51.6c0.5-0.1,5.2-1.4,9.7-5.5c0.2-0.2,0.3-0.6,0-0.8c-0.2-0.2-0.6-0.3-0.8,0c-4.3,3.9-8.7,5.1-9.2,5.3
		c-0.2,0-0.3,0.1-0.4,0.3c-0.1,0.1-0.1,0.3-0.1,0.5C28.9,51.5,29.2,51.7,29.5,51.6z"/>
</g>
</svg>
