<?xml version="1.0" encoding="utf-8"?>
<!-- Generator: Adobe Illustrator 23.0.2, SVG Export Plug-In . SVG Version: 6.00 Build 0)  -->
<svg version="1.1" id="Layer_1" xmlns="http://www.w3.org/2000/svg" xmlns:xlink="http://www.w3.org/1999/xlink" x="0px" y="0px"
	 viewBox="0 0 25 25" style="enable-background:new 0 0 25 25;" xml:space="preserve">
<style type="text/css">
	.st0{fill:#BC896A;}
	.st1{fill:#B6140E;}
</style>
<g>
	<path class="st0" d="M10.3,19.9c-5.3,0-9.7-4.3-9.7-9.7s4.3-9.7,9.7-9.7s9.7,4.3,9.7,9.7S15.6,19.9,10.3,19.9z M10.3,2.2
		c-4.5,0-8.1,3.6-8.1,8.1s3.6,8.1,8.1,8.1s8.1-3.6,8.1-8.1S14.7,2.2,10.3,2.2z"/>
</g>
<g>
	<path class="st0" d="M24,24.8c-0.2,0-0.4-0.1-0.6-0.2L16,17.1c-0.3-0.3-0.3-0.8,0-1.1s0.8-0.3,1.1,0l7.5,7.5c0.3,0.3,0.3,0.8,0,1.1
		C24.4,24.7,24.2,24.8,24,24.8z"/>
</g>
</svg>
