<?xml version="1.0" encoding="utf-8"?>
<!-- Generator: Adobe Illustrator 23.0.2, SVG Export Plug-In . SVG Version: 6.00 Build 0)  -->
<svg version="1.1" id="Layer_1" xmlns="http://www.w3.org/2000/svg" xmlns:xlink="http://www.w3.org/1999/xlink" x="0px" y="0px"
	 viewBox="0 0 117 71" style="enable-background:new 0 0 117 71;" xml:space="preserve">
<style type="text/css">
	.st0{fill:#C6C5C4;}
	.st1{fill:#B12F2B;}
	.st2{fill:none;}
	.st3{fill:#C1C1C1;}
	.st4{fill:#A61E22;}
	.st5{fill:#C2C2C2;}
	.st6{fill:#A81812;}
	.st7{fill:#C79571;}
	.st8{fill:#A7C976;}
	.st9{fill:#FFFFFF;}
	.st10{fill:#EEE3D6;}
	.st11{fill:#CBCBCB;}
	.st12{fill:none;stroke:#000000;stroke-width:0.5;stroke-miterlimit:10;}
	.st13{clip-path:url(#SVGID_2_);fill:#C1C1C1;}
	.st14{clip-path:url(#SVGID_2_);fill:#A81812;}
	.st15{fill:#71D45B;}
	.st16{fill:#D1D1D1;}
</style>
<path class="st5" d="M66.2,68.9c0,0.3-0.2,0.5-0.5,0.5c-0.3,0-0.5-0.2-0.5-0.5V50.3c0-0.3,0-0.3,0-0.4c0-1,0-1.8,0.8-2.7
	c0.7-0.7,1.4-1.4,2.2-2c2-1.6,3.9-3.3,4-6.3v0l0,0c0.1-1-0.2-1.9-0.6-2.5c-0.2-0.4-0.6-0.7-0.9-0.9c-0.4-0.2-0.7-0.3-1.2-0.3
	c-0.6,0-1.2,0.1-1.8,0.5c-0.9,0.6-1.6,1-2.4,1.2c-0.8,0.2-1.7,0.1-2.8-0.5c-0.6-0.3-1-0.7-1.5-1.1c-0.7-0.7-1.5-1.4-3.4-1.4h0
	c-1.9,0-2.7,0.7-3.4,1.4c-0.4,0.4-0.8,0.8-1.5,1.1c-1.1,0.6-1.9,0.7-2.8,0.5c-0.8-0.2-1.5-0.6-2.4-1.2c-0.6-0.4-1.2-0.6-1.8-0.5
	c-0.4,0-0.8,0.1-1.2,0.3c-0.4,0.2-0.7,0.5-0.9,0.9c-0.4,0.6-0.6,1.5-0.6,2.5c0,0,0,0,0,0c0.1,3,2,4.7,4,6.3c0.8,0.6,1.5,1.3,2.2,2
	c0.8,0.9,0.8,1.7,0.8,2.7c0,0.1,0,0.1,0,0.4v18.6c0,0.3-0.2,0.5-0.5,0.5c-0.3,0-0.5-0.2-0.5-0.5V50.3c0,0,0-0.2,0-0.4
	c0-0.8,0-1.4-0.5-2c-0.6-0.7-1.4-1.3-2.1-1.9c-2.1-1.8-4.2-3.5-4.3-7l0,0c-0.1-1.2,0.2-2.3,0.7-3.1c0.3-0.5,0.7-0.9,1.2-1.2
	c0.5-0.3,1-0.4,1.6-0.5c0.8,0,1.6,0.2,2.3,0.7c0.8,0.5,1.4,0.9,2.1,1.1c0.6,0.1,1.3,0.1,2.1-0.4c0.5-0.3,0.9-0.6,1.2-1
	c0.9-0.8,1.8-1.7,4.1-1.7c2.3,0,3.2,0.8,4.1,1.7c0.4,0.4,0.8,0.7,1.2,1c0.9,0.4,1.5,0.5,2.1,0.4c0.6-0.1,1.3-0.6,2.1-1.1
	c0.8-0.5,1.6-0.7,2.3-0.7c0.6,0,1.1,0.2,1.6,0.5c0.5,0.3,0.9,0.7,1.2,1.2c0.5,0.8,0.8,1.8,0.7,3.1l0,0c-0.1,3.5-2.2,5.2-4.3,7
	c-0.7,0.6-1.5,1.2-2.1,1.9c-0.6,0.6-0.5,1.2-0.5,2c0,0.2,0,0.4,0,0.4L66.2,68.9L66.2,68.9z"/>
<path class="st5" d="M53.1,3.1c0-0.2,0.1-0.3,0.2-0.3c0.2,0,0.3,0.1,0.3,0.2c0.1,0.8,0.2,1.5,0.3,2.3s0.1,1.5,0.1,2.4
	c0,0.2-0.1,0.3-0.3,0.3c-0.2,0-0.3-0.1-0.3-0.3c0-0.8,0-1.5-0.1-2.3C53.3,4.6,53.2,3.8,53.1,3.1z"/>
<path class="st5" d="M62.7,60.7c0-0.2,0.1-0.3,0.3-0.3c0.2,0,0.3,0.1,0.3,0.3l-0.1,4.5c0,0.2-0.1,0.3-0.3,0.3
	c-0.2,0-0.3-0.1-0.3-0.3L62.7,60.7z"/>
<path class="st5" d="M63,1.4c0-0.3,0.3-0.4,0.5-0.4c0.3,0,0.4,0.3,0.4,0.5c0,0.1,0,0.3,0,0.4c-0.4,3.9-1.2,12.1,1.3,14.5
	c0.5,0.5,1.1,1,1.7,1.4c2.8,2.3,5.6,4.6,2.7,9.8c-0.6,1-1.3,1.7-2.3,2.1c-0.9,0.4-2.1,0.6-3.3,0.5c-1.2-0.1-2-0.5-2.9-0.9
	c-0.5-0.2-0.9-0.4-1.4-0.6c-0.4-0.1-1.5-0.2-2.6-0.1c-1.1,0-2.1,0.1-2.5,0.2c-0.4,0.1-0.8,0.3-1.1,0.5c-0.8,0.4-1.7,0.8-2.9,0.9
	c-1.2,0.1-2.3,0-3.3-0.5c-0.9-0.4-1.7-1.1-2.3-2.1c-3-5.2-0.2-7.5,2.7-9.8c0.6-0.5,1.2-0.9,1.7-1.4c2.6-2.5,1.7-10.6,1.3-14.5
	c0-0.2,0-0.3,0-0.4c0-0.3,0.2-0.5,0.4-0.5c0.3,0,0.5,0.2,0.5,0.4c0,0.1,0,0.3,0,0.4c0.4,4,1.3,12.5-1.6,15.3c-0.5,0.5-1.1,1-1.7,1.5
	c-2.5,2.1-5,4.1-2.4,8.6c0.5,0.8,1.1,1.4,1.8,1.7c0.8,0.4,1.8,0.5,2.8,0.4c1-0.1,1.8-0.5,2.6-0.8c0.4-0.2,0.8-0.4,1.2-0.5
	c0.5-0.2,1.6-0.3,2.8-0.3c1.2,0,2.4,0,2.9,0.2c0.5,0.2,1,0.4,1.5,0.6c0.8,0.3,1.6,0.7,2.6,0.8c1.1,0.1,2,0,2.8-0.4
	c0.8-0.3,1.4-0.9,1.8-1.7c2.6-4.5,0.1-6.5-2.4-8.6c-0.6-0.5-1.2-1-1.7-1.5c-2.9-2.8-2-11.3-1.6-15.3C63,1.6,63,1.5,63,1.4L63,1.4z"
	/>
<g>
	<path class="st6" d="M79.9,38c-0.1,0-0.2,0-0.3,0c-0.5-0.1-0.9-0.3-1.3-0.6c-0.4-0.4-0.7-0.9-0.8-1.6l0,0c0,0,0,0,0-0.1l-0.7-5.5
		l-2.8,2c-0.2,0.1-0.4,0.2-0.7,0.2c-0.2,0-0.4-0.1-0.5-0.3h-0.1l-0.7-1.5c-0.1-0.3-0.1-0.6,0.1-0.9l4.4-6c0,0,0,0,0,0l0,0
		c0.3-0.3,0.6-0.6,0.9-0.7c0.4-0.2,0.8-0.2,1.2-0.1c0.4,0.1,0.7,0.3,1,0.6c0.2,0.3,0.4,0.7,0.5,1.1c0,0,0,0.1,0,0.1l0.5,6.5l4.1-4.8
		c0.3-0.4,0.9-0.4,1.2-0.1c0,0,0.1,0.1,0.1,0.1l0.9,1.1c0.2,0.3,0.3,0.7,0,1.1l-4.9,7.9C82,37,81.5,37.5,81,37.8
		C80.6,37.9,80.3,38,79.9,38z M78.4,35.7c0.1,0.5,0.2,0.8,0.5,1.1c0.2,0.2,0.5,0.3,0.8,0.4c0.3,0,0.6,0,0.9-0.2c0.4-0.2,0.8-0.5,1-1
		l0,0l0,0l4.9-8l0,0c0,0,0,0,0,0l-0.9-1.1c0,0,0,0,0,0c0,0,0,0-0.1,0l-4.3,5c0,0,0,0,0,0l0,0c-0.1,0.1-0.2,0.3-0.4,0.3
		c-0.1,0-0.3,0.1-0.4,0l0,0c-0.1,0-0.2-0.1-0.3-0.2c-0.1-0.1-0.2-0.3-0.2-0.5l0,0l-0.6-6.8l0,0c0,0,0,0,0,0l0,0
		c-0.1-0.3-0.2-0.5-0.3-0.7c-0.1-0.2-0.3-0.3-0.5-0.3l0,0c-0.2,0-0.4,0-0.6,0.1c-0.2,0.1-0.4,0.3-0.6,0.5l0,0c0,0,0,0,0,0l0,0
		l-4.4,6l0,0c0,0,0,0,0,0l0.4,1h0l0.1,0.3c0,0,0,0,0,0c0,0,0,0,0,0c0,0,0,0,0,0l3.6-2.6l0.4,0.2L78.4,35.7L78.4,35.7
		C78.4,35.7,78.4,35.7,78.4,35.7z M81.3,31.9C81.3,31.9,81.3,31.9,81.3,31.9C81.3,31.9,81.3,31.9,81.3,31.9z M73.5,31.6
		C73.5,31.6,73.5,31.6,73.5,31.6C73.5,31.6,73.5,31.6,73.5,31.6z M80.6,31.5C80.6,31.5,80.6,31.5,80.6,31.5
		C80.6,31.5,80.6,31.5,80.6,31.5z"/>
</g>
<g>
	<path class="st6" d="M34.6,38c-0.4,0-0.7-0.1-1.1-0.2c-0.6-0.3-1.1-0.8-1.4-1.4l-4.9-7.9c-0.2-0.3-0.2-0.8,0-1.1l0.9-1.1
		c0,0,0.1-0.1,0.1-0.1c0.4-0.3,0.9-0.3,1.2,0.1l4.1,4.8l0.5-6.5c0,0,0-0.1,0-0.1c0.1-0.4,0.3-0.8,0.5-1.1c0.3-0.3,0.6-0.5,1-0.6
		c0.4-0.1,0.8,0,1.2,0.1l0,0c0.3,0.2,0.6,0.4,0.9,0.7c0,0,0,0,0,0.1l4.4,6c0.2,0.3,0.2,0.6,0.1,0.9l0,0l-0.7,1.5h-0.1
		c-0.2,0.2-0.6,0.3-0.9,0.2l0,0l-3-2.2l-0.7,5.4c0,0,0,0,0,0.1c-0.1,0.7-0.4,1.2-0.8,1.6c-0.3,0.3-0.8,0.5-1.3,0.6
		C34.8,38,34.7,38,34.6,38z M29,26.9L29,26.9L28.1,28c0,0,0,0,0,0l0,0l4.9,8l0,0c0.2,0.4,0.6,0.8,1,1c0.3,0.1,0.6,0.2,0.9,0.2
		c0.3,0,0.6-0.2,0.8-0.4c0.3-0.3,0.5-0.6,0.5-1.1c0,0,0,0,0,0l0,0l0,0l0.9-6.9l3.8,2.7l0,0l0.2,0.1c0,0,0,0,0.1,0c0,0,0,0,0,0l0-0.1
		l0.5-1.1c0,0,0,0,0,0l0,0l-4.4-6l0,0l0,0c-0.2-0.2-0.4-0.4-0.6-0.5c-0.2-0.1-0.4-0.1-0.6-0.1c-0.2,0-0.4,0.2-0.5,0.3
		c-0.2,0.2-0.3,0.4-0.3,0.7l0,0c0,0,0,0,0,0l0,0l-0.6,6.8l0,0c0,0.2-0.1,0.4-0.2,0.5l0,0c-0.1,0.1-0.2,0.2-0.3,0.2l0,0
		c-0.1,0-0.3,0-0.4,0c-0.1-0.1-0.3-0.2-0.4-0.3l0,0c0,0,0,0,0,0L29,26.9C29,26.9,29,26.9,29,26.9C29,26.9,29,26.9,29,26.9z
		 M36.1,35.7C36.1,35.7,36.1,35.7,36.1,35.7C36.1,35.7,36.1,35.7,36.1,35.7z M35.1,24.7C35.1,24.7,35.1,24.7,35.1,24.7
		C35.1,24.7,35.1,24.7,35.1,24.7z M37.2,24.3C37.2,24.3,37.2,24.3,37.2,24.3L37.2,24.3z M37.2,24.3C37.2,24.3,37.2,24.3,37.2,24.3
		L37.2,24.3L37.2,24.3z"/>
</g>
<path class="st5" d="M47.1,69c0,0.3-0.2,0.5-0.4,0.5c-0.3,0-0.5-0.2-0.5-0.4l-1-13.6c-0.1-1.1-0.5-2.9-1.2-4.4
	c-0.4-0.7-0.8-1.4-1.2-1.8c-0.4-0.4-0.9-0.5-1.3-0.4c-0.3,0.1-0.5,0.2-0.8,0.5c-0.7,0.6-0.8,1.2-0.6,1.7c0.2,0.6,0.8,1.2,1.4,1.7
	c0.7,0.6,1.1,1,1.4,1.4c0.3,0.5,0.4,1,0.6,1.9c0.5,2.7,1,7.6,1.3,10.7c0.1,0.9,0.2,1.7,0.2,2.2c0,0.3-0.2,0.5-0.4,0.5
	c-0.3,0-0.5-0.2-0.5-0.4c0-0.4-0.1-1.2-0.2-2.2c-0.3-3-0.8-7.9-1.3-10.6c-0.2-0.8-0.3-1.3-0.5-1.6c-0.2-0.4-0.5-0.7-1.2-1.2
	c-0.7-0.6-1.4-1.3-1.7-2c-0.3-0.9-0.2-1.8,0.8-2.7c0.4-0.3,0.8-0.6,1.2-0.7c0.8-0.2,1.6,0,2.2,0.6c0.6,0.5,1.1,1.3,1.5,2.1
	c0.8,1.6,1.2,3.5,1.3,4.7L47.1,69L47.1,69z"/>
</svg>
