<?xml version="1.0" encoding="utf-8"?>
<!-- Generator: Adobe Illustrator 23.0.2, SVG Export Plug-In . SVG Version: 6.00 Build 0)  -->
<svg version="1.1" id="Layer_1" xmlns="http://www.w3.org/2000/svg" xmlns:xlink="http://www.w3.org/1999/xlink" x="0px" y="0px"
	 viewBox="0 0 117 71" style="enable-background:new 0 0 117 71;" xml:space="preserve">
<style type="text/css">
	.st0{fill:#C6C5C4;}
	.st1{fill:#B12F2B;}
	.st2{fill:none;}
	.st3{fill:#C1C1C1;}
	.st4{fill:#A61E22;}
	.st5{fill:#C2C2C2;}
	.st6{fill:#A81812;}
	.st7{fill:#C79571;}
	.st8{fill:#A7C976;}
	.st9{fill:#FFFFFF;}
	.st10{fill:#EEE3D6;}
	.st11{fill:#CBCBCB;}
	.st12{fill:none;stroke:#000000;stroke-width:0.5;stroke-miterlimit:10;}
	.st13{clip-path:url(#SVGID_2_);fill:#C1C1C1;}
	.st14{clip-path:url(#SVGID_2_);fill:#A81812;}
	.st15{fill:#71D45B;}
	.st16{fill:#D1D1D1;}
</style>
<g>
	<path class="st5" d="M64.3,35.8l4.5-6.8c4.4-7.4,4.1-13.3,2.5-17.5c-1.5-3.8-4-6.2-5-7.1c-0.1-0.1-0.1-0.1-0.2-0.1c0,0,0,0,0,0
		c-2.9-2-5.6-2.6-8-2.6c-4.7,0-7.9,2.6-7.9,2.6c0,0,0,0,0,0c0,0,0,0,0,0c0,0-0.1,0-0.2,0.1c-2.1,1.7-11,10.2-2.5,24.6l4.5,6.8
		L37.2,56.4c-0.7,0.9-0.9,2.6-0.4,3.7l3.5,8.4c0.2,0.6,0.6,0.9,1,0.9c0.3,0,0.7-0.2,1-0.7L58.2,45L74,68.7c0.3,0.5,0.7,0.7,1,0.7
		c0.4,0,0.8-0.3,1-0.9l3.5-8.4c0.5-1.1,0.3-2.7-0.4-3.7L64.3,35.8z M58.2,27.3l-4.9-6.9c0,0-3.2-4.4-3.8-9.7c3-1.4,6-1.9,8.6-1.9
		c4,0,7.2,1.1,8.9,1.8c-0.5,5.3-3.8,9.7-3.8,9.7L58.2,27.3z M50.9,5.2c0,0,3-2.4,7.2-2.4c2.5,0,5,0.8,7.3,2.4
		c0.2,0.3,1.1,1.4,1.5,3.1c0,0.4,0,0.8,0,1.2c-1.8-0.8-5-1.8-8.9-1.8c-3,0-5.9,0.6-8.7,1.8c0-0.8,0-1.5,0.1-2.3
		C49.8,6.5,50.2,5.8,50.9,5.2z M48.4,28.5c-3.4-5.8-4.3-11.2-2.6-16.1c0.7-1.9,1.7-3.5,2.6-4.7c-0.7,6.8,3.8,13,4,13.3l5.2,7.1
		l-4.8,6.7L48.4,28.5z M41.5,68.1c0,0.1-0.1,0.1-0.1,0.1c0,0,0-0.1-0.1-0.1l-3.5-8.4c-0.3-0.7-0.2-2,0.3-2.7L64,21
		c0.2-0.3,4.7-6.5,4-13.3c0.9,1.1,1.8,2.5,2.4,4.2c1.9,5,1.1,10.6-2.4,16.6L41.5,68.1z M78.6,59.6l-3.5,8.4c0,0.1-0.1,0.1-0.1,0.1
		c0,0-0.1-0.1-0.1-0.1L58.8,44.1l4.9-7.3L78.3,57C78.8,57.6,78.9,58.9,78.6,59.6z"/>
	<path class="st6" d="M32.8,34h10c0.3,0,0.5-0.2,0.5-0.5s-0.2-0.5-0.5-0.5h-10c-0.3,0-0.5,0.2-0.5,0.5S32.5,34,32.8,34z"/>
	<path class="st6" d="M43.4,37.7c0-0.3-0.2-0.5-0.5-0.5h-10c-0.3,0-0.5,0.2-0.5,0.5c0,0.3,0.2,0.5,0.5,0.5h10
		C43.2,38.2,43.4,38,43.4,37.7z"/>
	<path class="st6" d="M37,35.6c0,0.3,0.2,0.5,0.5,0.5H46c0.3,0,0.5-0.2,0.5-0.5c0-0.3-0.2-0.5-0.5-0.5h-8.5C37.3,35,37,35.3,37,35.6
		z"/>
	<circle class="st6" cx="35.5" cy="35.6" r="0.5"/>
	<path class="st6" d="M73.5,34h10c0.3,0,0.5-0.2,0.5-0.5s-0.2-0.5-0.5-0.5h-10c-0.3,0-0.5,0.2-0.5,0.5S73.2,34,73.5,34z"/>
	<path class="st6" d="M83.5,37.1h-10c-0.3,0-0.5,0.2-0.5,0.5c0,0.3,0.2,0.5,0.5,0.5h10c0.3,0,0.5-0.2,0.5-0.5
		C84.1,37.4,83.8,37.1,83.5,37.1z"/>
	<path class="st6" d="M70.3,35c-0.3,0-0.5,0.2-0.5,0.5c0,0.3,0.2,0.5,0.5,0.5h8.5c0.3,0,0.5-0.2,0.5-0.5c0-0.3-0.2-0.5-0.5-0.5H70.3
		z"/>
	<circle class="st6" cx="80.9" cy="35.6" r="0.5"/>
	<circle class="st5" cx="46" cy="49.3" r="0.5"/>
	<path class="st5" d="M44.5,50.6l-5.3,7.3c-0.1,0.2-0.1,0.3-0.1,0.5l1.4,3.2c0.1,0.2,0.3,0.3,0.5,0.3c0.1,0,0.1,0,0.2,0
		c0.3-0.1,0.4-0.4,0.3-0.7l-1.3-2.9l5.1-7.1c0.2-0.2,0.1-0.6-0.1-0.7C45,50.3,44.7,50.3,44.5,50.6z"/>
	<circle class="st5" cx="70.3" cy="49.3" r="0.5"/>
	<path class="st5" d="M71.8,50.6c-0.2-0.2-0.5-0.3-0.7-0.1c-0.2,0.2-0.3,0.5-0.1,0.7l5.1,7.1l-1.3,2.9c-0.1,0.3,0,0.6,0.3,0.7
		c0.1,0,0.1,0,0.2,0c0.2,0,0.4-0.1,0.5-0.3l1.4-3.2c0.1-0.2,0.1-0.4-0.1-0.5L71.8,50.6z"/>
</g>
</svg>
