<?xml version="1.0" encoding="utf-8"?>
<!-- Generator: Adobe Illustrator 23.0.2, SVG Export Plug-In . SVG Version: 6.00 Build 0)  -->
<svg version="1.1" id="Layer_1" xmlns="http://www.w3.org/2000/svg" xmlns:xlink="http://www.w3.org/1999/xlink" x="0px" y="0px"
	 viewBox="0 0 117 71" style="enable-background:new 0 0 117 71;" xml:space="preserve">
<style type="text/css">
	.st0{fill:#C6C5C4;}
	.st1{fill:#B12F2B;}
	.st2{fill:none;}
	.st3{fill:#C1C1C1;}
	.st4{fill:#A61E22;}
	.st5{fill:#C2C2C2;}
	.st6{fill:#A81812;}
	.st7{fill:#C79571;}
	.st8{fill:#A7C976;}
	.st9{fill:#FFFFFF;}
	.st10{fill:#EEE3D6;}
	.st11{fill:#CBCBCB;}
	.st12{fill:none;stroke:#000000;stroke-width:0.5;stroke-miterlimit:10;}
	.st13{clip-path:url(#SVGID_2_);fill:#C1C1C1;}
	.st14{clip-path:url(#SVGID_2_);fill:#A81812;}
	.st15{fill:#71D45B;}
	.st16{fill:#D1D1D1;}
</style>
<g>
	<defs>
		<rect id="SVGID_1_" x="23.5" y="2.8" width="69.2" height="65.7"/>
	</defs>
	<clipPath id="SVGID_2_">
		<use xlink:href="#SVGID_1_"  style="overflow:visible;"/>
	</clipPath>
	<path class="st13" d="M35.7,47.4c1.1,0.1,2.1,0.8,2.6,2c1,2.2,0.3,4.6-0.4,7.1c-1.4,5.8,0.1,9,6.3,10.8c5.7,1.7,13.4,0.7,19.2-0.9
		c32-8.4,34.4-45.4,23.8-54.1c-3-2.5-7.1-3.1-10.9-2.7c-3.8,0.5-7.2,1.9-10.6,3.4c-2.6,0.9-4.6,2.6-6,1.2c-1.2-1.3-0.7-3.9-0.4-5.6
		c0.3-1.9,0.6-3.5,0.1-5.3l-0.1-0.5h-9.9l0.1,0.8c0.4,2.4,1,7.1,1.5,10.9c1.2,8.8,0.6,7.2,4.6,10.4c3.2,2.5,5,6.8,4.6,10.9
		c-0.4,4.1-3,7.9-6.7,9.7c-3.7,1.9-4.9,0.3-7.4-2.2c-3.5-3.5-8.6-5.1-13.4-4.5c-3.1,0.4-6.1,1.8-8.5,3.9l-0.6,0.5l7.7,7.4
		C33.2,48.5,34.1,47.3,35.7,47.4 M25.7,43.3c2.1-1.7,4.6-2.7,7.1-3.1c4.4-0.6,9,0.9,12.2,4.1c2.6,2.5,4.4,4.8,9,2.5
		c1.3-0.7,2.5-1.6,3.6-2.7c1.5,0.3,5.5,1.3,7.9,5.2l1.2-0.8c-2.4-3.8-6-5.2-8.1-5.7c1.5-2,2.5-4.4,2.8-6.9c0-0.2,0-0.5,0-0.7
		c0.8,0.2,2,0.5,3.5,0.5c2,0,4.4-0.4,6.7-1.9L71,32.6c-4,2.5-8.2,1.6-9.5,1.2c-0.3-3.8-2.2-7.6-5.2-9.9c-3.6-2.8-2.9-0.9-4-9.4
		c-0.5-3.4-1-7.6-1.4-10.2H58c0.2,1.4,0,2.6-0.2,4.2c-0.4,2.3-0.9,5.1,0.8,6.8c2.3,2.4,5.5-0.2,7.6-0.8c3.3-1.4,6.7-2.8,10.2-3.3
		c3.4-0.4,7.1,0.1,9.8,2.3c4.1,3.4,4.5,9.6,4.8,10.5c2.7,18.5-9.4,36.2-28,41.1c-5.5,1.4-13,2.5-18.4,0.9c-5.4-1.6-6.5-4-5.3-9.1
		c0.7-2.8,1.4-5.4,0.3-8.1c-0.7-1.7-2.2-2.8-4-2.8c-1.9,0-3,1.3-4.3,2.6L25.7,43.3z"/>
	<path class="st13" d="M82.3,48.5l-1.2-0.8c-4.6,6.5-11.4,11.2-19.2,13.3l0.4,1.4C70.4,60.2,77.5,55.3,82.3,48.5"/>
	<path class="st13" d="M85.4,43.2l-1.3-0.6c-0.5,1.1-1.1,2.1-1.7,3.1l1.2,0.7C84.2,45.4,84.8,44.3,85.4,43.2"/>
	<path class="st13" d="M87.7,36.4l-1.4-0.3c-0.3,1.4-0.7,2.8-1.3,4.2l1.3,0.5C86.9,39.3,87.4,37.8,87.7,36.4"/>
	<path class="st13" d="M40.7,45.2l1.1-0.9c-2.4-2.7-5.9-3.6-10.2-2.4l0.4,1.4C34.6,42.6,38.2,42.4,40.7,45.2"/>
	<path class="st13" d="M54.9,13.5l-1.4,0.1c0.1,3.1,0.8,7,3.5,8.7l0.8-1.2C55.5,19.7,55,15.7,54.9,13.5"/>
	<polygon class="st14" points="30.2,10.6 31.6,10.6 31.6,8.7 33.6,8.7 33.6,7.2 31.6,7.2 31.6,5.3 30.2,5.3 30.2,7.2 28.2,7.2 
		28.2,8.7 30.2,8.7 	"/>
	<polygon class="st14" points="31.6,30.8 31.6,29.3 33.1,29.3 33.1,27.9 31.6,27.9 31.6,26.4 30.2,26.4 30.2,27.9 28.7,27.9 
		28.7,29.3 30.2,29.3 30.2,30.8 	"/>
	<polygon class="st14" points="43.6,19.8 45,19.8 45,18.3 46.5,18.3 46.5,16.9 45,16.9 45,15.4 43.6,15.4 43.6,16.9 42.1,16.9 
		42.1,18.3 43.6,18.3 	"/>
	<polygon class="st14" points="79.2,63.1 79.2,65.1 77.2,65.1 77.2,66.5 79.2,66.5 79.2,68.4 80.6,68.4 80.6,66.5 82.6,66.5 
		82.6,65.1 80.6,65.1 80.6,63.1 	"/>
	<polygon class="st14" points="88.9,53.4 88.9,54.8 87.5,54.8 87.5,56.3 88.9,56.3 88.9,57.7 90.4,57.7 90.4,56.3 91.8,56.3 
		91.8,54.8 90.4,54.8 90.4,53.4 	"/>
</g>
</svg>
