<?xml version="1.0" encoding="utf-8"?>
<!-- Generator: Adobe Illustrator 23.0.2, SVG Export Plug-In . SVG Version: 6.00 Build 0)  -->
<svg version="1.1" id="Layer_1" xmlns="http://www.w3.org/2000/svg" xmlns:xlink="http://www.w3.org/1999/xlink" x="0px" y="0px"
	 viewBox="0 0 117 71" style="enable-background:new 0 0 117 71;" xml:space="preserve">
<style type="text/css">
	.st0{fill:#C6C5C4;}
	.st1{fill:#B12F2B;}
	.st2{fill:none;}
	.st3{fill:#C1C1C1;}
	.st4{fill:#A61E22;}
	.st5{fill:#C2C2C2;}
	.st6{fill:#A81812;}
	.st7{fill:#C79571;}
	.st8{fill:#A7C976;}
	.st9{fill:#FFFFFF;}
	.st10{fill:#EEE3D6;}
	.st11{fill:#CBCBCB;}
	.st12{fill:none;stroke:#000000;stroke-width:0.5;stroke-miterlimit:10;}
	.st13{clip-path:url(#SVGID_2_);fill:#C1C1C1;}
	.st14{clip-path:url(#SVGID_2_);fill:#A81812;}
	.st15{fill:#71D45B;}
	.st16{fill:#D1D1D1;}
</style>
<g>
	<path class="st6" d="M21.2,19.1l-0.7-0.9l-0.7,0.9c-0.1,0.1-3.2,3.6-6.2,8.4C9.4,34,7.2,39.3,7,43.5C6.9,47,8.3,50.4,10.8,53
		s5.9,4.1,9.6,4.1c3.5,0,7-1.4,9.4-3.9c2.5-2.6,3.9-5.9,3.9-9.6c0-3.9-2-9.3-6.4-15.9C24.4,22.8,21.4,19.2,21.2,19.1z M29.4,38.6
		c0.3-0.3,0.7-0.1,1,0.1c0.1,0.1,2.6,3.2,1,8.3c-0.1,0.3-0.4,0.4-0.7,0.4h-0.1c-0.3-0.1-0.6-0.4-0.4-0.9c1.4-4.3-0.6-6.8-0.7-7
		C28.9,39.2,29.1,38.8,29.4,38.6z"/>
	<path class="st5" d="M95.5,57c-3.6,0-7.1-1.4-9.6-4.1s-3.8-5.9-3.8-9.4c0.1-4.2,2.3-9.6,6.5-16.2c3.2-4.9,6.2-8.6,6.4-8.6l0.6-0.6
		l0.6,0.6c0,0,3.2,3.9,6.4,8.7c4.3,6.7,6.4,12,6.4,16.1C108.8,50.9,102.8,57,95.5,57z M95.5,20.4c-2.3,2.9-11.7,15.1-12,23.3
		c0,3.2,1.2,6.1,3.3,8.4c2.3,2.3,5.4,3.6,8.6,3.6c6.7,0,12-5.4,12-12C107.5,35.7,97.8,23.3,95.5,20.4z"/>
	<path class="st5" d="M57.9,57c-3.6,0-7.1-1.4-9.6-4.1s-3.8-5.9-3.8-9.4c0.1-4.2,2.3-9.6,6.5-16.2c3.2-4.9,6.2-8.6,6.4-8.6l0.6-0.6
		l0.6,0.6c0,0,3.2,3.9,6.4,8.7c4.3,6.7,6.4,12,6.4,16.1C71.2,50.9,65.3,57,57.9,57z M57.9,20.4c-2.3,2.9-11.7,15.1-12,23.3
		c0,3.2,1.2,6.1,3.3,8.4c2.3,2.3,5.4,3.6,8.6,3.6c6.7,0,12-5.4,12-12C69.9,35.7,60.2,23.3,57.9,20.4z"/>
</g>
</svg>
