<?xml version="1.0" encoding="utf-8"?>
<!-- Generator: Adobe Illustrator 23.0.2, SVG Export Plug-In . SVG Version: 6.00 Build 0)  -->
<svg version="1.1" id="Layer_1" xmlns="http://www.w3.org/2000/svg" xmlns:xlink="http://www.w3.org/1999/xlink" x="0px" y="0px"
	 viewBox="0 0 117 71" style="enable-background:new 0 0 117 71;" xml:space="preserve">
<style type="text/css">
	.st0{fill:#C6C5C4;}
	.st1{fill:#B12F2B;}
	.st2{fill:none;}
	.st3{fill:#C1C1C1;}
	.st4{fill:#A61E22;}
	.st5{fill:#C2C2C2;}
	.st6{fill:#A81812;}
	.st7{fill:#C79571;}
	.st8{fill:#A7C976;}
	.st9{fill:#FFFFFF;}
	.st10{fill:#EEE3D6;}
	.st11{fill:#CBCBCB;}
	.st12{fill:none;stroke:#000000;stroke-width:0.5;stroke-miterlimit:10;}
	.st13{clip-path:url(#SVGID_2_);fill:#C1C1C1;}
	.st14{clip-path:url(#SVGID_2_);fill:#A81812;}
	.st15{fill:#71D45B;}
	.st16{fill:#D1D1D1;}
</style>
<g>
	<path class="st2" d="M70.9,17.2c1,3,1.5,6.1,1.5,9.2c0,16.3-13.3,29.6-29.6,29.6c-1.3,0-2.7-0.1-4-0.3c4.9,6.5,12.5,10.3,20.6,10.3
		c14.2,0,25.8-11.6,25.8-25.8C85.2,30.6,79.6,21.6,70.9,17.2z"/>
	<path class="st5" d="M67.6,13c-0.3-0.1-0.7,0-0.9,0.3c-0.2,0.3-0.3,0.6-0.1,0.9c2,3.9,3,8,3,12.3c0,14.8-12.1,26.9-26.9,26.9
		c-2.6,0-5.2-0.4-7.8-1.1c-0.1,0-0.2,0-0.2,0c-0.3,0-0.5,0.1-0.7,0.3c-0.2,0.3-0.3,0.6-0.1,0.9c4.9,9.6,14.7,15.5,25.4,15.5
		c15.8,0,28.6-12.8,28.6-28.6C87.9,27.8,79.6,16.6,67.6,13z M59.3,67.2c-8.9,0-17.2-4.4-22.2-11.8l-0.7-1l1.2,0.2
		c1.7,0.3,3.4,0.5,5.1,0.5c15.8,0,28.6-12.8,28.6-28.6c0-3.5-0.6-6.8-1.8-10.1L69,15.3l1.1,0.5c9.7,4.3,16,14,16,24.6
		C86.2,55.2,74.2,67.2,59.3,67.2z"/>
	<path class="st6" d="M37.5,27.4h12L36.8,42.6c-0.2,0.3-0.3,0.6-0.1,0.9c0.1,0.3,0.5,0.5,0.8,0.5h13.9c0.5,0,0.9-0.4,0.9-0.9
		c0-0.5-0.4-0.9-0.9-0.9h-12L52,27c0.2-0.3,0.3-0.6,0.1-0.9c-0.1-0.3-0.5-0.5-0.8-0.5H37.5c-0.5,0-0.9,0.4-0.9,0.9
		C36.6,27,37,27.4,37.5,27.4z"/>
	<path class="st6" d="M35.6,19.4c0-0.5-0.4-0.9-0.9-0.9h-6.6l7.3-9.7c0.2-0.3,0.2-0.6,0.1-0.9c-0.1-0.3-0.4-0.5-0.8-0.5h-8.3
		c-0.5,0-0.9,0.4-0.9,0.9s0.4,0.9,0.9,0.9H33l-7.3,9.7c-0.2,0.3-0.2,0.6-0.1,0.9c0.1,0.3,0.4,0.5,0.8,0.5h8.3
		C35.2,20.2,35.6,19.8,35.6,19.4z"/>
	<path class="st6" d="M43,3.6h3.9l-4.6,7c-0.2,0.3-0.2,0.6,0,0.9c0.2,0.3,0.4,0.5,0.8,0.5h5.5c0.5,0,0.9-0.4,0.9-0.9
		s-0.4-0.9-0.9-0.9h-3.9l4.6-7c0.2-0.3,0.2-0.6,0-0.9c-0.2-0.3-0.4-0.5-0.8-0.5H43c-0.5,0-0.9,0.4-0.9,0.9S42.5,3.6,43,3.6z"/>
</g>
</svg>
