<?xml version="1.0" encoding="utf-8"?>
<!-- Generator: Adobe Illustrator 25.1.0, SVG Export Plug-In . SVG Version: 6.00 Build 0)  -->
<svg version="1.1" id="Layer_1" xmlns="http://www.w3.org/2000/svg" xmlns:xlink="http://www.w3.org/1999/xlink" x="0px" y="0px"
	 viewBox="0 0 60.94 39.23" style="enable-background:new 0 0 60.94 39.23;" xml:space="preserve">
<style type="text/css">
	.Drop_x0020_Shadow{fill:none;}
	.Round_x0020_Corners_x0020_2_x0020_pt{fill:#FFFFFF;stroke:#000000;stroke-miterlimit:10;}
	.Live_x0020_Reflect_x0020_X{fill:none;}
	.Bevel_x0020_Soft{fill:url(#SVGID_1_);}
	.Dusk{fill:#FFFFFF;}
	.Foliage_GS{fill:#FFDE00;}
	.Pompadour_GS{fill-rule:evenodd;clip-rule:evenodd;fill:#45ADE2;}
	.st0{fill:#955B30;}
	.st1{clip-path:url(#SVGID_3_);fill:#955B30;}
</style>
<linearGradient id="SVGID_1_" gradientUnits="userSpaceOnUse" x1="-4.5957" y1="-19.0213" x2="-3.8886" y2="-18.3142">
	<stop  offset="0" style="stop-color:#DFE0E4"/>
	<stop  offset="0.1736" style="stop-color:#D9DADE"/>
	<stop  offset="0.3517" style="stop-color:#CACBCE"/>
	<stop  offset="0.5317" style="stop-color:#B4B5B8"/>
	<stop  offset="0.7132" style="stop-color:#989A9D"/>
	<stop  offset="0.894" style="stop-color:#797D7E"/>
	<stop  offset="1" style="stop-color:#656C6D"/>
</linearGradient>
<g>
	<path class="st0" d="M7.81,4.29c0.14-0.02,0.32-0.05,0.55-0.09c0.23-0.04,0.45-0.08,0.67-0.12c0.31-0.06,0.61-0.12,0.9-0.17
		c0.29-0.06,0.49-0.1,0.61-0.12c0.7-0.12,1.22-0.06,1.58,0.18c0.35,0.24,0.53,0.59,0.53,1.05c0,0.23-0.05,0.47-0.14,0.71
		c-0.1,0.24-0.26,0.47-0.48,0.69c-0.22,0.22-0.52,0.42-0.89,0.59c0,0.01,0,0.01,0,0.02C11.64,7,12.05,7.06,12.35,7.2
		c0.3,0.14,0.5,0.32,0.62,0.55c0.12,0.23,0.18,0.48,0.18,0.75c0,0.57-0.21,1.06-0.63,1.49c-0.42,0.43-1.01,0.71-1.76,0.83
		c-0.15,0.03-0.37,0.06-0.66,0.1c-0.29,0.04-0.64,0.1-1.06,0.18c-0.23,0.04-0.46,0.09-0.69,0.14c-0.23,0.05-0.41,0.09-0.55,0.13
		c0-0.07,0-0.13,0-0.2c0.23-0.06,0.4-0.12,0.51-0.18c0.12-0.06,0.19-0.16,0.23-0.29c0.04-0.13,0.06-0.31,0.06-0.55
		c0-1.65,0-3.31,0-4.96c0-0.25-0.02-0.42-0.06-0.53c-0.04-0.11-0.12-0.17-0.23-0.2C8.21,4.45,8.04,4.46,7.81,4.49
		C7.81,4.43,7.81,4.36,7.81,4.29z M10.28,4.03c-0.31,0.05-0.5,0.15-0.6,0.28C9.59,4.44,9.54,4.68,9.54,5.02c0,1.65,0,3.31,0,4.96
		c0,0.35,0.05,0.56,0.14,0.65c0.1,0.09,0.3,0.1,0.6,0.05c0.65-0.11,1.12-0.34,1.42-0.7c0.3-0.35,0.44-0.81,0.44-1.37
		c0-0.51-0.14-0.89-0.41-1.12c-0.28-0.23-0.73-0.3-1.36-0.19C10.04,7.36,9.7,7.42,9.36,7.49c0-0.06,0-0.11,0-0.17
		c0.29-0.05,0.57-0.1,0.86-0.16c0.39-0.07,0.69-0.2,0.91-0.38c0.21-0.19,0.36-0.41,0.44-0.67c0.08-0.26,0.12-0.54,0.12-0.82
		c0-0.49-0.11-0.85-0.32-1.06C11.14,4.01,10.78,3.94,10.28,4.03z"/>
	<path class="st0" d="M18.96,2.63c-0.03,0.24-0.05,0.46-0.06,0.69c-0.01,0.22-0.02,0.39-0.02,0.5c0,0.12,0,0.23,0.01,0.34
		c0.01,0.11,0.01,0.2,0.02,0.27c-0.08,0.01-0.15,0.02-0.23,0.02c-0.04-0.39-0.1-0.7-0.17-0.92c-0.07-0.22-0.2-0.37-0.38-0.45
		c-0.18-0.08-0.44-0.1-0.8-0.06c-0.28,0.03-0.55,0.06-0.83,0.1c-0.23,0.03-0.4,0.07-0.52,0.12c-0.12,0.05-0.2,0.14-0.24,0.26
		c-0.04,0.12-0.06,0.31-0.06,0.55c0,1.65,0,3.31,0,4.96c0,0.24,0.02,0.42,0.06,0.53c0.04,0.12,0.12,0.18,0.24,0.2
		c0.12,0.02,0.29,0.02,0.52-0.01c0.24-0.03,0.49-0.06,0.73-0.09c0.42-0.05,0.74-0.14,0.96-0.28c0.22-0.14,0.37-0.34,0.47-0.6
		c0.1-0.27,0.17-0.62,0.22-1.07c0.08-0.01,0.15-0.02,0.23-0.02c-0.02,0.18-0.03,0.42-0.03,0.72c0,0.13,0,0.31,0.02,0.54
		c0.01,0.24,0.03,0.48,0.05,0.73C18.82,9.71,18.43,9.74,18,9.79c-0.43,0.04-0.81,0.09-1.14,0.12c-0.2,0.02-0.47,0.06-0.8,0.1
		c-0.33,0.04-0.68,0.09-1.06,0.14c-0.37,0.05-0.72,0.11-1.05,0.17c0-0.07,0-0.13,0-0.2c0.23-0.05,0.4-0.1,0.52-0.15
		c0.12-0.06,0.19-0.15,0.24-0.27c0.04-0.13,0.06-0.31,0.06-0.55c0-1.65,0-3.31,0-4.96c0-0.25-0.02-0.43-0.06-0.54
		c-0.04-0.11-0.12-0.18-0.24-0.21c-0.12-0.03-0.29-0.03-0.52,0c0-0.07,0-0.13,0-0.2c0.33-0.04,0.68-0.08,1.05-0.13
		c0.37-0.04,0.73-0.09,1.06-0.13c0.33-0.04,0.6-0.07,0.8-0.1c0.31-0.04,0.66-0.08,1.05-0.12C18.3,2.72,18.65,2.68,18.96,2.63z
		 M17.23,6.24c0,0.07,0,0.13,0,0.2c-0.61,0.07-1.22,0.15-1.83,0.23c0-0.07,0-0.13,0-0.2C16.01,6.38,16.62,6.31,17.23,6.24z
		 M17.52,4.88c-0.03,0.38-0.04,0.67-0.04,0.87c0,0.2,0.01,0.38,0.01,0.55c0,0.17,0,0.35,0.01,0.55c0.01,0.2,0.02,0.49,0.05,0.86
		c-0.08,0.01-0.15,0.02-0.23,0.03c-0.03-0.21-0.06-0.41-0.1-0.61c-0.04-0.2-0.12-0.36-0.24-0.47c-0.12-0.12-0.33-0.16-0.63-0.12
		c0-0.07,0-0.13,0-0.2c0.29-0.04,0.5-0.14,0.62-0.3c0.12-0.17,0.19-0.36,0.23-0.57c0.03-0.21,0.06-0.4,0.09-0.56
		C17.37,4.9,17.44,4.89,17.52,4.88z"/>
	<path class="st0" d="M26.38,2.13c0,0.07,0,0.13,0,0.2c-0.23,0.02-0.4,0.06-0.52,0.12c-0.12,0.06-0.2,0.16-0.24,0.3
		c-0.04,0.14-0.06,0.33-0.06,0.57c0,1.99,0,3.98,0,5.97c-0.04,0-0.08,0-0.12,0.01c-0.04,0-0.08,0-0.12,0.01
		c-1.41-2.1-2.82-4.17-4.23-6.22c0,1.76,0,3.52,0,5.28c0,0.24,0.02,0.43,0.07,0.56c0.04,0.13,0.13,0.22,0.26,0.27
		c0.13,0.05,0.33,0.07,0.59,0.06c0,0.07,0,0.13,0,0.2c-0.12,0-0.28,0-0.47,0.01C21.36,9.47,21.17,9.48,21,9.5
		c-0.17,0.01-0.34,0.03-0.51,0.05c-0.17,0.02-0.31,0.04-0.43,0.06c0-0.07,0-0.13,0-0.2c0.23-0.03,0.4-0.08,0.52-0.15
		c0.12-0.07,0.2-0.17,0.24-0.31c0.04-0.14,0.06-0.33,0.06-0.57c0-1.62,0-3.24,0-4.86c0-0.25-0.02-0.43-0.06-0.54
		c-0.04-0.11-0.12-0.19-0.24-0.22c-0.12-0.03-0.29-0.04-0.52-0.03c0-0.07,0-0.13,0-0.2c0.11,0,0.26-0.01,0.43-0.02
		C20.66,2.5,20.83,2.49,21,2.48c0.15-0.01,0.29-0.03,0.42-0.04c0.13-0.02,0.25-0.03,0.36-0.05c1.18,1.72,2.37,3.47,3.55,5.23
		c0-1.43,0-2.85,0-4.28c0-0.25-0.02-0.44-0.07-0.57c-0.04-0.13-0.13-0.22-0.26-0.28c-0.13-0.05-0.33-0.08-0.59-0.07
		c0-0.07,0-0.13,0-0.2c0.12,0,0.28,0,0.48,0c0.2,0,0.38-0.01,0.55-0.02c0.17-0.01,0.35-0.02,0.52-0.03
		C26.14,2.15,26.27,2.14,26.38,2.13z"/>
	<path class="st0" d="M32.2,2.06c-0.03,0.23-0.05,0.46-0.06,0.68c-0.01,0.22-0.02,0.39-0.02,0.5c0,0.12,0,0.23,0.01,0.34
		c0.01,0.11,0.01,0.2,0.02,0.28c-0.08,0-0.15,0-0.23,0c-0.04-0.39-0.1-0.71-0.17-0.94c-0.07-0.23-0.2-0.4-0.38-0.49
		c-0.18-0.1-0.45-0.15-0.8-0.15c-0.28,0-0.56,0-0.84,0c-0.23,0-0.4,0.02-0.52,0.06c-0.12,0.04-0.2,0.12-0.24,0.23
		c-0.04,0.12-0.06,0.3-0.06,0.55c0,1.65,0,3.31,0,4.96c0,0.24,0.02,0.42,0.06,0.54c0.04,0.12,0.12,0.2,0.24,0.23
		c0.12,0.04,0.29,0.05,0.52,0.05c0.25,0,0.49,0,0.74,0c0.42,0,0.74-0.06,0.96-0.17c0.22-0.11,0.38-0.3,0.47-0.55
		c0.1-0.26,0.17-0.6,0.22-1.04c0.08,0,0.15,0,0.23,0c-0.02,0.18-0.03,0.42-0.03,0.72c0,0.13,0,0.31,0.02,0.55
		c0.01,0.24,0.03,0.48,0.06,0.74c-0.34-0.02-0.73-0.03-1.16-0.04C30.81,9.1,30.43,9.1,30.09,9.1c-0.2,0-0.47,0-0.8,0.01
		c-0.33,0-0.69,0.01-1.06,0.02c-0.38,0.01-0.73,0.03-1.06,0.05c0-0.07,0-0.13,0-0.2c0.23-0.02,0.4-0.05,0.52-0.09
		c0.12-0.04,0.2-0.12,0.24-0.25c0.04-0.12,0.06-0.3,0.06-0.54c0-1.65,0-3.31,0-4.96c0-0.25-0.02-0.43-0.06-0.54
		c-0.04-0.12-0.12-0.19-0.24-0.23C27.57,2.32,27.4,2.3,27.17,2.3c0-0.07,0-0.13,0-0.2c0.33,0,0.68,0,1.06-0.01
		c0.38,0,0.73,0,1.06-0.01c0.33,0,0.6-0.01,0.8-0.01c0.31,0,0.66,0,1.05-0.01C31.54,2.08,31.89,2.07,32.2,2.06z M30.46,5.47
		c0,0.07,0,0.13,0,0.2c-0.61,0-1.23,0.01-1.84,0.02c0-0.07,0-0.13,0-0.2C29.23,5.48,29.85,5.47,30.46,5.47z M30.76,4.15
		c-0.03,0.38-0.04,0.67-0.04,0.87c0,0.2,0.01,0.38,0.01,0.55c0,0.17,0,0.35,0.01,0.55c0.01,0.2,0.02,0.49,0.05,0.87
		c-0.08,0-0.15,0-0.23,0c-0.03-0.21-0.06-0.42-0.1-0.62c-0.04-0.2-0.12-0.37-0.24-0.5c-0.12-0.13-0.33-0.19-0.63-0.19
		c0-0.07,0-0.13,0-0.2c0.3,0,0.5-0.08,0.62-0.23c0.12-0.15,0.19-0.33,0.23-0.54c0.03-0.21,0.06-0.39,0.09-0.55
		C30.6,4.15,30.68,4.15,30.76,4.15z"/>
	<path class="st0" d="M38.33,2.31c-0.03,0.25-0.05,0.5-0.06,0.73c-0.01,0.24-0.02,0.42-0.02,0.54c0,0.16,0,0.31,0.01,0.45
		c0.01,0.14,0.01,0.26,0.02,0.37c-0.08-0.01-0.15-0.01-0.23-0.02c-0.05-0.47-0.11-0.84-0.19-1.12C37.79,3,37.65,2.79,37.45,2.66
		c-0.2-0.13-0.51-0.21-0.94-0.23c-0.21-0.01-0.42-0.02-0.63-0.03c-0.23-0.01-0.4,0-0.52,0.03c-0.12,0.03-0.2,0.11-0.24,0.22
		c-0.04,0.12-0.06,0.3-0.06,0.54c0,1.65,0,3.31,0,4.96c0,0.24,0.02,0.42,0.07,0.54c0.05,0.12,0.15,0.21,0.3,0.25
		c0.15,0.05,0.36,0.08,0.65,0.11c0,0.07,0,0.13,0,0.2c-0.18-0.02-0.4-0.04-0.66-0.05c-0.27-0.01-0.54-0.03-0.82-0.04
		c-0.26-0.01-0.51-0.02-0.74-0.02c-0.23,0-0.41,0-0.55,0.01c0-0.07,0-0.13,0-0.2c0.23-0.01,0.4-0.03,0.52-0.07
		c0.12-0.04,0.2-0.11,0.24-0.23c0.04-0.12,0.06-0.3,0.06-0.54c0-1.65,0-3.31,0-4.96c0-0.25-0.02-0.43-0.06-0.55
		c-0.04-0.12-0.12-0.2-0.24-0.25c-0.12-0.05-0.29-0.08-0.52-0.09c0-0.07,0-0.13,0-0.2c0.33,0.01,0.68,0.03,1.06,0.05
		c0.38,0.02,0.73,0.04,1.06,0.05c0.33,0.01,0.6,0.03,0.8,0.04c0.31,0.01,0.66,0.03,1.05,0.05C37.67,2.29,38.02,2.3,38.33,2.31z
		 M36.77,5.73c0,0.07,0,0.13,0,0.2c-0.67-0.04-1.34-0.07-2.01-0.09c0-0.07,0-0.13,0-0.2C35.43,5.67,36.1,5.7,36.77,5.73z
		 M36.96,4.42c-0.03,0.38-0.04,0.67-0.04,0.87c0,0.2,0.01,0.38,0.01,0.55c0,0.17,0,0.35,0.01,0.55c0.01,0.2,0.02,0.49,0.05,0.87
		c-0.08,0-0.15-0.01-0.23-0.01c-0.03-0.21-0.06-0.42-0.1-0.63c-0.04-0.21-0.12-0.38-0.24-0.51c-0.12-0.14-0.33-0.21-0.63-0.22
		c0-0.07,0-0.13,0-0.2c0.3,0.01,0.5-0.05,0.62-0.2c0.12-0.15,0.19-0.32,0.23-0.53c0.03-0.2,0.06-0.39,0.09-0.55
		C36.81,4.42,36.88,4.42,36.96,4.42z"/>
	<path class="st0" d="M41.6,2.57c0,0.07,0,0.13,0,0.2c-0.23-0.01-0.4-0.01-0.52,0.03c-0.12,0.03-0.2,0.11-0.24,0.22
		c-0.04,0.11-0.06,0.29-0.06,0.54c0,1.65,0,3.31,0,4.96c0,0.24,0.02,0.42,0.06,0.55c0.04,0.12,0.12,0.21,0.24,0.26
		c0.12,0.05,0.29,0.09,0.52,0.13c0,0.07,0,0.13,0,0.2c-0.15-0.03-0.35-0.05-0.58-0.08c-0.23-0.02-0.46-0.05-0.7-0.07
		c-0.26-0.02-0.51-0.04-0.73-0.05c-0.23-0.01-0.41-0.02-0.55-0.02c0-0.07,0-0.13,0-0.2c0.23,0,0.4-0.01,0.52-0.04
		c0.12-0.03,0.2-0.1,0.24-0.22c0.04-0.12,0.06-0.29,0.06-0.54c0-1.65,0-3.31,0-4.96c0-0.25-0.02-0.43-0.06-0.55
		c-0.04-0.12-0.12-0.21-0.24-0.26c-0.12-0.05-0.29-0.09-0.52-0.11c0-0.07,0-0.13,0-0.2c0.14,0.02,0.33,0.04,0.55,0.06
		c0.23,0.02,0.47,0.05,0.73,0.07c0.23,0.02,0.47,0.04,0.7,0.05C41.25,2.55,41.44,2.56,41.6,2.57z"/>
	<path class="st0" d="M47.95,3.35c-0.03,0.25-0.04,0.49-0.05,0.73c-0.01,0.24-0.02,0.42-0.02,0.54c0,0.16,0,0.31,0.01,0.45
		c0.01,0.14,0.01,0.27,0.02,0.37c-0.08-0.01-0.15-0.02-0.23-0.03c-0.05-0.47-0.11-0.85-0.19-1.13c-0.08-0.28-0.22-0.5-0.42-0.65
		c-0.2-0.15-0.51-0.25-0.93-0.31c-0.18-0.02-0.36-0.05-0.54-0.07c0,1.9,0,3.79,0,5.69c0,0.27,0.02,0.47,0.07,0.61
		c0.05,0.14,0.15,0.24,0.3,0.31c0.15,0.07,0.36,0.12,0.64,0.18c0,0.07,0,0.13,0,0.2c-0.17-0.04-0.39-0.08-0.66-0.11
		c-0.27-0.04-0.54-0.08-0.81-0.11c-0.3-0.04-0.58-0.07-0.85-0.1c-0.26-0.03-0.48-0.04-0.64-0.05c0-0.07,0-0.13,0-0.2
		c0.28,0.02,0.49,0.01,0.64-0.02c0.15-0.03,0.25-0.11,0.3-0.23c0.05-0.13,0.07-0.32,0.07-0.59c0-1.9,0-3.79,0-5.69
		c-0.18-0.02-0.36-0.04-0.54-0.06c-0.41-0.05-0.72-0.02-0.93,0.08c-0.2,0.1-0.35,0.28-0.43,0.54c-0.08,0.26-0.14,0.62-0.19,1.09
		c-0.08-0.01-0.15-0.02-0.23-0.02c0.01-0.11,0.02-0.23,0.03-0.37c0-0.14,0-0.29,0-0.45c0-0.13,0-0.31-0.02-0.55
		c-0.01-0.24-0.03-0.48-0.05-0.74c0.28,0.04,0.59,0.07,0.92,0.12c0.33,0.04,0.66,0.08,1,0.12c0.33,0.04,0.64,0.08,0.91,0.11
		c0.27,0.03,0.58,0.07,0.91,0.12c0.33,0.04,0.66,0.09,1,0.13C47.38,3.28,47.68,3.31,47.95,3.35z"/>
	<path class="st0" d="M50.8,3.7c0.33,0.06,0.58,0.14,0.76,0.25c0.17,0.11,0.32,0.22,0.46,0.34c0.08,0.06,0.14,0.11,0.19,0.14
		c0.05,0.03,0.1,0.05,0.14,0.06c0.11,0.02,0.18-0.11,0.22-0.4c0.08,0.01,0.15,0.03,0.23,0.04c-0.01,0.11-0.02,0.25-0.03,0.4
		c-0.01,0.15-0.02,0.36-0.02,0.62c0,0.26-0.01,0.59-0.01,1.01c-0.08-0.01-0.15-0.03-0.23-0.04c-0.02-0.32-0.09-0.64-0.21-0.96
		c-0.12-0.32-0.29-0.59-0.52-0.82c-0.23-0.23-0.53-0.38-0.9-0.44c-0.35-0.06-0.64,0-0.87,0.17c-0.23,0.17-0.34,0.44-0.34,0.78
		c0,0.3,0.08,0.56,0.23,0.79c0.15,0.23,0.36,0.45,0.61,0.65c0.26,0.21,0.53,0.43,0.83,0.67c0.35,0.28,0.65,0.54,0.92,0.8
		c0.27,0.26,0.48,0.53,0.64,0.82c0.16,0.28,0.23,0.61,0.23,0.97c0,0.43-0.1,0.76-0.29,1c-0.19,0.24-0.45,0.4-0.77,0.48
		c-0.32,0.08-0.67,0.09-1.05,0.02c-0.35-0.06-0.63-0.15-0.84-0.27c-0.21-0.12-0.38-0.23-0.53-0.34c-0.15-0.12-0.26-0.18-0.34-0.2
		c-0.11-0.02-0.18,0.12-0.22,0.4c-0.08-0.01-0.15-0.02-0.23-0.04c0.01-0.14,0.02-0.3,0.03-0.49c0-0.19,0.01-0.44,0.01-0.74
		c0-0.31,0-0.69,0-1.16c0.08,0.01,0.15,0.02,0.23,0.04c0.03,0.4,0.1,0.79,0.22,1.16c0.12,0.37,0.31,0.68,0.57,0.93
		c0.26,0.25,0.6,0.42,1.02,0.49c0.33,0.06,0.62,0.01,0.89-0.15c0.27-0.16,0.4-0.47,0.4-0.94c0-0.41-0.14-0.77-0.43-1.09
		c-0.28-0.32-0.66-0.66-1.13-1.02c-0.31-0.25-0.6-0.49-0.88-0.74c-0.27-0.25-0.49-0.51-0.65-0.8C49,5.82,48.92,5.49,48.92,5.12
		c0-0.39,0.09-0.7,0.27-0.93c0.18-0.23,0.41-0.38,0.69-0.46C50.17,3.65,50.47,3.64,50.8,3.7z"/>
	<path class="st0" d="M4.69,15.82c0.63-0.14,1.18-0.12,1.65,0.07c0.47,0.19,0.84,0.52,1.1,1.01C7.7,17.38,7.83,18,7.83,18.77
		c0,0.75-0.13,1.43-0.4,2.04c-0.27,0.61-0.64,1.13-1.12,1.54c-0.48,0.41-1.02,0.69-1.63,0.83c-0.63,0.14-1.17,0.13-1.64-0.04
		c-0.47-0.17-0.83-0.49-1.09-0.97c-0.26-0.47-0.39-1.09-0.39-1.85c0-0.75,0.13-1.43,0.4-2.06c0.27-0.63,0.64-1.16,1.11-1.58
		C3.54,16.24,4.08,15.96,4.69,15.82z M4.65,16.01c-0.43,0.1-0.8,0.34-1.12,0.71c-0.32,0.38-0.56,0.85-0.74,1.42
		c-0.17,0.57-0.26,1.2-0.26,1.89c0,0.71,0.1,1.3,0.29,1.77c0.19,0.48,0.46,0.82,0.79,1.02c0.33,0.2,0.7,0.26,1.1,0.17
		c0.43-0.1,0.8-0.33,1.12-0.7c0.32-0.37,0.56-0.84,0.74-1.4c0.17-0.57,0.26-1.19,0.26-1.88c0-0.71-0.1-1.31-0.29-1.79
		c-0.2-0.48-0.46-0.83-0.79-1.04C5.43,15.97,5.06,15.92,4.65,16.01z"/>
	<path class="st0" d="M13.68,14.28c-0.03,0.26-0.04,0.5-0.06,0.74c-0.01,0.24-0.02,0.42-0.02,0.55c0,0.16,0,0.31,0.01,0.45
		c0.01,0.14,0.01,0.26,0.02,0.37c-0.08,0.01-0.15,0.02-0.23,0.03c-0.05-0.46-0.11-0.82-0.19-1.08c-0.08-0.26-0.22-0.43-0.42-0.52
		c-0.2-0.09-0.51-0.1-0.93-0.03c-0.21,0.03-0.42,0.07-0.63,0.1c-0.23,0.04-0.4,0.09-0.51,0.14c-0.12,0.06-0.19,0.15-0.23,0.27
		c-0.04,0.12-0.06,0.31-0.06,0.56c0,1.65,0,3.31,0,4.96c0,0.24,0.02,0.42,0.07,0.53c0.05,0.11,0.15,0.17,0.29,0.19
		c0.15,0.01,0.36,0.01,0.64-0.03c0,0.07,0,0.13,0,0.2c-0.17,0.02-0.39,0.04-0.66,0.09c-0.27,0.04-0.53,0.09-0.81,0.14
		c-0.26,0.05-0.5,0.09-0.73,0.14c-0.23,0.05-0.41,0.09-0.55,0.13c0-0.07,0-0.13,0-0.2c0.23-0.06,0.4-0.12,0.51-0.18
		c0.12-0.06,0.19-0.16,0.23-0.28c0.04-0.13,0.06-0.31,0.06-0.55c0-1.65,0-3.31,0-4.96c0-0.25-0.02-0.43-0.06-0.53
		c-0.04-0.11-0.12-0.17-0.23-0.2c-0.12-0.02-0.29-0.01-0.51,0.02c0-0.07,0-0.13,0-0.2c0.32-0.06,0.67-0.11,1.05-0.18
		c0.37-0.06,0.72-0.12,1.05-0.18c0.33-0.06,0.59-0.1,0.79-0.13c0.31-0.05,0.65-0.11,1.04-0.17C13.02,14.4,13.37,14.34,13.68,14.28z
		 M12.13,18.04c0,0.07,0,0.13,0,0.2c-0.67,0.11-1.33,0.22-1.99,0.34c0-0.07,0-0.13,0-0.2C10.8,18.26,11.46,18.15,12.13,18.04z
		 M12.32,16.69c-0.03,0.38-0.04,0.68-0.03,0.88c0,0.2,0,0.38,0,0.55c0,0.17,0,0.35,0.01,0.55c0.01,0.2,0.02,0.49,0.05,0.86
		c-0.08,0.01-0.15,0.02-0.23,0.04c-0.03-0.21-0.06-0.41-0.1-0.61c-0.04-0.2-0.12-0.35-0.24-0.46c-0.12-0.11-0.33-0.14-0.62-0.09
		c0-0.07,0-0.13,0-0.2c0.29-0.05,0.5-0.16,0.61-0.33c0.12-0.17,0.19-0.36,0.22-0.58c0.03-0.21,0.06-0.4,0.09-0.56
		C12.16,16.71,12.24,16.7,12.32,16.69z"/>
	<path class="st0" d="M18.78,13.54c0.33-0.03,0.59-0.02,0.76,0.04c0.17,0.06,0.33,0.13,0.46,0.21c0.08,0.04,0.15,0.07,0.2,0.09
		c0.05,0.02,0.1,0.03,0.15,0.02c0.11-0.01,0.18-0.16,0.22-0.46c0.08-0.01,0.15-0.01,0.23-0.02c-0.01,0.11-0.01,0.25-0.03,0.41
		c-0.01,0.16-0.02,0.36-0.02,0.62c0,0.26,0,0.6,0,1.02c-0.08,0.01-0.15,0.01-0.23,0.02c-0.02-0.32-0.09-0.62-0.21-0.9
		c-0.12-0.28-0.3-0.51-0.53-0.67c-0.23-0.16-0.53-0.23-0.91-0.19c-0.35,0.04-0.65,0.17-0.88,0.41c-0.23,0.24-0.35,0.53-0.35,0.88
		c0,0.3,0.08,0.54,0.23,0.73c0.15,0.19,0.36,0.35,0.62,0.48c0.26,0.14,0.54,0.28,0.84,0.44c0.35,0.18,0.66,0.36,0.93,0.55
		c0.27,0.19,0.49,0.4,0.64,0.64c0.16,0.24,0.24,0.54,0.24,0.9c0,0.43-0.1,0.79-0.29,1.08c-0.19,0.3-0.45,0.53-0.77,0.7
		c-0.32,0.17-0.68,0.27-1.06,0.31c-0.36,0.04-0.64,0.02-0.84-0.03c-0.21-0.06-0.39-0.12-0.53-0.19c-0.15-0.08-0.26-0.11-0.34-0.1
		c-0.11,0.01-0.18,0.17-0.22,0.47C16.99,21,16.92,21,16.84,21.01c0.01-0.14,0.02-0.31,0.02-0.5c0-0.19,0.01-0.44,0.01-0.75
		c0-0.31,0-0.69,0-1.16c0.08-0.01,0.15-0.02,0.23-0.03c0.03,0.4,0.1,0.76,0.23,1.09c0.12,0.33,0.31,0.59,0.57,0.77
		c0.26,0.18,0.6,0.25,1.03,0.21c0.33-0.03,0.63-0.17,0.9-0.4c0.27-0.23,0.41-0.58,0.41-1.05c0-0.41-0.14-0.73-0.43-0.97
		c-0.29-0.24-0.67-0.48-1.13-0.71c-0.31-0.16-0.61-0.33-0.88-0.5c-0.27-0.17-0.49-0.38-0.66-0.62c-0.16-0.24-0.25-0.55-0.25-0.93
		c0-0.39,0.09-0.73,0.27-1.01c0.18-0.28,0.41-0.49,0.7-0.65C18.14,13.67,18.45,13.57,18.78,13.54z"/>
	<path class="st0" d="M24.83,13.14c0.82,2.06,1.64,4.12,2.46,6.19c0.1,0.25,0.22,0.42,0.34,0.5c0.13,0.08,0.25,0.12,0.35,0.13
		c0,0.07,0,0.13,0,0.2c-0.13-0.01-0.3-0.01-0.49-0.01c-0.19,0-0.39,0.01-0.58,0.01c-0.26,0.01-0.51,0.02-0.74,0.03
		c-0.23,0.01-0.41,0.03-0.55,0.05c0-0.07,0-0.13,0-0.2c0.34-0.03,0.56-0.09,0.66-0.2c0.09-0.11,0.07-0.33-0.06-0.66
		c-0.62-1.63-1.25-3.26-1.87-4.88c0.05-0.05,0.11-0.09,0.16-0.14c-0.58,1.54-1.17,3.08-1.75,4.62c-0.14,0.37-0.21,0.66-0.2,0.86
		c0.01,0.2,0.08,0.34,0.23,0.42c0.15,0.08,0.36,0.11,0.64,0.1c0,0.07,0,0.13,0,0.2c-0.19,0-0.38,0-0.59,0.01
		c-0.2,0.01-0.39,0.02-0.57,0.03c-0.17,0.01-0.31,0.02-0.43,0.04c-0.12,0.01-0.23,0.03-0.33,0.05c0-0.07,0-0.13,0-0.2
		c0.13-0.04,0.27-0.13,0.41-0.27c0.14-0.13,0.27-0.35,0.38-0.66c0.79-2.08,1.58-4.14,2.37-6.2c0.03,0,0.05,0,0.08,0
		C24.78,13.15,24.8,13.14,24.83,13.14z M26.06,17.34c0,0.07,0,0.13,0,0.2c-1,0.04-2,0.09-3,0.16c0.03-0.07,0.07-0.14,0.1-0.21
		C24.13,17.43,25.09,17.38,26.06,17.34z"/>
	<path class="st0" d="M33.17,13.08c-0.03,0.25-0.05,0.5-0.06,0.73c-0.01,0.24-0.02,0.42-0.02,0.54c0,0.16,0,0.31,0.01,0.45
		c0.01,0.14,0.01,0.26,0.02,0.37c-0.08,0-0.15,0-0.23,0c-0.05-0.47-0.11-0.84-0.19-1.11c-0.08-0.27-0.22-0.47-0.42-0.59
		c-0.2-0.12-0.51-0.19-0.94-0.19c-0.21,0-0.42,0-0.63,0c-0.23,0-0.4,0.02-0.52,0.06c-0.12,0.04-0.2,0.11-0.24,0.23
		c-0.04,0.12-0.06,0.3-0.06,0.55c0,1.65,0,3.31,0,4.96c0,0.24,0.03,0.42,0.08,0.54c0.05,0.12,0.15,0.2,0.3,0.24
		c0.15,0.04,0.36,0.07,0.65,0.08c0,0.07,0,0.13,0,0.2c-0.17-0.01-0.4-0.02-0.67-0.03c-0.27,0-0.54,0-0.82,0
		c-0.26,0-0.51,0.01-0.74,0.01c-0.23,0.01-0.41,0.02-0.55,0.04c0-0.07,0-0.13,0-0.2c0.23-0.02,0.4-0.05,0.52-0.09
		c0.12-0.04,0.2-0.12,0.24-0.24c0.04-0.12,0.06-0.3,0.06-0.54c0-1.65,0-3.31,0-4.96c0-0.25-0.02-0.43-0.06-0.55
		c-0.04-0.12-0.12-0.19-0.24-0.24c-0.12-0.04-0.29-0.06-0.52-0.07c0-0.07,0-0.13,0-0.2c0.33,0,0.68,0,1.06,0c0.38,0,0.73,0,1.06,0
		c0.33,0,0.6,0,0.8,0c0.31,0,0.66,0,1.05,0C32.51,13.09,32.87,13.09,33.17,13.08z M31.61,16.58c0,0.07,0,0.13,0,0.2
		c-0.67-0.01-1.34-0.01-2.02,0c0-0.07,0-0.13,0-0.2C30.27,16.57,30.94,16.57,31.61,16.58z M31.8,15.26
		c-0.03,0.38-0.04,0.67-0.03,0.87c0,0.2,0,0.38,0,0.55c0,0.17,0,0.35,0.01,0.55c0.01,0.2,0.02,0.49,0.05,0.87c-0.08,0-0.15,0-0.23,0
		c-0.03-0.21-0.06-0.42-0.1-0.63c-0.04-0.2-0.12-0.37-0.24-0.5c-0.12-0.13-0.33-0.2-0.63-0.2c0-0.07,0-0.13,0-0.2
		c0.3,0,0.5-0.08,0.62-0.23c0.12-0.15,0.19-0.33,0.23-0.54c0.03-0.21,0.06-0.39,0.09-0.55C31.65,15.26,31.73,15.26,31.8,15.26z"/>
	<path class="st0" d="M38.9,13.35c-0.03,0.25-0.05,0.49-0.06,0.73c-0.01,0.24-0.02,0.42-0.02,0.54c0,0.16,0,0.31,0.01,0.45
		c0.01,0.14,0.01,0.26,0.02,0.37c-0.08-0.01-0.15-0.01-0.23-0.02c-0.05-0.47-0.11-0.84-0.19-1.12c-0.08-0.28-0.22-0.48-0.42-0.61
		c-0.2-0.13-0.52-0.21-0.94-0.24c-0.21-0.01-0.42-0.02-0.63-0.03c-0.23-0.01-0.4,0-0.52,0.03c-0.12,0.03-0.2,0.1-0.24,0.22
		c-0.04,0.12-0.06,0.3-0.06,0.54c0,1.65,0,3.31,0,4.96c0,0.24,0.02,0.42,0.07,0.54c0.05,0.12,0.15,0.21,0.3,0.25
		c0.15,0.05,0.36,0.08,0.64,0.11c0,0.07,0,0.13,0,0.2c-0.17-0.02-0.4-0.04-0.66-0.06c-0.27-0.02-0.54-0.03-0.82-0.04
		c-0.26-0.01-0.51-0.02-0.74-0.02c-0.23,0-0.41,0-0.55,0.01c0-0.07,0-0.13,0-0.2c0.23-0.01,0.4-0.03,0.52-0.06
		c0.12-0.04,0.2-0.11,0.24-0.23c0.04-0.12,0.06-0.3,0.06-0.54c0-1.65,0-3.31,0-4.96c0-0.25-0.02-0.43-0.06-0.55
		c-0.04-0.12-0.12-0.2-0.24-0.25c-0.12-0.05-0.29-0.08-0.52-0.09c0-0.07,0-0.13,0-0.2c0.33,0.02,0.68,0.03,1.06,0.05
		c0.38,0.02,0.73,0.04,1.06,0.06c0.33,0.02,0.6,0.03,0.8,0.04c0.31,0.02,0.66,0.03,1.05,0.06C38.25,13.32,38.6,13.34,38.9,13.35z
		 M37.34,16.77c0,0.07,0,0.13,0,0.2c-0.67-0.04-1.34-0.07-2.01-0.1c0-0.07,0-0.13,0-0.2C36,16.69,36.67,16.73,37.34,16.77z
		 M37.54,15.46c-0.03,0.38-0.04,0.67-0.04,0.87c0,0.2,0,0.38,0,0.55c0,0.17,0,0.35,0.01,0.55c0.01,0.2,0.02,0.49,0.05,0.87
		c-0.08,0-0.15-0.01-0.23-0.01c-0.03-0.21-0.06-0.43-0.1-0.63c-0.04-0.21-0.12-0.38-0.24-0.51c-0.12-0.14-0.33-0.21-0.63-0.23
		c0-0.07,0-0.13,0-0.2c0.3,0.01,0.5-0.05,0.62-0.2c0.12-0.15,0.19-0.32,0.23-0.53c0.03-0.2,0.06-0.39,0.09-0.54
		C37.38,15.45,37.46,15.45,37.54,15.46z"/>
	<path class="st0" d="M39.61,13.4c0.14,0.02,0.33,0.04,0.55,0.06c0.23,0.03,0.45,0.05,0.67,0.07c0.32,0.03,0.62,0.05,0.9,0.07
		c0.29,0.02,0.49,0.04,0.61,0.05c0.81,0.08,1.41,0.32,1.82,0.7c0.4,0.38,0.6,0.82,0.6,1.31c0,0.2-0.04,0.41-0.12,0.63
		c-0.08,0.22-0.22,0.41-0.42,0.59c-0.2,0.18-0.47,0.31-0.81,0.4c-0.34,0.09-0.77,0.11-1.29,0.06c-0.32-0.03-0.64-0.06-0.96-0.09
		c0-0.07,0-0.13,0-0.2c0.29,0.03,0.58,0.05,0.86,0.08c0.48,0.05,0.84,0.01,1.09-0.11c0.25-0.12,0.42-0.3,0.51-0.54
		c0.09-0.24,0.14-0.51,0.14-0.82c0-0.53-0.13-0.95-0.38-1.27c-0.25-0.32-0.68-0.51-1.29-0.57c-0.31-0.03-0.51,0.01-0.6,0.11
		c-0.09,0.1-0.14,0.33-0.14,0.68c0,1.65,0,3.31,0,4.96c0,0.24,0.02,0.42,0.06,0.55c0.04,0.12,0.12,0.21,0.24,0.26
		c0.12,0.05,0.29,0.1,0.52,0.13c0,0.07,0,0.13,0,0.2c-0.15-0.03-0.35-0.06-0.58-0.08c-0.23-0.02-0.46-0.05-0.7-0.07
		c-0.26-0.02-0.51-0.04-0.73-0.06c-0.23-0.01-0.41-0.02-0.55-0.02c0-0.07,0-0.13,0-0.2c0.23,0,0.4-0.01,0.52-0.04
		c0.12-0.03,0.2-0.1,0.24-0.22c0.04-0.12,0.06-0.3,0.06-0.53c0-1.65,0-3.31,0-4.96c0-0.25-0.02-0.43-0.06-0.55
		c-0.04-0.12-0.12-0.21-0.24-0.26c-0.12-0.05-0.29-0.09-0.52-0.12C39.61,13.53,39.61,13.47,39.61,13.4z M41.21,17.08
		c0.36,0.05,0.65,0.09,0.85,0.13c0.21,0.04,0.38,0.07,0.51,0.1c0.13,0.03,0.26,0.06,0.38,0.09c0.45,0.12,0.77,0.29,0.97,0.51
		c0.2,0.22,0.34,0.54,0.44,0.97c0.08,0.35,0.17,0.7,0.25,1.05c0.07,0.3,0.14,0.52,0.21,0.66c0.07,0.14,0.18,0.21,0.33,0.22
		c0.11,0.01,0.21-0.02,0.29-0.07c0.08-0.06,0.16-0.14,0.25-0.24c0.05,0.04,0.1,0.09,0.15,0.13c-0.14,0.19-0.28,0.33-0.44,0.42
		c-0.15,0.09-0.36,0.12-0.64,0.09c-0.25-0.03-0.47-0.13-0.65-0.3c-0.19-0.17-0.33-0.47-0.42-0.91c-0.07-0.34-0.15-0.68-0.22-1.02
		c-0.06-0.29-0.13-0.55-0.21-0.77c-0.08-0.22-0.18-0.4-0.32-0.53c-0.14-0.13-0.34-0.22-0.61-0.24c-0.36-0.04-0.72-0.07-1.08-0.1
		C41.22,17.2,41.21,17.14,41.21,17.08z"/>
	<path class="st0" d="M49.4,14.43c0.63,0.1,1.19,0.34,1.66,0.71c0.47,0.37,0.84,0.85,1.11,1.44c0.26,0.59,0.39,1.26,0.39,2.03
		c0,0.75-0.13,1.37-0.4,1.88c-0.27,0.51-0.64,0.88-1.12,1.1c-0.48,0.23-1.03,0.29-1.64,0.19c-0.63-0.1-1.19-0.33-1.66-0.69
		c-0.48-0.36-0.85-0.82-1.11-1.4c-0.26-0.58-0.39-1.24-0.39-2c0-0.75,0.14-1.38,0.41-1.9c0.27-0.52,0.65-0.91,1.13-1.15
		C48.24,14.41,48.78,14.33,49.4,14.43z M49.36,14.61c-0.43-0.07-0.81,0.02-1.13,0.27c-0.32,0.25-0.57,0.63-0.74,1.13
		c-0.18,0.5-0.26,1.1-0.26,1.79c0,0.71,0.1,1.34,0.29,1.89c0.2,0.55,0.46,1,0.8,1.33c0.34,0.33,0.71,0.53,1.11,0.6
		c0.43,0.07,0.81-0.02,1.13-0.26c0.32-0.24,0.57-0.62,0.74-1.11c0.18-0.5,0.26-1.09,0.26-1.78c0-0.71-0.1-1.35-0.29-1.9
		c-0.2-0.55-0.46-1-0.79-1.34C50.15,14.88,49.77,14.68,49.36,14.61z"/>
	<path class="st0" d="M59.63,16.72c0,0.07,0,0.13,0,0.2c-0.22-0.05-0.39-0.06-0.51-0.03c-0.11,0.03-0.19,0.11-0.23,0.23
		c-0.04,0.12-0.06,0.31-0.06,0.56c0,1.99,0,3.98,0,5.97c-0.04-0.01-0.08-0.02-0.11-0.03c-0.04-0.01-0.07-0.02-0.11-0.03
		c-1.38-2.5-2.76-4.98-4.15-7.44c0,1.76,0,3.52,0,5.28c0,0.24,0.02,0.43,0.06,0.58c0.04,0.15,0.13,0.26,0.26,0.34
		c0.13,0.08,0.32,0.16,0.58,0.23c0,0.07,0,0.13,0,0.2c-0.12-0.04-0.27-0.08-0.47-0.13c-0.19-0.04-0.37-0.08-0.55-0.12
		c-0.16-0.03-0.33-0.07-0.5-0.1c-0.17-0.03-0.31-0.05-0.42-0.06c0-0.07,0-0.13,0-0.2c0.23,0.03,0.4,0.03,0.51,0
		c0.12-0.03,0.19-0.11,0.23-0.24c0.04-0.13,0.06-0.31,0.06-0.55c0-1.62,0-3.24,0-4.86c0-0.25-0.02-0.43-0.06-0.56
		c-0.04-0.12-0.12-0.22-0.23-0.29c-0.12-0.07-0.29-0.13-0.51-0.18c0-0.07,0-0.13,0-0.2c0.11,0.03,0.25,0.06,0.42,0.1
		c0.17,0.04,0.34,0.08,0.5,0.11c0.15,0.03,0.28,0.06,0.42,0.08c0.13,0.02,0.25,0.04,0.36,0.06c1.17,2.06,2.33,4.15,3.49,6.25
		c0-1.43,0-2.85,0-4.28c0-0.25-0.02-0.44-0.06-0.59c-0.04-0.14-0.13-0.26-0.26-0.35c-0.13-0.09-0.32-0.17-0.58-0.24
		c0-0.07,0-0.13,0-0.2c0.12,0.04,0.27,0.08,0.47,0.13c0.19,0.06,0.37,0.1,0.54,0.14c0.17,0.04,0.34,0.08,0.51,0.12
		C59.39,16.67,59.53,16.7,59.63,16.72z"/>
</g>
<g>
	<defs>
		<rect id="SVGID_2_" x="20.34" y="27.56" width="19.68" height="9.96"/>
	</defs>
	<clipPath id="SVGID_3_">
		<use xlink:href="#SVGID_2_"  style="overflow:visible;"/>
	</clipPath>
	<path class="st1" d="M40.02,27.67c0,0.03-0.01,0.06-0.03,0.08l-9.72,9.72c-0.05,0.05-0.12,0.05-0.17,0l-9.72-9.72
		c-0.05-0.05-0.05-0.12,0-0.16c0.05-0.05,0.12-0.05,0.17,0l9.64,9.64l9.64-9.64c0.05-0.05,0.12-0.05,0.16,0
		C40.01,27.61,40.02,27.64,40.02,27.67"/>
	<path class="st1" d="M33.58,29.33c0,0.3-0.12,0.6-0.31,0.81c-0.55,0.62-1.61,0.77-2.45,0.88c-0.01,0-0.02,0-0.03,0
		c0.14,0.05,0.27,0.13,0.36,0.23c0.26,0.28,0.28,0.74,0.04,1.03c-0.11,0.13-0.25,0.25-0.39,0.35c-0.27,0.21-0.5,0.4-0.5,0.72v0
		c0,0.06-0.05,0.12-0.12,0.12c-0.06,0-0.12-0.06-0.12-0.12v0c0-0.33-0.23-0.51-0.5-0.72c-0.14-0.11-0.28-0.22-0.39-0.35
		c-0.24-0.29-0.22-0.75,0.04-1.03c0.1-0.11,0.23-0.18,0.36-0.23c-0.01,0-0.02,0-0.03,0c-0.85-0.12-1.9-0.26-2.45-0.88
		c-0.38-0.42-0.46-1.17,0.06-1.63c0.21-0.18,0.5-0.26,0.8-0.2c0.29,0.06,0.51,0.23,0.63,0.47c0.17,0.35-0.03,0.71-0.31,0.85
		c-0.24,0.12-0.56,0.09-0.73-0.23c-0.03-0.06-0.01-0.13,0.05-0.16c0.06-0.03,0.13-0.01,0.16,0.05c0.13,0.25,0.35,0.17,0.42,0.13
		c0.18-0.09,0.31-0.31,0.2-0.54c-0.08-0.17-0.25-0.3-0.46-0.34c-0.22-0.05-0.44,0.01-0.6,0.14c-0.41,0.37-0.34,0.96-0.04,1.3
		c0.5,0.56,1.5,0.7,2.31,0.81c0.21,0.03,0.42,0.06,0.6,0.09c0.18-0.03,0.39-0.06,0.6-0.09c0.81-0.11,1.81-0.25,2.31-0.81
		c0.3-0.34,0.37-0.93-0.04-1.3c-0.15-0.13-0.37-0.19-0.6-0.14c-0.21,0.04-0.38,0.17-0.46,0.34c-0.11,0.23,0.02,0.45,0.2,0.54
		c0.06,0.03,0.28,0.12,0.42-0.13c0.03-0.06,0.1-0.08,0.16-0.05c0.06,0.03,0.08,0.1,0.05,0.16c-0.17,0.33-0.49,0.35-0.73,0.23
		c-0.28-0.14-0.47-0.5-0.31-0.85c0.11-0.24,0.34-0.41,0.63-0.47c0.29-0.06,0.59,0.01,0.8,0.2C33.47,28.74,33.58,29.03,33.58,29.33
		 M30.18,32.94c0.12-0.2,0.3-0.34,0.48-0.48c0.13-0.1,0.26-0.2,0.35-0.32c0.16-0.2,0.15-0.53-0.03-0.73
		c-0.17-0.18-0.49-0.24-0.75-0.29l-0.04-0.01l-0.04,0.01c-0.26,0.05-0.59,0.11-0.75,0.29c-0.18,0.2-0.19,0.52-0.03,0.73
		c0.09,0.11,0.22,0.21,0.35,0.32C29.88,32.59,30.07,32.74,30.18,32.94"/>
	<path class="st1" d="M31.45,28.98c0,0.28-0.18,0.54-0.39,0.69c-0.12,0.09-0.25,0.14-0.37,0.18c-0.16,0.06-0.31,0.11-0.42,0.28
		c-0.02,0.03-0.06,0.05-0.1,0.05c-0.04,0-0.07-0.02-0.1-0.05c-0.11-0.16-0.25-0.21-0.42-0.28c-0.11-0.04-0.24-0.09-0.37-0.18
		c-0.28-0.2-0.5-0.59-0.33-0.98c0.12-0.27,0.41-0.43,0.68-0.39c0.17,0.03,0.39,0.12,0.52,0.3c0.13-0.18,0.36-0.27,0.52-0.3
		c0.27-0.04,0.56,0.12,0.68,0.39C31.43,28.79,31.45,28.88,31.45,28.98 M30.18,29.87c0.13-0.13,0.29-0.19,0.43-0.25
		c0.11-0.04,0.21-0.08,0.31-0.15c0.21-0.15,0.37-0.42,0.25-0.69c-0.08-0.17-0.26-0.28-0.44-0.25c-0.18,0.03-0.44,0.16-0.44,0.42
		c0,0.06-0.05,0.12-0.12,0.12c-0.06,0-0.12-0.05-0.12-0.12c0-0.26-0.26-0.39-0.44-0.42c-0.17-0.03-0.35,0.08-0.43,0.25
		c-0.12,0.27,0.04,0.54,0.25,0.69c0.1,0.07,0.2,0.11,0.31,0.15C29.9,29.68,30.05,29.73,30.18,29.87"/>
	<path class="st1" d="M37.25,28.14v1.32c0,0.06-0.05,0.12-0.12,0.12h-1.32c-0.06,0-0.12-0.05-0.12-0.12v-1.32
		c0-0.06,0.05-0.12,0.12-0.12h1.32C37.2,28.02,37.25,28.07,37.25,28.14 M37.02,29.35v-1.09h-1.09v1.09H37.02z"/>
	<path class="st1" d="M35.93,29.46c0,0.03-0.01,0.06-0.03,0.08l-5.63,5.63c-0.02,0.02-0.05,0.03-0.08,0.03s-0.06-0.01-0.08-0.03
		l-5.63-5.63c-0.05-0.05-0.05-0.12,0-0.16c0.05-0.05,0.12-0.05,0.16,0l5.55,5.55l5.55-5.55c0.05-0.05,0.12-0.05,0.17,0
		C35.92,29.4,35.93,29.43,35.93,29.46"/>
	<path class="st1" d="M24.67,28.14v1.32c0,0.06-0.05,0.12-0.12,0.12h-1.32c-0.06,0-0.12-0.05-0.12-0.12v-1.32
		c0-0.06,0.05-0.12,0.12-0.12h1.32C24.62,28.02,24.67,28.07,24.67,28.14 M24.44,29.35v-1.09h-1.09v1.09H24.44z"/>
</g>
</svg>
