<?xml version="1.0" encoding="utf-8"?>
<!-- Generator: Adobe Illustrator 23.0.2, SVG Export Plug-In . SVG Version: 6.00 Build 0)  -->
<svg version="1.1" id="Layer_1" xmlns="http://www.w3.org/2000/svg" xmlns:xlink="http://www.w3.org/1999/xlink" x="0px" y="0px"
	 viewBox="0 0 117 71" style="enable-background:new 0 0 117 71;" xml:space="preserve">
<style type="text/css">
	.st0{fill:#C6C5C4;}
	.st1{fill:#B12F2B;}
	.st2{fill:none;}
	.st3{fill:#C1C1C1;}
	.st4{fill:#A61E22;}
	.st5{fill:#C2C2C2;}
	.st6{fill:#A81812;}
	.st7{fill:#C79571;}
	.st8{fill:#A7C976;}
	.st9{fill:#FFFFFF;}
	.st10{fill:#EEE3D6;}
	.st11{fill:#CBCBCB;}
	.st12{fill:none;stroke:#000000;stroke-width:0.5;stroke-miterlimit:10;}
	.st13{clip-path:url(#SVGID_2_);fill:#C1C1C1;}
	.st14{clip-path:url(#SVGID_2_);fill:#A81812;}
	.st15{fill:#71D45B;}
	.st16{fill:#D1D1D1;}
</style>
<g>
	<g>
		<path class="st5" d="M60.4,52.9c-5.7,0-13.1-3.1-21.7-9.2c-6.4-4.5-11.2-9.1-11.3-9.1c-0.3-0.3-0.3-0.7-0.1-1.1
			c0.2-0.3,5.2-4.7,11.4-8.8c8.7-5.8,15.9-8.7,21.7-8.7c5.7,0,13,2.8,21.7,8.4c6.4,4.1,11.2,8.3,11.3,8.4c0.3,0.3,0.4,0.7,0.2,1.1
			c-0.1,0.2-5.1,5-11.4,9.6C73.4,49.7,66.1,52.9,60.4,52.9z M29.2,34c3.5,3.2,19.6,17.2,31.2,17.2c5.3,0,12.3-3.1,20.5-9
			c5.1-3.7,9.2-7.4,10.7-8.8C88,30.5,71.9,17.7,60.4,17.7C48.7,17.7,32.6,31,29.2,34z"/>
	</g>
	<g>
		<path class="st5" d="M59.8,44.4c-5.1,0-9.3-4.2-9.3-9.3s4.2-9.3,9.3-9.3s9.3,4.2,9.3,9.3S65,44.4,59.8,44.4z M59.8,27.5
			c-4.2,0-7.6,3.4-7.6,7.6c0,4.2,3.4,7.6,7.6,7.6c4.2,0,7.6-3.4,7.6-7.6C67.4,31,64,27.5,59.8,27.5z"/>
	</g>
	<circle class="st5" cx="59.8" cy="35.1" r="2.8"/>
	<g>
		<path class="st6" d="M35,68.4c-0.3,0-0.6-0.2-0.7-0.4l-2.4-4.3l-4.3-2.4c-0.3-0.1-0.4-0.4-0.4-0.7c0-0.3,0.2-0.6,0.4-0.7l4.3-2.4
			l2.4-4.3c0.1-0.3,0.4-0.4,0.7-0.4c0.3,0,0.6,0.2,0.7,0.4l2.4,4.3l4.3,2.4c0.3,0.1,0.4,0.4,0.4,0.7c0,0.3-0.2,0.6-0.4,0.7l-4.3,2.4
			L35.8,68C35.6,68.2,35.3,68.4,35,68.4z M29.8,60.5l3.2,1.7c0.1,0.1,0.3,0.2,0.3,0.3l1.7,3.2l1.7-3.2c0.1-0.1,0.2-0.3,0.3-0.3
			l3.2-1.7l-3.2-1.7c-0.1-0.1-0.3-0.2-0.3-0.3L35,55.2l-1.7,3.2c-0.1,0.1-0.2,0.3-0.3,0.3L29.8,60.5z"/>
	</g>
	<g>
		<path class="st6" d="M85.8,17.7c-0.3,0-0.6-0.2-0.7-0.4l-2.4-4.3l-4.3-2.4c-0.3-0.1-0.4-0.4-0.4-0.7S78,9.2,78.3,9l4.3-2.4L85,2.3
			c0.1-0.3,0.4-0.4,0.7-0.4c0.3,0,0.6,0.2,0.7,0.4l2.4,4.3L93.2,9c0.3,0.1,0.4,0.4,0.4,0.7s-0.2,0.6-0.4,0.7l-4.3,2.4l-2.4,4.3
			C86.3,17.5,86.1,17.7,85.8,17.7z M80.5,9.8l3.2,1.7c0.1,0.1,0.3,0.2,0.3,0.3l1.7,3.2l1.7-3.2c0.1-0.1,0.2-0.3,0.3-0.3L91,9.8
			L87.8,8c-0.1-0.1-0.3-0.2-0.3-0.3l-1.7-3.2L84,7.7C83.9,7.8,83.8,8,83.7,8L80.5,9.8z"/>
	</g>
	<g>
		<path class="st6" d="M35.7,16.3c-2.4,0-4.4-2-4.4-4.4s2-4.4,4.4-4.4c2.4,0,4.4,2,4.4,4.4S38.1,16.3,35.7,16.3z M35.7,9.2
			c-1.5,0-2.7,1.2-2.7,2.7s1.2,2.7,2.7,2.7s2.7-1.2,2.7-2.7S37.2,9.2,35.7,9.2z"/>
	</g>
	<g>
		<path class="st6" d="M83.6,62.8c-2.4,0-4.4-2-4.4-4.4c0-2.4,2-4.4,4.4-4.4c2.4,0,4.4,2,4.4,4.4C88,60.8,86,62.8,83.6,62.8z
			 M83.6,55.7c-1.5,0-2.7,1.2-2.7,2.7c0,1.5,1.2,2.7,2.7,2.7c1.5,0,2.7-1.2,2.7-2.7C86.3,56.9,85.1,55.7,83.6,55.7z"/>
	</g>
</g>
</svg>
